<mxfile host="app.diagrams.net" modified="2023-07-11T06:32:56.221Z" agent="Mozilla/5.0 (Windows NT 10.0; Win64; x64) AppleWebKit/537.36 (KHTML, like Gecko) Chrome/114.0.0.0 Safari/537.36 Edg/114.0.1823.67" etag="e8BnwHZ0kY1UxIuvg-nD" version="21.6.1" type="device">
  <diagram name="Page-1" id="FpTBXJOwQy58XbU-VklY">
    <mxGraphModel dx="3430" dy="2182" grid="1" gridSize="10" guides="1" tooltips="1" connect="1" arrows="1" fold="1" page="1" pageScale="1" pageWidth="850" pageHeight="1100" math="0" shadow="0">
      <root>
        <mxCell id="0" />
        <mxCell id="1" parent="0" />
        <mxCell id="tQOnXve0qwPO33CJhy6B-1" value="&lt;font style=&quot;font-size: 17px;&quot;&gt;&lt;i&gt;Ngành hẹp&lt;/i&gt;&lt;/font&gt;" style="shape=table;startSize=30;container=1;collapsible=1;childLayout=tableLayout;fixedRows=1;rowLines=0;fontStyle=1;align=center;resizeLast=1;html=1;verticalAlign=middle;fillColor=#f0a30a;strokeColor=#BD7000;fontColor=#000000;strokeWidth=2;rounded=0;shadow=0;swimlaneLine=1;" parent="1" vertex="1">
          <mxGeometry x="-670" y="-470" width="180" height="210" as="geometry" />
        </mxCell>
        <mxCell id="tQOnXve0qwPO33CJhy6B-2" value="" style="shape=tableRow;horizontal=0;startSize=0;swimlaneHead=0;swimlaneBody=0;fillColor=#f5f5f5;collapsible=0;dropTarget=0;points=[[0,0.5],[1,0.5]];portConstraint=eastwest;top=0;left=0;right=0;bottom=1;strokeColor=#666666;fontColor=#333333;strokeWidth=2;rounded=1;fontStyle=1;shadow=0;" parent="tQOnXve0qwPO33CJhy6B-1" vertex="1">
          <mxGeometry y="30" width="180" height="30" as="geometry" />
        </mxCell>
        <mxCell id="tQOnXve0qwPO33CJhy6B-3" value="PK" style="shape=partialRectangle;connectable=0;fillColor=#f5f5f5;top=0;left=0;bottom=0;right=0;fontStyle=1;overflow=hidden;whiteSpace=wrap;html=1;strokeColor=#666666;fontColor=#333333;strokeWidth=2;rounded=1;shadow=0;" parent="tQOnXve0qwPO33CJhy6B-2" vertex="1">
          <mxGeometry width="30" height="30" as="geometry">
            <mxRectangle width="30" height="30" as="alternateBounds" />
          </mxGeometry>
        </mxCell>
        <mxCell id="tQOnXve0qwPO33CJhy6B-4" value="ID ngành hẹp" style="shape=partialRectangle;connectable=0;fillColor=#f5f5f5;top=0;left=0;bottom=0;right=0;align=left;spacingLeft=6;fontStyle=5;overflow=hidden;whiteSpace=wrap;html=1;strokeColor=#666666;fontColor=#333333;strokeWidth=2;rounded=1;shadow=0;" parent="tQOnXve0qwPO33CJhy6B-2" vertex="1">
          <mxGeometry x="30" width="150" height="30" as="geometry">
            <mxRectangle width="150" height="30" as="alternateBounds" />
          </mxGeometry>
        </mxCell>
        <mxCell id="IWIqAQeaE0l4H3r7YwF_-4" value="" style="shape=tableRow;horizontal=0;startSize=0;swimlaneHead=0;swimlaneBody=0;fillColor=#f5f5f5;collapsible=0;dropTarget=0;points=[[0,0.5],[1,0.5]];portConstraint=eastwest;top=0;left=0;right=0;bottom=0;strokeColor=#666666;fontColor=#333333;strokeWidth=2;rounded=1;fontStyle=1;shadow=0;" parent="tQOnXve0qwPO33CJhy6B-1" vertex="1">
          <mxGeometry y="60" width="180" height="30" as="geometry" />
        </mxCell>
        <mxCell id="IWIqAQeaE0l4H3r7YwF_-5" value="" style="shape=partialRectangle;connectable=0;fillColor=#f5f5f5;top=0;left=0;bottom=0;right=0;editable=1;overflow=hidden;whiteSpace=wrap;html=1;strokeColor=#666666;fontColor=#333333;strokeWidth=2;rounded=1;fontStyle=1;shadow=0;" parent="IWIqAQeaE0l4H3r7YwF_-4" vertex="1">
          <mxGeometry width="30" height="30" as="geometry">
            <mxRectangle width="30" height="30" as="alternateBounds" />
          </mxGeometry>
        </mxCell>
        <mxCell id="IWIqAQeaE0l4H3r7YwF_-6" value="Tên ngành hẹp" style="shape=partialRectangle;connectable=0;fillColor=#f5f5f5;top=0;left=0;bottom=0;right=0;align=left;spacingLeft=6;overflow=hidden;whiteSpace=wrap;html=1;strokeColor=#666666;fontColor=#333333;strokeWidth=2;rounded=1;fontStyle=1;shadow=0;" parent="IWIqAQeaE0l4H3r7YwF_-4" vertex="1">
          <mxGeometry x="30" width="150" height="30" as="geometry">
            <mxRectangle width="150" height="30" as="alternateBounds" />
          </mxGeometry>
        </mxCell>
        <mxCell id="tQOnXve0qwPO33CJhy6B-5" value="" style="shape=tableRow;horizontal=0;startSize=0;swimlaneHead=0;swimlaneBody=0;fillColor=#f5f5f5;collapsible=0;dropTarget=0;points=[[0,0.5],[1,0.5]];portConstraint=eastwest;top=0;left=0;right=0;bottom=0;strokeColor=#666666;fontColor=#333333;strokeWidth=2;rounded=1;fontStyle=1;shadow=0;" parent="tQOnXve0qwPO33CJhy6B-1" vertex="1">
          <mxGeometry y="90" width="180" height="30" as="geometry" />
        </mxCell>
        <mxCell id="tQOnXve0qwPO33CJhy6B-6" value="" style="shape=partialRectangle;connectable=0;fillColor=#f5f5f5;top=0;left=0;bottom=0;right=0;editable=1;overflow=hidden;whiteSpace=wrap;html=1;strokeColor=#666666;fontColor=#333333;strokeWidth=2;rounded=1;fontStyle=1;shadow=0;" parent="tQOnXve0qwPO33CJhy6B-5" vertex="1">
          <mxGeometry width="30" height="30" as="geometry">
            <mxRectangle width="30" height="30" as="alternateBounds" />
          </mxGeometry>
        </mxCell>
        <mxCell id="tQOnXve0qwPO33CJhy6B-7" value="Mã ngành hẹp" style="shape=partialRectangle;connectable=0;fillColor=#f5f5f5;top=0;left=0;bottom=0;right=0;align=left;spacingLeft=6;overflow=hidden;whiteSpace=wrap;html=1;strokeColor=#666666;fontColor=#333333;strokeWidth=2;rounded=1;fontStyle=1;shadow=0;" parent="tQOnXve0qwPO33CJhy6B-5" vertex="1">
          <mxGeometry x="30" width="150" height="30" as="geometry">
            <mxRectangle width="150" height="30" as="alternateBounds" />
          </mxGeometry>
        </mxCell>
        <mxCell id="cZPaNfz8ub3oRpcGuj9J-2" value="" style="shape=tableRow;horizontal=0;startSize=0;swimlaneHead=0;swimlaneBody=0;fillColor=#f5f5f5;collapsible=0;dropTarget=0;points=[[0,0.5],[1,0.5]];portConstraint=eastwest;top=0;left=0;right=0;bottom=0;strokeColor=#666666;fontColor=#333333;strokeWidth=2;rounded=1;fontStyle=1;shadow=0;" parent="tQOnXve0qwPO33CJhy6B-1" vertex="1">
          <mxGeometry y="120" width="180" height="30" as="geometry" />
        </mxCell>
        <mxCell id="cZPaNfz8ub3oRpcGuj9J-3" value="" style="shape=partialRectangle;connectable=0;fillColor=#f5f5f5;top=0;left=0;bottom=0;right=0;editable=1;overflow=hidden;whiteSpace=wrap;html=1;strokeColor=#666666;fontColor=#333333;strokeWidth=2;rounded=1;fontStyle=1;shadow=0;" parent="cZPaNfz8ub3oRpcGuj9J-2" vertex="1">
          <mxGeometry width="30" height="30" as="geometry">
            <mxRectangle width="30" height="30" as="alternateBounds" />
          </mxGeometry>
        </mxCell>
        <mxCell id="cZPaNfz8ub3oRpcGuj9J-4" value="Ngày sửa đổi cuối" style="shape=partialRectangle;connectable=0;fillColor=#f5f5f5;top=0;left=0;bottom=0;right=0;align=left;spacingLeft=6;overflow=hidden;whiteSpace=wrap;html=1;strokeColor=#666666;fontColor=#333333;strokeWidth=2;rounded=1;fontStyle=1;shadow=0;" parent="cZPaNfz8ub3oRpcGuj9J-2" vertex="1">
          <mxGeometry x="30" width="150" height="30" as="geometry">
            <mxRectangle width="150" height="30" as="alternateBounds" />
          </mxGeometry>
        </mxCell>
        <mxCell id="tQOnXve0qwPO33CJhy6B-8" value="" style="shape=tableRow;horizontal=0;startSize=0;swimlaneHead=0;swimlaneBody=0;fillColor=#f5f5f5;collapsible=0;dropTarget=0;points=[[0,0.5],[1,0.5]];portConstraint=eastwest;top=0;left=0;right=0;bottom=0;strokeColor=#666666;fontColor=#333333;strokeWidth=2;rounded=1;fontStyle=1;shadow=0;" parent="tQOnXve0qwPO33CJhy6B-1" vertex="1">
          <mxGeometry y="150" width="180" height="30" as="geometry" />
        </mxCell>
        <mxCell id="tQOnXve0qwPO33CJhy6B-9" value="" style="shape=partialRectangle;connectable=0;fillColor=#f5f5f5;top=0;left=0;bottom=0;right=0;editable=1;overflow=hidden;whiteSpace=wrap;html=1;strokeColor=#666666;fontColor=#333333;strokeWidth=2;rounded=1;fontStyle=1;shadow=0;" parent="tQOnXve0qwPO33CJhy6B-8" vertex="1">
          <mxGeometry width="30" height="30" as="geometry">
            <mxRectangle width="30" height="30" as="alternateBounds" />
          </mxGeometry>
        </mxCell>
        <mxCell id="tQOnXve0qwPO33CJhy6B-10" value="Mô tả" style="shape=partialRectangle;connectable=0;fillColor=#f5f5f5;top=0;left=0;bottom=0;right=0;align=left;spacingLeft=6;overflow=hidden;whiteSpace=wrap;html=1;strokeColor=#666666;fontColor=#333333;strokeWidth=2;rounded=1;fontStyle=1;shadow=0;" parent="tQOnXve0qwPO33CJhy6B-8" vertex="1">
          <mxGeometry x="30" width="150" height="30" as="geometry">
            <mxRectangle width="150" height="30" as="alternateBounds" />
          </mxGeometry>
        </mxCell>
        <mxCell id="tQOnXve0qwPO33CJhy6B-11" value="" style="shape=tableRow;horizontal=0;startSize=0;swimlaneHead=0;swimlaneBody=0;fillColor=#f5f5f5;collapsible=0;dropTarget=0;points=[[0,0.5],[1,0.5]];portConstraint=eastwest;top=0;left=0;right=0;bottom=0;strokeColor=#666666;fontColor=#333333;strokeWidth=2;rounded=1;fontStyle=1;shadow=0;" parent="tQOnXve0qwPO33CJhy6B-1" vertex="1">
          <mxGeometry y="180" width="180" height="30" as="geometry" />
        </mxCell>
        <mxCell id="tQOnXve0qwPO33CJhy6B-12" value="FK" style="shape=partialRectangle;connectable=0;fillColor=#f5f5f5;top=0;left=0;bottom=0;right=0;editable=1;overflow=hidden;whiteSpace=wrap;html=1;strokeColor=#666666;fontColor=#333333;strokeWidth=2;rounded=1;fontStyle=1;shadow=0;" parent="tQOnXve0qwPO33CJhy6B-11" vertex="1">
          <mxGeometry width="30" height="30" as="geometry">
            <mxRectangle width="30" height="30" as="alternateBounds" />
          </mxGeometry>
        </mxCell>
        <mxCell id="tQOnXve0qwPO33CJhy6B-13" value="ID Ngành" style="shape=partialRectangle;connectable=0;fillColor=#f5f5f5;top=0;left=0;bottom=0;right=0;align=left;spacingLeft=6;overflow=hidden;whiteSpace=wrap;html=1;strokeColor=#666666;fontColor=#333333;strokeWidth=2;rounded=1;fontStyle=1;shadow=0;" parent="tQOnXve0qwPO33CJhy6B-11" vertex="1">
          <mxGeometry x="30" width="150" height="30" as="geometry">
            <mxRectangle width="150" height="30" as="alternateBounds" />
          </mxGeometry>
        </mxCell>
        <mxCell id="tQOnXve0qwPO33CJhy6B-14" value="&lt;font style=&quot;font-size: 17px;&quot;&gt;&lt;i&gt;Sinh viên&lt;/i&gt;&lt;/font&gt;" style="shape=table;startSize=30;container=1;collapsible=1;childLayout=tableLayout;fixedRows=1;rowLines=0;fontStyle=1;align=center;resizeLast=1;html=1;fillColor=default;strokeWidth=2;strokeColor=#56517e;rounded=0;shadow=0;swimlaneLine=1;" parent="1" vertex="1">
          <mxGeometry x="-390" y="440" width="180" height="330" as="geometry">
            <mxRectangle x="600" y="290" width="90" height="30" as="alternateBounds" />
          </mxGeometry>
        </mxCell>
        <mxCell id="tQOnXve0qwPO33CJhy6B-15" value="" style="shape=tableRow;horizontal=0;startSize=0;swimlaneHead=0;swimlaneBody=0;fillColor=#f5f5f5;collapsible=0;dropTarget=0;points=[[0,0.5],[1,0.5]];portConstraint=eastwest;top=0;left=0;right=0;bottom=1;strokeColor=#666666;fontColor=#333333;strokeWidth=2;rounded=1;fontStyle=1;shadow=0;" parent="tQOnXve0qwPO33CJhy6B-14" vertex="1">
          <mxGeometry y="30" width="180" height="30" as="geometry" />
        </mxCell>
        <mxCell id="tQOnXve0qwPO33CJhy6B-16" value="PK" style="shape=partialRectangle;connectable=0;fillColor=#f5f5f5;top=0;left=0;bottom=0;right=0;fontStyle=1;overflow=hidden;whiteSpace=wrap;html=1;strokeColor=#666666;fontColor=#333333;strokeWidth=2;rounded=1;shadow=0;" parent="tQOnXve0qwPO33CJhy6B-15" vertex="1">
          <mxGeometry width="30" height="30" as="geometry">
            <mxRectangle width="30" height="30" as="alternateBounds" />
          </mxGeometry>
        </mxCell>
        <mxCell id="tQOnXve0qwPO33CJhy6B-17" value="ID sinh viên (MSV)" style="shape=partialRectangle;connectable=0;fillColor=#f5f5f5;top=0;left=0;bottom=0;right=0;align=left;spacingLeft=6;fontStyle=5;overflow=hidden;whiteSpace=wrap;html=1;strokeColor=#666666;fontColor=#333333;strokeWidth=2;rounded=1;shadow=0;" parent="tQOnXve0qwPO33CJhy6B-15" vertex="1">
          <mxGeometry x="30" width="150" height="30" as="geometry">
            <mxRectangle width="150" height="30" as="alternateBounds" />
          </mxGeometry>
        </mxCell>
        <mxCell id="tQOnXve0qwPO33CJhy6B-18" value="" style="shape=tableRow;horizontal=0;startSize=0;swimlaneHead=0;swimlaneBody=0;fillColor=#f5f5f5;collapsible=0;dropTarget=0;points=[[0,0.5],[1,0.5]];portConstraint=eastwest;top=0;left=0;right=0;bottom=0;strokeColor=#666666;fontColor=#333333;strokeWidth=2;rounded=1;fontStyle=1;shadow=0;" parent="tQOnXve0qwPO33CJhy6B-14" vertex="1">
          <mxGeometry y="60" width="180" height="30" as="geometry" />
        </mxCell>
        <mxCell id="tQOnXve0qwPO33CJhy6B-19" value="" style="shape=partialRectangle;connectable=0;fillColor=#f5f5f5;top=0;left=0;bottom=0;right=0;editable=1;overflow=hidden;whiteSpace=wrap;html=1;strokeColor=#666666;fontColor=#333333;strokeWidth=2;rounded=1;fontStyle=1;shadow=0;" parent="tQOnXve0qwPO33CJhy6B-18" vertex="1">
          <mxGeometry width="30" height="30" as="geometry">
            <mxRectangle width="30" height="30" as="alternateBounds" />
          </mxGeometry>
        </mxCell>
        <mxCell id="tQOnXve0qwPO33CJhy6B-20" value="Tên đầy đủ sinh viên" style="shape=partialRectangle;connectable=0;fillColor=#f5f5f5;top=0;left=0;bottom=0;right=0;align=left;spacingLeft=6;overflow=hidden;whiteSpace=wrap;html=1;strokeColor=#666666;fontColor=#333333;strokeWidth=2;rounded=1;fontStyle=1;shadow=0;" parent="tQOnXve0qwPO33CJhy6B-18" vertex="1">
          <mxGeometry x="30" width="150" height="30" as="geometry">
            <mxRectangle width="150" height="30" as="alternateBounds" />
          </mxGeometry>
        </mxCell>
        <mxCell id="tQOnXve0qwPO33CJhy6B-21" value="" style="shape=tableRow;horizontal=0;startSize=0;swimlaneHead=0;swimlaneBody=0;fillColor=#f5f5f5;collapsible=0;dropTarget=0;points=[[0,0.5],[1,0.5]];portConstraint=eastwest;top=0;left=0;right=0;bottom=0;strokeColor=#666666;fontColor=#333333;strokeWidth=2;rounded=1;fontStyle=1;shadow=0;" parent="tQOnXve0qwPO33CJhy6B-14" vertex="1">
          <mxGeometry y="90" width="180" height="30" as="geometry" />
        </mxCell>
        <mxCell id="tQOnXve0qwPO33CJhy6B-22" value="" style="shape=partialRectangle;connectable=0;fillColor=#f5f5f5;top=0;left=0;bottom=0;right=0;editable=1;overflow=hidden;whiteSpace=wrap;html=1;strokeColor=#666666;fontColor=#333333;strokeWidth=2;rounded=1;fontStyle=1;shadow=0;" parent="tQOnXve0qwPO33CJhy6B-21" vertex="1">
          <mxGeometry width="30" height="30" as="geometry">
            <mxRectangle width="30" height="30" as="alternateBounds" />
          </mxGeometry>
        </mxCell>
        <mxCell id="tQOnXve0qwPO33CJhy6B-23" value="Email" style="shape=partialRectangle;connectable=0;fillColor=#f5f5f5;top=0;left=0;bottom=0;right=0;align=left;spacingLeft=6;overflow=hidden;whiteSpace=wrap;html=1;strokeColor=#666666;fontColor=#333333;strokeWidth=2;rounded=1;fontStyle=1;shadow=0;" parent="tQOnXve0qwPO33CJhy6B-21" vertex="1">
          <mxGeometry x="30" width="150" height="30" as="geometry">
            <mxRectangle width="150" height="30" as="alternateBounds" />
          </mxGeometry>
        </mxCell>
        <mxCell id="tQOnXve0qwPO33CJhy6B-24" value="" style="shape=tableRow;horizontal=0;startSize=0;swimlaneHead=0;swimlaneBody=0;fillColor=#f5f5f5;collapsible=0;dropTarget=0;points=[[0,0.5],[1,0.5]];portConstraint=eastwest;top=0;left=0;right=0;bottom=0;strokeColor=#666666;fontColor=#333333;strokeWidth=2;rounded=1;fontStyle=1;shadow=0;" parent="tQOnXve0qwPO33CJhy6B-14" vertex="1">
          <mxGeometry y="120" width="180" height="30" as="geometry" />
        </mxCell>
        <mxCell id="tQOnXve0qwPO33CJhy6B-25" value="" style="shape=partialRectangle;connectable=0;fillColor=#f5f5f5;top=0;left=0;bottom=0;right=0;editable=1;overflow=hidden;whiteSpace=wrap;html=1;strokeColor=#666666;fontColor=#333333;strokeWidth=2;rounded=1;fontStyle=1;shadow=0;" parent="tQOnXve0qwPO33CJhy6B-24" vertex="1">
          <mxGeometry width="30" height="30" as="geometry">
            <mxRectangle width="30" height="30" as="alternateBounds" />
          </mxGeometry>
        </mxCell>
        <mxCell id="tQOnXve0qwPO33CJhy6B-26" value="Ngày sinh" style="shape=partialRectangle;connectable=0;fillColor=#f5f5f5;top=0;left=0;bottom=0;right=0;align=left;spacingLeft=6;overflow=hidden;whiteSpace=wrap;html=1;strokeColor=#666666;fontColor=#333333;strokeWidth=2;rounded=1;fontStyle=1;shadow=0;" parent="tQOnXve0qwPO33CJhy6B-24" vertex="1">
          <mxGeometry x="30" width="150" height="30" as="geometry">
            <mxRectangle width="150" height="30" as="alternateBounds" />
          </mxGeometry>
        </mxCell>
        <mxCell id="tQOnXve0qwPO33CJhy6B-27" value="" style="shape=tableRow;horizontal=0;startSize=0;swimlaneHead=0;swimlaneBody=0;fillColor=#f5f5f5;collapsible=0;dropTarget=0;points=[[0,0.5],[1,0.5]];portConstraint=eastwest;top=0;left=0;right=0;bottom=0;strokeColor=#666666;fontColor=#333333;strokeWidth=2;rounded=1;fontStyle=1;shadow=0;" parent="tQOnXve0qwPO33CJhy6B-14" vertex="1">
          <mxGeometry y="150" width="180" height="30" as="geometry" />
        </mxCell>
        <mxCell id="tQOnXve0qwPO33CJhy6B-28" value="" style="shape=partialRectangle;connectable=0;fillColor=#f5f5f5;top=0;left=0;bottom=0;right=0;editable=1;overflow=hidden;whiteSpace=wrap;html=1;strokeColor=#666666;fontColor=#333333;strokeWidth=2;rounded=1;fontStyle=1;shadow=0;" parent="tQOnXve0qwPO33CJhy6B-27" vertex="1">
          <mxGeometry width="30" height="30" as="geometry">
            <mxRectangle width="30" height="30" as="alternateBounds" />
          </mxGeometry>
        </mxCell>
        <mxCell id="tQOnXve0qwPO33CJhy6B-29" value="Số điện thoại" style="shape=partialRectangle;connectable=0;fillColor=#f5f5f5;top=0;left=0;bottom=0;right=0;align=left;spacingLeft=6;overflow=hidden;whiteSpace=wrap;html=1;strokeColor=#666666;fontColor=#333333;strokeWidth=2;rounded=1;fontStyle=1;shadow=0;" parent="tQOnXve0qwPO33CJhy6B-27" vertex="1">
          <mxGeometry x="30" width="150" height="30" as="geometry">
            <mxRectangle width="150" height="30" as="alternateBounds" />
          </mxGeometry>
        </mxCell>
        <mxCell id="IWIqAQeaE0l4H3r7YwF_-13" value="" style="shape=tableRow;horizontal=0;startSize=0;swimlaneHead=0;swimlaneBody=0;fillColor=#f5f5f5;collapsible=0;dropTarget=0;points=[[0,0.5],[1,0.5]];portConstraint=eastwest;top=0;left=0;right=0;bottom=0;strokeColor=#666666;fontColor=#333333;strokeWidth=2;rounded=1;fontStyle=1;shadow=0;" parent="tQOnXve0qwPO33CJhy6B-14" vertex="1">
          <mxGeometry y="180" width="180" height="30" as="geometry" />
        </mxCell>
        <mxCell id="IWIqAQeaE0l4H3r7YwF_-14" value="" style="shape=partialRectangle;connectable=0;fillColor=#f5f5f5;top=0;left=0;bottom=0;right=0;editable=1;overflow=hidden;whiteSpace=wrap;html=1;strokeColor=#666666;fontColor=#333333;strokeWidth=2;rounded=1;fontStyle=1;shadow=0;" parent="IWIqAQeaE0l4H3r7YwF_-13" vertex="1">
          <mxGeometry width="30" height="30" as="geometry">
            <mxRectangle width="30" height="30" as="alternateBounds" />
          </mxGeometry>
        </mxCell>
        <mxCell id="IWIqAQeaE0l4H3r7YwF_-15" value="Tỉnh, Thành phố" style="shape=partialRectangle;connectable=0;fillColor=#f5f5f5;top=0;left=0;bottom=0;right=0;align=left;spacingLeft=6;overflow=hidden;whiteSpace=wrap;html=1;strokeColor=#666666;fontColor=#333333;strokeWidth=2;rounded=1;fontStyle=1;shadow=0;" parent="IWIqAQeaE0l4H3r7YwF_-13" vertex="1">
          <mxGeometry x="30" width="150" height="30" as="geometry">
            <mxRectangle width="150" height="30" as="alternateBounds" />
          </mxGeometry>
        </mxCell>
        <mxCell id="tQOnXve0qwPO33CJhy6B-30" value="" style="shape=tableRow;horizontal=0;startSize=0;swimlaneHead=0;swimlaneBody=0;fillColor=#f5f5f5;collapsible=0;dropTarget=0;points=[[0,0.5],[1,0.5]];portConstraint=eastwest;top=0;left=0;right=0;bottom=0;strokeColor=#666666;fontColor=#333333;strokeWidth=2;rounded=1;fontStyle=1;shadow=0;" parent="tQOnXve0qwPO33CJhy6B-14" vertex="1">
          <mxGeometry y="210" width="180" height="30" as="geometry" />
        </mxCell>
        <mxCell id="tQOnXve0qwPO33CJhy6B-31" value="" style="shape=partialRectangle;connectable=0;fillColor=#f5f5f5;top=0;left=0;bottom=0;right=0;editable=1;overflow=hidden;whiteSpace=wrap;html=1;strokeColor=#666666;fontColor=#333333;strokeWidth=2;rounded=1;fontStyle=1;shadow=0;" parent="tQOnXve0qwPO33CJhy6B-30" vertex="1">
          <mxGeometry width="30" height="30" as="geometry">
            <mxRectangle width="30" height="30" as="alternateBounds" />
          </mxGeometry>
        </mxCell>
        <mxCell id="tQOnXve0qwPO33CJhy6B-32" value="Ảnh" style="shape=partialRectangle;connectable=0;fillColor=#f5f5f5;top=0;left=0;bottom=0;right=0;align=left;spacingLeft=6;overflow=hidden;whiteSpace=wrap;html=1;strokeColor=#666666;fontColor=#333333;strokeWidth=2;rounded=1;fontStyle=1;shadow=0;" parent="tQOnXve0qwPO33CJhy6B-30" vertex="1">
          <mxGeometry x="30" width="150" height="30" as="geometry">
            <mxRectangle width="150" height="30" as="alternateBounds" />
          </mxGeometry>
        </mxCell>
        <mxCell id="CDnV8Uc_9sDUrMYhlKRL-28" value="" style="shape=tableRow;horizontal=0;startSize=0;swimlaneHead=0;swimlaneBody=0;fillColor=#f5f5f5;collapsible=0;dropTarget=0;points=[[0,0.5],[1,0.5]];portConstraint=eastwest;top=0;left=0;right=0;bottom=0;strokeColor=#666666;fontColor=#333333;strokeWidth=2;rounded=1;fontStyle=1;shadow=0;" parent="tQOnXve0qwPO33CJhy6B-14" vertex="1">
          <mxGeometry y="240" width="180" height="30" as="geometry" />
        </mxCell>
        <mxCell id="CDnV8Uc_9sDUrMYhlKRL-29" value="" style="shape=partialRectangle;connectable=0;fillColor=#f5f5f5;top=0;left=0;bottom=0;right=0;editable=1;overflow=hidden;whiteSpace=wrap;html=1;strokeColor=#666666;fontColor=#333333;strokeWidth=2;rounded=1;fontStyle=1;shadow=0;" parent="CDnV8Uc_9sDUrMYhlKRL-28" vertex="1">
          <mxGeometry width="30" height="30" as="geometry">
            <mxRectangle width="30" height="30" as="alternateBounds" />
          </mxGeometry>
        </mxCell>
        <mxCell id="CDnV8Uc_9sDUrMYhlKRL-30" value="Khóa&amp;nbsp;" style="shape=partialRectangle;connectable=0;fillColor=#f5f5f5;top=0;left=0;bottom=0;right=0;align=left;spacingLeft=6;overflow=hidden;whiteSpace=wrap;html=1;strokeColor=#666666;fontColor=#333333;strokeWidth=2;rounded=1;fontStyle=1;shadow=0;" parent="CDnV8Uc_9sDUrMYhlKRL-28" vertex="1">
          <mxGeometry x="30" width="150" height="30" as="geometry">
            <mxRectangle width="150" height="30" as="alternateBounds" />
          </mxGeometry>
        </mxCell>
        <mxCell id="1wr1I72fZMlx1ucZUs5V-4" value="" style="shape=tableRow;horizontal=0;startSize=0;swimlaneHead=0;swimlaneBody=0;fillColor=#f5f5f5;collapsible=0;dropTarget=0;points=[[0,0.5],[1,0.5]];portConstraint=eastwest;top=0;left=0;right=0;bottom=0;strokeColor=#666666;fontColor=#333333;strokeWidth=2;rounded=1;fontStyle=1;shadow=0;" parent="tQOnXve0qwPO33CJhy6B-14" vertex="1">
          <mxGeometry y="270" width="180" height="30" as="geometry" />
        </mxCell>
        <mxCell id="1wr1I72fZMlx1ucZUs5V-5" value="" style="shape=partialRectangle;connectable=0;fillColor=#f5f5f5;top=0;left=0;bottom=0;right=0;editable=1;overflow=hidden;whiteSpace=wrap;html=1;strokeColor=#666666;fontColor=#333333;strokeWidth=2;rounded=1;fontStyle=1;shadow=0;" parent="1wr1I72fZMlx1ucZUs5V-4" vertex="1">
          <mxGeometry width="30" height="30" as="geometry">
            <mxRectangle width="30" height="30" as="alternateBounds" />
          </mxGeometry>
        </mxCell>
        <mxCell id="1wr1I72fZMlx1ucZUs5V-6" value="Ngày sửa đổi cuối" style="shape=partialRectangle;connectable=0;fillColor=#f5f5f5;top=0;left=0;bottom=0;right=0;align=left;spacingLeft=6;overflow=hidden;whiteSpace=wrap;html=1;strokeColor=#666666;fontColor=#333333;strokeWidth=2;rounded=1;fontStyle=1;shadow=0;" parent="1wr1I72fZMlx1ucZUs5V-4" vertex="1">
          <mxGeometry x="30" width="150" height="30" as="geometry">
            <mxRectangle width="150" height="30" as="alternateBounds" />
          </mxGeometry>
        </mxCell>
        <mxCell id="tQOnXve0qwPO33CJhy6B-33" value="" style="shape=tableRow;horizontal=0;startSize=0;swimlaneHead=0;swimlaneBody=0;fillColor=#f5f5f5;collapsible=0;dropTarget=0;points=[[0,0.5],[1,0.5]];portConstraint=eastwest;top=0;left=0;right=0;bottom=0;strokeColor=#666666;fontColor=#333333;strokeWidth=2;rounded=1;fontStyle=1;shadow=0;" parent="tQOnXve0qwPO33CJhy6B-14" vertex="1">
          <mxGeometry y="300" width="180" height="30" as="geometry" />
        </mxCell>
        <mxCell id="tQOnXve0qwPO33CJhy6B-34" value="FK" style="shape=partialRectangle;connectable=0;fillColor=#f5f5f5;top=0;left=0;bottom=0;right=0;editable=1;overflow=hidden;whiteSpace=wrap;html=1;strokeColor=#666666;fontColor=#333333;strokeWidth=2;rounded=1;fontStyle=1;shadow=0;" parent="tQOnXve0qwPO33CJhy6B-33" vertex="1">
          <mxGeometry width="30" height="30" as="geometry">
            <mxRectangle width="30" height="30" as="alternateBounds" />
          </mxGeometry>
        </mxCell>
        <mxCell id="tQOnXve0qwPO33CJhy6B-35" value="ID ngành hẹp" style="shape=partialRectangle;connectable=0;fillColor=#f5f5f5;top=0;left=0;bottom=0;right=0;align=left;spacingLeft=6;overflow=hidden;whiteSpace=wrap;html=1;strokeColor=#666666;fontColor=#333333;strokeWidth=2;rounded=1;fontStyle=1;shadow=0;" parent="tQOnXve0qwPO33CJhy6B-33" vertex="1">
          <mxGeometry x="30" width="150" height="30" as="geometry">
            <mxRectangle width="150" height="30" as="alternateBounds" />
          </mxGeometry>
        </mxCell>
        <mxCell id="tQOnXve0qwPO33CJhy6B-36" value="&lt;font style=&quot;font-size: 17px;&quot;&gt;&lt;i&gt;Môn học&lt;/i&gt;&lt;/font&gt;" style="shape=table;startSize=30;container=1;collapsible=1;childLayout=tableLayout;fixedRows=1;rowLines=0;fontStyle=1;align=center;resizeLast=1;html=1;fillColor=#d5e8d4;strokeColor=#82b366;strokeWidth=2;rounded=0;shadow=0;swimlaneLine=1;" parent="1" vertex="1">
          <mxGeometry x="-390" y="-490" width="180" height="300" as="geometry" />
        </mxCell>
        <mxCell id="tQOnXve0qwPO33CJhy6B-37" value="" style="shape=tableRow;horizontal=0;startSize=0;swimlaneHead=0;swimlaneBody=0;fillColor=#f5f5f5;collapsible=0;dropTarget=0;points=[[0,0.5],[1,0.5]];portConstraint=eastwest;top=0;left=0;right=0;bottom=1;strokeColor=#666666;fontColor=#333333;strokeWidth=2;rounded=1;fontStyle=1;shadow=0;" parent="tQOnXve0qwPO33CJhy6B-36" vertex="1">
          <mxGeometry y="30" width="180" height="30" as="geometry" />
        </mxCell>
        <mxCell id="tQOnXve0qwPO33CJhy6B-38" value="PK" style="shape=partialRectangle;connectable=0;fillColor=#f5f5f5;top=0;left=0;bottom=0;right=0;fontStyle=1;overflow=hidden;whiteSpace=wrap;html=1;strokeColor=#666666;fontColor=#333333;strokeWidth=2;rounded=1;shadow=0;" parent="tQOnXve0qwPO33CJhy6B-37" vertex="1">
          <mxGeometry width="30" height="30" as="geometry">
            <mxRectangle width="30" height="30" as="alternateBounds" />
          </mxGeometry>
        </mxCell>
        <mxCell id="tQOnXve0qwPO33CJhy6B-39" value="ID môn học" style="shape=partialRectangle;connectable=0;fillColor=#f5f5f5;top=0;left=0;bottom=0;right=0;align=left;spacingLeft=6;fontStyle=5;overflow=hidden;whiteSpace=wrap;html=1;strokeColor=#666666;fontColor=#333333;strokeWidth=2;rounded=1;shadow=0;" parent="tQOnXve0qwPO33CJhy6B-37" vertex="1">
          <mxGeometry x="30" width="150" height="30" as="geometry">
            <mxRectangle width="150" height="30" as="alternateBounds" />
          </mxGeometry>
        </mxCell>
        <mxCell id="tQOnXve0qwPO33CJhy6B-40" value="" style="shape=tableRow;horizontal=0;startSize=0;swimlaneHead=0;swimlaneBody=0;fillColor=#f5f5f5;collapsible=0;dropTarget=0;points=[[0,0.5],[1,0.5]];portConstraint=eastwest;top=0;left=0;right=0;bottom=0;strokeColor=#666666;fontColor=#333333;strokeWidth=2;rounded=1;fontStyle=1;shadow=0;" parent="tQOnXve0qwPO33CJhy6B-36" vertex="1">
          <mxGeometry y="60" width="180" height="30" as="geometry" />
        </mxCell>
        <mxCell id="tQOnXve0qwPO33CJhy6B-41" value="" style="shape=partialRectangle;connectable=0;fillColor=#f5f5f5;top=0;left=0;bottom=0;right=0;editable=1;overflow=hidden;whiteSpace=wrap;html=1;strokeColor=#666666;fontColor=#333333;strokeWidth=2;rounded=1;fontStyle=1;shadow=0;" parent="tQOnXve0qwPO33CJhy6B-40" vertex="1">
          <mxGeometry width="30" height="30" as="geometry">
            <mxRectangle width="30" height="30" as="alternateBounds" />
          </mxGeometry>
        </mxCell>
        <mxCell id="tQOnXve0qwPO33CJhy6B-42" value="Tên môn học" style="shape=partialRectangle;connectable=0;fillColor=#f5f5f5;top=0;left=0;bottom=0;right=0;align=left;spacingLeft=6;overflow=hidden;whiteSpace=wrap;html=1;strokeColor=#666666;fontColor=#333333;strokeWidth=2;rounded=1;fontStyle=1;shadow=0;" parent="tQOnXve0qwPO33CJhy6B-40" vertex="1">
          <mxGeometry x="30" width="150" height="30" as="geometry">
            <mxRectangle width="150" height="30" as="alternateBounds" />
          </mxGeometry>
        </mxCell>
        <mxCell id="tQOnXve0qwPO33CJhy6B-43" value="" style="shape=tableRow;horizontal=0;startSize=0;swimlaneHead=0;swimlaneBody=0;fillColor=#f5f5f5;collapsible=0;dropTarget=0;points=[[0,0.5],[1,0.5]];portConstraint=eastwest;top=0;left=0;right=0;bottom=0;strokeColor=#666666;fontColor=#333333;strokeWidth=2;rounded=1;fontStyle=1;shadow=0;" parent="tQOnXve0qwPO33CJhy6B-36" vertex="1">
          <mxGeometry y="90" width="180" height="30" as="geometry" />
        </mxCell>
        <mxCell id="tQOnXve0qwPO33CJhy6B-44" value="" style="shape=partialRectangle;connectable=0;fillColor=#f5f5f5;top=0;left=0;bottom=0;right=0;editable=1;overflow=hidden;whiteSpace=wrap;html=1;strokeColor=#666666;fontColor=#333333;strokeWidth=2;rounded=1;fontStyle=1;shadow=0;" parent="tQOnXve0qwPO33CJhy6B-43" vertex="1">
          <mxGeometry width="30" height="30" as="geometry">
            <mxRectangle width="30" height="30" as="alternateBounds" />
          </mxGeometry>
        </mxCell>
        <mxCell id="tQOnXve0qwPO33CJhy6B-45" value="Mã môn học" style="shape=partialRectangle;connectable=0;fillColor=#f5f5f5;top=0;left=0;bottom=0;right=0;align=left;spacingLeft=6;overflow=hidden;whiteSpace=wrap;html=1;strokeColor=#666666;fontColor=#333333;strokeWidth=2;rounded=1;fontStyle=1;shadow=0;" parent="tQOnXve0qwPO33CJhy6B-43" vertex="1">
          <mxGeometry x="30" width="150" height="30" as="geometry">
            <mxRectangle width="150" height="30" as="alternateBounds" />
          </mxGeometry>
        </mxCell>
        <mxCell id="IWIqAQeaE0l4H3r7YwF_-7" value="" style="shape=tableRow;horizontal=0;startSize=0;swimlaneHead=0;swimlaneBody=0;fillColor=#f5f5f5;collapsible=0;dropTarget=0;points=[[0,0.5],[1,0.5]];portConstraint=eastwest;top=0;left=0;right=0;bottom=0;strokeColor=#666666;fontColor=#333333;strokeWidth=2;rounded=1;fontStyle=1;shadow=0;" parent="tQOnXve0qwPO33CJhy6B-36" vertex="1">
          <mxGeometry y="120" width="180" height="30" as="geometry" />
        </mxCell>
        <mxCell id="IWIqAQeaE0l4H3r7YwF_-8" value="" style="shape=partialRectangle;connectable=0;fillColor=#f5f5f5;top=0;left=0;bottom=0;right=0;editable=1;overflow=hidden;whiteSpace=wrap;html=1;strokeColor=#666666;fontColor=#333333;strokeWidth=2;rounded=1;fontStyle=1;shadow=0;" parent="IWIqAQeaE0l4H3r7YwF_-7" vertex="1">
          <mxGeometry width="30" height="30" as="geometry">
            <mxRectangle width="30" height="30" as="alternateBounds" />
          </mxGeometry>
        </mxCell>
        <mxCell id="IWIqAQeaE0l4H3r7YwF_-9" value="Số tín chỉ" style="shape=partialRectangle;connectable=0;fillColor=#f5f5f5;top=0;left=0;bottom=0;right=0;align=left;spacingLeft=6;overflow=hidden;whiteSpace=wrap;html=1;strokeColor=#666666;fontColor=#333333;strokeWidth=2;rounded=1;fontStyle=1;shadow=0;" parent="IWIqAQeaE0l4H3r7YwF_-7" vertex="1">
          <mxGeometry x="30" width="150" height="30" as="geometry">
            <mxRectangle width="150" height="30" as="alternateBounds" />
          </mxGeometry>
        </mxCell>
        <mxCell id="tQOnXve0qwPO33CJhy6B-46" value="" style="shape=tableRow;horizontal=0;startSize=0;swimlaneHead=0;swimlaneBody=0;fillColor=#f5f5f5;collapsible=0;dropTarget=0;points=[[0,0.5],[1,0.5]];portConstraint=eastwest;top=0;left=0;right=0;bottom=0;strokeColor=#666666;fontColor=#333333;strokeWidth=2;rounded=1;fontStyle=1;shadow=0;" parent="tQOnXve0qwPO33CJhy6B-36" vertex="1">
          <mxGeometry y="150" width="180" height="30" as="geometry" />
        </mxCell>
        <mxCell id="tQOnXve0qwPO33CJhy6B-47" value="" style="shape=partialRectangle;connectable=0;fillColor=#f5f5f5;top=0;left=0;bottom=0;right=0;editable=1;overflow=hidden;whiteSpace=wrap;html=1;strokeColor=#666666;fontColor=#333333;strokeWidth=2;rounded=1;fontStyle=1;shadow=0;" parent="tQOnXve0qwPO33CJhy6B-46" vertex="1">
          <mxGeometry width="30" height="30" as="geometry">
            <mxRectangle width="30" height="30" as="alternateBounds" />
          </mxGeometry>
        </mxCell>
        <mxCell id="tQOnXve0qwPO33CJhy6B-48" value="Loại môn học" style="shape=partialRectangle;connectable=0;fillColor=#f5f5f5;top=0;left=0;bottom=0;right=0;align=left;spacingLeft=6;overflow=hidden;whiteSpace=wrap;html=1;strokeColor=#666666;fontColor=#333333;strokeWidth=2;rounded=1;fontStyle=1;shadow=0;" parent="tQOnXve0qwPO33CJhy6B-46" vertex="1">
          <mxGeometry x="30" width="150" height="30" as="geometry">
            <mxRectangle width="150" height="30" as="alternateBounds" />
          </mxGeometry>
        </mxCell>
        <mxCell id="tQOnXve0qwPO33CJhy6B-55" style="shape=tableRow;horizontal=0;startSize=0;swimlaneHead=0;swimlaneBody=0;fillColor=#f5f5f5;collapsible=0;dropTarget=0;points=[[0,0.5],[1,0.5]];portConstraint=eastwest;top=0;left=0;right=0;bottom=0;strokeColor=#666666;fontColor=#333333;strokeWidth=2;rounded=1;fontStyle=1;shadow=0;" parent="tQOnXve0qwPO33CJhy6B-36" vertex="1">
          <mxGeometry y="180" width="180" height="30" as="geometry" />
        </mxCell>
        <mxCell id="tQOnXve0qwPO33CJhy6B-56" style="shape=partialRectangle;connectable=0;fillColor=#f5f5f5;top=0;left=0;bottom=0;right=0;editable=1;overflow=hidden;whiteSpace=wrap;html=1;strokeColor=#666666;fontColor=#333333;strokeWidth=2;rounded=1;fontStyle=1;shadow=0;" parent="tQOnXve0qwPO33CJhy6B-55" vertex="1">
          <mxGeometry width="30" height="30" as="geometry">
            <mxRectangle width="30" height="30" as="alternateBounds" />
          </mxGeometry>
        </mxCell>
        <mxCell id="tQOnXve0qwPO33CJhy6B-57" value="Số buổi nghỉ được phép" style="shape=partialRectangle;connectable=0;fillColor=#f5f5f5;top=0;left=0;bottom=0;right=0;align=left;spacingLeft=6;overflow=hidden;whiteSpace=wrap;html=1;strokeColor=#666666;fontColor=#333333;strokeWidth=2;rounded=1;fontStyle=1;shadow=0;" parent="tQOnXve0qwPO33CJhy6B-55" vertex="1">
          <mxGeometry x="30" width="150" height="30" as="geometry">
            <mxRectangle width="150" height="30" as="alternateBounds" />
          </mxGeometry>
        </mxCell>
        <mxCell id="tQOnXve0qwPO33CJhy6B-49" value="" style="shape=tableRow;horizontal=0;startSize=0;swimlaneHead=0;swimlaneBody=0;fillColor=#f5f5f5;collapsible=0;dropTarget=0;points=[[0,0.5],[1,0.5]];portConstraint=eastwest;top=0;left=0;right=0;bottom=0;strokeColor=#666666;fontColor=#333333;strokeWidth=2;rounded=1;fontStyle=1;shadow=0;" parent="tQOnXve0qwPO33CJhy6B-36" vertex="1">
          <mxGeometry y="210" width="180" height="30" as="geometry" />
        </mxCell>
        <mxCell id="tQOnXve0qwPO33CJhy6B-50" value="" style="shape=partialRectangle;connectable=0;fillColor=#f5f5f5;top=0;left=0;bottom=0;right=0;editable=1;overflow=hidden;whiteSpace=wrap;html=1;strokeColor=#666666;fontColor=#333333;strokeWidth=2;rounded=1;fontStyle=1;shadow=0;" parent="tQOnXve0qwPO33CJhy6B-49" vertex="1">
          <mxGeometry width="30" height="30" as="geometry">
            <mxRectangle width="30" height="30" as="alternateBounds" />
          </mxGeometry>
        </mxCell>
        <mxCell id="tQOnXve0qwPO33CJhy6B-51" value="Ngày sửa đổi cuối" style="shape=partialRectangle;connectable=0;fillColor=#f5f5f5;top=0;left=0;bottom=0;right=0;align=left;spacingLeft=6;overflow=hidden;whiteSpace=wrap;html=1;strokeColor=#666666;fontColor=#333333;strokeWidth=2;rounded=1;fontStyle=1;shadow=0;" parent="tQOnXve0qwPO33CJhy6B-49" vertex="1">
          <mxGeometry x="30" width="150" height="30" as="geometry">
            <mxRectangle width="150" height="30" as="alternateBounds" />
          </mxGeometry>
        </mxCell>
        <mxCell id="tQOnXve0qwPO33CJhy6B-52" value="" style="shape=tableRow;horizontal=0;startSize=0;swimlaneHead=0;swimlaneBody=0;fillColor=#f5f5f5;collapsible=0;dropTarget=0;points=[[0,0.5],[1,0.5]];portConstraint=eastwest;top=0;left=0;right=0;bottom=0;strokeColor=#666666;fontColor=#333333;strokeWidth=2;rounded=1;fontStyle=1;shadow=0;" parent="tQOnXve0qwPO33CJhy6B-36" vertex="1">
          <mxGeometry y="240" width="180" height="30" as="geometry" />
        </mxCell>
        <mxCell id="tQOnXve0qwPO33CJhy6B-53" value="" style="shape=partialRectangle;connectable=0;fillColor=#f5f5f5;top=0;left=0;bottom=0;right=0;editable=1;overflow=hidden;whiteSpace=wrap;html=1;strokeColor=#666666;fontColor=#333333;strokeWidth=2;rounded=1;fontStyle=1;shadow=0;" parent="tQOnXve0qwPO33CJhy6B-52" vertex="1">
          <mxGeometry width="30" height="30" as="geometry">
            <mxRectangle width="30" height="30" as="alternateBounds" />
          </mxGeometry>
        </mxCell>
        <mxCell id="tQOnXve0qwPO33CJhy6B-54" value="Mô tả&amp;nbsp;" style="shape=partialRectangle;connectable=0;fillColor=#f5f5f5;top=0;left=0;bottom=0;right=0;align=left;spacingLeft=6;overflow=hidden;whiteSpace=wrap;html=1;strokeColor=#666666;fontColor=#333333;strokeWidth=2;rounded=1;fontStyle=1;shadow=0;" parent="tQOnXve0qwPO33CJhy6B-52" vertex="1">
          <mxGeometry x="30" width="150" height="30" as="geometry">
            <mxRectangle width="150" height="30" as="alternateBounds" />
          </mxGeometry>
        </mxCell>
        <mxCell id="tQOnXve0qwPO33CJhy6B-58" value="" style="shape=tableRow;horizontal=0;startSize=0;swimlaneHead=0;swimlaneBody=0;fillColor=#f5f5f5;collapsible=0;dropTarget=0;points=[[0,0.5],[1,0.5]];portConstraint=eastwest;top=0;left=0;right=0;bottom=0;strokeColor=#666666;fontColor=#333333;strokeWidth=2;rounded=1;fontStyle=1;shadow=0;" parent="tQOnXve0qwPO33CJhy6B-36" vertex="1">
          <mxGeometry y="270" width="180" height="30" as="geometry" />
        </mxCell>
        <mxCell id="tQOnXve0qwPO33CJhy6B-59" value="FK" style="shape=partialRectangle;connectable=0;fillColor=#f5f5f5;top=0;left=0;bottom=0;right=0;editable=1;overflow=hidden;whiteSpace=wrap;html=1;strokeColor=#666666;fontColor=#333333;strokeWidth=2;rounded=1;fontStyle=1;shadow=0;" parent="tQOnXve0qwPO33CJhy6B-58" vertex="1">
          <mxGeometry width="30" height="30" as="geometry">
            <mxRectangle width="30" height="30" as="alternateBounds" />
          </mxGeometry>
        </mxCell>
        <mxCell id="tQOnXve0qwPO33CJhy6B-60" value="ID ngành" style="shape=partialRectangle;connectable=0;fillColor=#f5f5f5;top=0;left=0;bottom=0;right=0;align=left;spacingLeft=6;overflow=hidden;whiteSpace=wrap;html=1;strokeColor=#666666;fontColor=#333333;strokeWidth=2;rounded=1;fontStyle=1;shadow=0;" parent="tQOnXve0qwPO33CJhy6B-58" vertex="1">
          <mxGeometry x="30" width="150" height="30" as="geometry">
            <mxRectangle width="150" height="30" as="alternateBounds" />
          </mxGeometry>
        </mxCell>
        <mxCell id="tQOnXve0qwPO33CJhy6B-84" value="&lt;font style=&quot;font-size: 17px;&quot;&gt;&lt;i&gt;Phòng học&lt;/i&gt;&lt;/font&gt;" style="shape=table;startSize=30;container=1;collapsible=1;childLayout=tableLayout;fixedRows=1;rowLines=0;fontStyle=1;align=center;resizeLast=1;html=1;fillColor=#ffcd28;strokeColor=#d79b00;strokeWidth=2;gradientColor=#ffa500;rounded=0;shadow=0;swimlaneLine=1;" parent="1" vertex="1">
          <mxGeometry x="210" y="-309.9999999999999" width="180" height="240" as="geometry">
            <mxRectangle x="515" y="380" width="70" height="30" as="alternateBounds" />
          </mxGeometry>
        </mxCell>
        <mxCell id="tQOnXve0qwPO33CJhy6B-85" value="" style="shape=tableRow;horizontal=0;startSize=0;swimlaneHead=0;swimlaneBody=0;fillColor=#f5f5f5;collapsible=0;dropTarget=0;points=[[0,0.5],[1,0.5]];portConstraint=eastwest;top=0;left=0;right=0;bottom=1;strokeColor=#666666;fontColor=#333333;strokeWidth=2;rounded=1;fontStyle=1;shadow=0;" parent="tQOnXve0qwPO33CJhy6B-84" vertex="1">
          <mxGeometry y="30" width="180" height="30" as="geometry" />
        </mxCell>
        <mxCell id="tQOnXve0qwPO33CJhy6B-86" value="PK" style="shape=partialRectangle;connectable=0;fillColor=#f5f5f5;top=0;left=0;bottom=0;right=0;fontStyle=1;overflow=hidden;whiteSpace=wrap;html=1;strokeColor=#666666;fontColor=#333333;strokeWidth=2;rounded=1;shadow=0;" parent="tQOnXve0qwPO33CJhy6B-85" vertex="1">
          <mxGeometry width="30" height="30" as="geometry">
            <mxRectangle width="30" height="30" as="alternateBounds" />
          </mxGeometry>
        </mxCell>
        <mxCell id="tQOnXve0qwPO33CJhy6B-87" value="ID Phòng học" style="shape=partialRectangle;connectable=0;fillColor=#f5f5f5;top=0;left=0;bottom=0;right=0;align=left;spacingLeft=6;fontStyle=5;overflow=hidden;whiteSpace=wrap;html=1;strokeColor=#666666;fontColor=#333333;strokeWidth=2;rounded=1;shadow=0;" parent="tQOnXve0qwPO33CJhy6B-85" vertex="1">
          <mxGeometry x="30" width="150" height="30" as="geometry">
            <mxRectangle width="150" height="30" as="alternateBounds" />
          </mxGeometry>
        </mxCell>
        <mxCell id="CDnV8Uc_9sDUrMYhlKRL-1" value="" style="shape=tableRow;horizontal=0;startSize=0;swimlaneHead=0;swimlaneBody=0;fillColor=#f5f5f5;collapsible=0;dropTarget=0;points=[[0,0.5],[1,0.5]];portConstraint=eastwest;top=0;left=0;right=0;bottom=0;strokeColor=#666666;fontColor=#333333;strokeWidth=2;rounded=1;fontStyle=1;shadow=0;" parent="tQOnXve0qwPO33CJhy6B-84" vertex="1">
          <mxGeometry y="60" width="180" height="30" as="geometry" />
        </mxCell>
        <mxCell id="CDnV8Uc_9sDUrMYhlKRL-2" value="" style="shape=partialRectangle;connectable=0;fillColor=#f5f5f5;top=0;left=0;bottom=0;right=0;editable=1;overflow=hidden;whiteSpace=wrap;html=1;strokeColor=#666666;fontColor=#333333;strokeWidth=2;rounded=1;fontStyle=1;shadow=0;" parent="CDnV8Uc_9sDUrMYhlKRL-1" vertex="1">
          <mxGeometry width="30" height="30" as="geometry">
            <mxRectangle width="30" height="30" as="alternateBounds" />
          </mxGeometry>
        </mxCell>
        <mxCell id="CDnV8Uc_9sDUrMYhlKRL-3" value="Tầng" style="shape=partialRectangle;connectable=0;fillColor=#f5f5f5;top=0;left=0;bottom=0;right=0;align=left;spacingLeft=6;overflow=hidden;whiteSpace=wrap;html=1;strokeColor=#666666;fontColor=#333333;strokeWidth=2;rounded=1;fontStyle=1;shadow=0;" parent="CDnV8Uc_9sDUrMYhlKRL-1" vertex="1">
          <mxGeometry x="30" width="150" height="30" as="geometry">
            <mxRectangle width="150" height="30" as="alternateBounds" />
          </mxGeometry>
        </mxCell>
        <mxCell id="CDnV8Uc_9sDUrMYhlKRL-4" value="" style="shape=tableRow;horizontal=0;startSize=0;swimlaneHead=0;swimlaneBody=0;fillColor=#f5f5f5;collapsible=0;dropTarget=0;points=[[0,0.5],[1,0.5]];portConstraint=eastwest;top=0;left=0;right=0;bottom=0;strokeColor=#666666;fontColor=#333333;strokeWidth=2;rounded=1;fontStyle=1;shadow=0;" parent="tQOnXve0qwPO33CJhy6B-84" vertex="1">
          <mxGeometry y="90" width="180" height="30" as="geometry" />
        </mxCell>
        <mxCell id="CDnV8Uc_9sDUrMYhlKRL-5" value="" style="shape=partialRectangle;connectable=0;fillColor=#f5f5f5;top=0;left=0;bottom=0;right=0;editable=1;overflow=hidden;whiteSpace=wrap;html=1;strokeColor=#666666;fontColor=#333333;strokeWidth=2;rounded=1;fontStyle=1;shadow=0;" parent="CDnV8Uc_9sDUrMYhlKRL-4" vertex="1">
          <mxGeometry width="30" height="30" as="geometry">
            <mxRectangle width="30" height="30" as="alternateBounds" />
          </mxGeometry>
        </mxCell>
        <mxCell id="CDnV8Uc_9sDUrMYhlKRL-6" value="Số phòng" style="shape=partialRectangle;connectable=0;fillColor=#f5f5f5;top=0;left=0;bottom=0;right=0;align=left;spacingLeft=6;overflow=hidden;whiteSpace=wrap;html=1;strokeColor=#666666;fontColor=#333333;strokeWidth=2;rounded=1;fontStyle=1;shadow=0;" parent="CDnV8Uc_9sDUrMYhlKRL-4" vertex="1">
          <mxGeometry x="30" width="150" height="30" as="geometry">
            <mxRectangle width="150" height="30" as="alternateBounds" />
          </mxGeometry>
        </mxCell>
        <mxCell id="tQOnXve0qwPO33CJhy6B-88" value="" style="shape=tableRow;horizontal=0;startSize=0;swimlaneHead=0;swimlaneBody=0;fillColor=#f5f5f5;collapsible=0;dropTarget=0;points=[[0,0.5],[1,0.5]];portConstraint=eastwest;top=0;left=0;right=0;bottom=0;strokeColor=#666666;fontColor=#333333;strokeWidth=2;rounded=1;fontStyle=1;shadow=0;" parent="tQOnXve0qwPO33CJhy6B-84" vertex="1">
          <mxGeometry y="120" width="180" height="30" as="geometry" />
        </mxCell>
        <mxCell id="tQOnXve0qwPO33CJhy6B-89" value="FK" style="shape=partialRectangle;connectable=0;fillColor=#f5f5f5;top=0;left=0;bottom=0;right=0;editable=1;overflow=hidden;whiteSpace=wrap;html=1;strokeColor=#666666;fontColor=#333333;strokeWidth=2;rounded=1;fontStyle=1;shadow=0;" parent="tQOnXve0qwPO33CJhy6B-88" vertex="1">
          <mxGeometry width="30" height="30" as="geometry">
            <mxRectangle width="30" height="30" as="alternateBounds" />
          </mxGeometry>
        </mxCell>
        <mxCell id="tQOnXve0qwPO33CJhy6B-90" value="ID Tòa nhà" style="shape=partialRectangle;connectable=0;fillColor=#f5f5f5;top=0;left=0;bottom=0;right=0;align=left;spacingLeft=6;overflow=hidden;whiteSpace=wrap;html=1;strokeColor=#666666;fontColor=#333333;strokeWidth=2;rounded=1;fontStyle=1;shadow=0;" parent="tQOnXve0qwPO33CJhy6B-88" vertex="1">
          <mxGeometry x="30" width="150" height="30" as="geometry">
            <mxRectangle width="150" height="30" as="alternateBounds" />
          </mxGeometry>
        </mxCell>
        <mxCell id="CDnV8Uc_9sDUrMYhlKRL-8" value="" style="shape=tableRow;horizontal=0;startSize=0;swimlaneHead=0;swimlaneBody=0;fillColor=#f5f5f5;collapsible=0;dropTarget=0;points=[[0,0.5],[1,0.5]];portConstraint=eastwest;top=0;left=0;right=0;bottom=0;strokeColor=#666666;fontColor=#333333;strokeWidth=2;rounded=1;fontStyle=1;shadow=0;" parent="tQOnXve0qwPO33CJhy6B-84" vertex="1">
          <mxGeometry y="150" width="180" height="30" as="geometry" />
        </mxCell>
        <mxCell id="CDnV8Uc_9sDUrMYhlKRL-9" value="" style="shape=partialRectangle;connectable=0;fillColor=#f5f5f5;top=0;left=0;bottom=0;right=0;editable=1;overflow=hidden;whiteSpace=wrap;html=1;strokeColor=#666666;fontColor=#333333;strokeWidth=2;rounded=1;fontStyle=1;shadow=0;" parent="CDnV8Uc_9sDUrMYhlKRL-8" vertex="1">
          <mxGeometry width="30" height="30" as="geometry">
            <mxRectangle width="30" height="30" as="alternateBounds" />
          </mxGeometry>
        </mxCell>
        <mxCell id="CDnV8Uc_9sDUrMYhlKRL-10" value="Tình trạng" style="shape=partialRectangle;connectable=0;fillColor=#f5f5f5;top=0;left=0;bottom=0;right=0;align=left;spacingLeft=6;overflow=hidden;whiteSpace=wrap;html=1;strokeColor=#666666;fontColor=#333333;strokeWidth=2;rounded=1;fontStyle=1;shadow=0;" parent="CDnV8Uc_9sDUrMYhlKRL-8" vertex="1">
          <mxGeometry x="30" width="150" height="30" as="geometry">
            <mxRectangle width="150" height="30" as="alternateBounds" />
          </mxGeometry>
        </mxCell>
        <mxCell id="tQOnXve0qwPO33CJhy6B-91" value="" style="shape=tableRow;horizontal=0;startSize=0;swimlaneHead=0;swimlaneBody=0;fillColor=#f5f5f5;collapsible=0;dropTarget=0;points=[[0,0.5],[1,0.5]];portConstraint=eastwest;top=0;left=0;right=0;bottom=0;strokeColor=#666666;fontColor=#333333;strokeWidth=2;rounded=1;fontStyle=1;shadow=0;" parent="tQOnXve0qwPO33CJhy6B-84" vertex="1">
          <mxGeometry y="180" width="180" height="30" as="geometry" />
        </mxCell>
        <mxCell id="tQOnXve0qwPO33CJhy6B-92" value="" style="shape=partialRectangle;connectable=0;fillColor=#f5f5f5;top=0;left=0;bottom=0;right=0;editable=1;overflow=hidden;whiteSpace=wrap;html=1;strokeColor=#666666;fontColor=#333333;strokeWidth=2;rounded=1;fontStyle=1;shadow=0;" parent="tQOnXve0qwPO33CJhy6B-91" vertex="1">
          <mxGeometry width="30" height="30" as="geometry">
            <mxRectangle width="30" height="30" as="alternateBounds" />
          </mxGeometry>
        </mxCell>
        <mxCell id="tQOnXve0qwPO33CJhy6B-93" value="Ngày chỉnh sửa cuối" style="shape=partialRectangle;connectable=0;fillColor=#f5f5f5;top=0;left=0;bottom=0;right=0;align=left;spacingLeft=6;overflow=hidden;whiteSpace=wrap;html=1;strokeColor=#666666;fontColor=#333333;strokeWidth=2;rounded=1;fontStyle=1;shadow=0;" parent="tQOnXve0qwPO33CJhy6B-91" vertex="1">
          <mxGeometry x="30" width="150" height="30" as="geometry">
            <mxRectangle width="150" height="30" as="alternateBounds" />
          </mxGeometry>
        </mxCell>
        <mxCell id="tQOnXve0qwPO33CJhy6B-94" value="" style="shape=tableRow;horizontal=0;startSize=0;swimlaneHead=0;swimlaneBody=0;fillColor=#f5f5f5;collapsible=0;dropTarget=0;points=[[0,0.5],[1,0.5]];portConstraint=eastwest;top=0;left=0;right=0;bottom=0;strokeColor=#666666;fontColor=#333333;strokeWidth=2;rounded=1;fontStyle=1;shadow=0;" parent="tQOnXve0qwPO33CJhy6B-84" vertex="1">
          <mxGeometry y="210" width="180" height="30" as="geometry" />
        </mxCell>
        <mxCell id="tQOnXve0qwPO33CJhy6B-95" value="" style="shape=partialRectangle;connectable=0;fillColor=#f5f5f5;top=0;left=0;bottom=0;right=0;editable=1;overflow=hidden;whiteSpace=wrap;html=1;strokeColor=#666666;fontColor=#333333;strokeWidth=2;rounded=1;fontStyle=1;shadow=0;" parent="tQOnXve0qwPO33CJhy6B-94" vertex="1">
          <mxGeometry width="30" height="30" as="geometry">
            <mxRectangle width="30" height="30" as="alternateBounds" />
          </mxGeometry>
        </mxCell>
        <mxCell id="tQOnXve0qwPO33CJhy6B-96" value="Mô tả" style="shape=partialRectangle;connectable=0;fillColor=#f5f5f5;top=0;left=0;bottom=0;right=0;align=left;spacingLeft=6;overflow=hidden;whiteSpace=wrap;html=1;strokeColor=#666666;fontColor=#333333;strokeWidth=2;rounded=1;fontStyle=1;shadow=0;" parent="tQOnXve0qwPO33CJhy6B-94" vertex="1">
          <mxGeometry x="30" width="150" height="30" as="geometry">
            <mxRectangle width="150" height="30" as="alternateBounds" />
          </mxGeometry>
        </mxCell>
        <mxCell id="tQOnXve0qwPO33CJhy6B-97" value="&lt;font style=&quot;font-size: 17px;&quot;&gt;&lt;i&gt;User&lt;/i&gt;&lt;/font&gt;" style="shape=table;startSize=30;container=1;collapsible=1;childLayout=tableLayout;fixedRows=1;rowLines=0;fontStyle=1;align=center;resizeLast=1;html=1;fillColor=#e6d0de;strokeColor=#996185;strokeWidth=2;gradientColor=#d5739d;rounded=0;shadow=0;swimlaneLine=1;" parent="1" vertex="1">
          <mxGeometry x="-690" y="350" width="180" height="270" as="geometry" />
        </mxCell>
        <mxCell id="tQOnXve0qwPO33CJhy6B-98" value="" style="shape=tableRow;horizontal=0;startSize=0;swimlaneHead=0;swimlaneBody=0;fillColor=#f5f5f5;collapsible=0;dropTarget=0;points=[[0,0.5],[1,0.5]];portConstraint=eastwest;top=0;left=0;right=0;bottom=1;strokeColor=#666666;fontColor=#333333;strokeWidth=2;rounded=1;fontStyle=1;shadow=0;" parent="tQOnXve0qwPO33CJhy6B-97" vertex="1">
          <mxGeometry y="30" width="180" height="30" as="geometry" />
        </mxCell>
        <mxCell id="tQOnXve0qwPO33CJhy6B-99" value="PK" style="shape=partialRectangle;connectable=0;fillColor=#f5f5f5;top=0;left=0;bottom=0;right=0;fontStyle=1;overflow=hidden;whiteSpace=wrap;html=1;strokeColor=#666666;fontColor=#333333;strokeWidth=2;rounded=1;shadow=0;" parent="tQOnXve0qwPO33CJhy6B-98" vertex="1">
          <mxGeometry width="30" height="30" as="geometry">
            <mxRectangle width="30" height="30" as="alternateBounds" />
          </mxGeometry>
        </mxCell>
        <mxCell id="tQOnXve0qwPO33CJhy6B-100" value="UserID" style="shape=partialRectangle;connectable=0;fillColor=#f5f5f5;top=0;left=0;bottom=0;right=0;align=left;spacingLeft=6;fontStyle=5;overflow=hidden;whiteSpace=wrap;html=1;strokeColor=#666666;fontColor=#333333;strokeWidth=2;rounded=1;shadow=0;" parent="tQOnXve0qwPO33CJhy6B-98" vertex="1">
          <mxGeometry x="30" width="150" height="30" as="geometry">
            <mxRectangle width="150" height="30" as="alternateBounds" />
          </mxGeometry>
        </mxCell>
        <mxCell id="tQOnXve0qwPO33CJhy6B-101" value="" style="shape=tableRow;horizontal=0;startSize=0;swimlaneHead=0;swimlaneBody=0;fillColor=#f5f5f5;collapsible=0;dropTarget=0;points=[[0,0.5],[1,0.5]];portConstraint=eastwest;top=0;left=0;right=0;bottom=0;strokeColor=#666666;fontColor=#333333;strokeWidth=2;rounded=1;fontStyle=1;shadow=0;" parent="tQOnXve0qwPO33CJhy6B-97" vertex="1">
          <mxGeometry y="60" width="180" height="30" as="geometry" />
        </mxCell>
        <mxCell id="tQOnXve0qwPO33CJhy6B-102" value="" style="shape=partialRectangle;connectable=0;fillColor=#f5f5f5;top=0;left=0;bottom=0;right=0;editable=1;overflow=hidden;whiteSpace=wrap;html=1;strokeColor=#666666;fontColor=#333333;strokeWidth=2;rounded=1;fontStyle=1;shadow=0;" parent="tQOnXve0qwPO33CJhy6B-101" vertex="1">
          <mxGeometry width="30" height="30" as="geometry">
            <mxRectangle width="30" height="30" as="alternateBounds" />
          </mxGeometry>
        </mxCell>
        <mxCell id="tQOnXve0qwPO33CJhy6B-103" value="username" style="shape=partialRectangle;connectable=0;fillColor=#f5f5f5;top=0;left=0;bottom=0;right=0;align=left;spacingLeft=6;overflow=hidden;whiteSpace=wrap;html=1;strokeColor=#666666;fontColor=#333333;strokeWidth=2;rounded=1;fontStyle=1;shadow=0;" parent="tQOnXve0qwPO33CJhy6B-101" vertex="1">
          <mxGeometry x="30" width="150" height="30" as="geometry">
            <mxRectangle width="150" height="30" as="alternateBounds" />
          </mxGeometry>
        </mxCell>
        <mxCell id="0GLLN__f8UV4Jb8rYQSn-4" value="" style="shape=tableRow;horizontal=0;startSize=0;swimlaneHead=0;swimlaneBody=0;fillColor=#f5f5f5;collapsible=0;dropTarget=0;points=[[0,0.5],[1,0.5]];portConstraint=eastwest;top=0;left=0;right=0;bottom=0;strokeColor=#666666;fontColor=#333333;strokeWidth=2;rounded=1;fontStyle=1;shadow=0;" parent="tQOnXve0qwPO33CJhy6B-97" vertex="1">
          <mxGeometry y="90" width="180" height="30" as="geometry" />
        </mxCell>
        <mxCell id="0GLLN__f8UV4Jb8rYQSn-5" value="" style="shape=partialRectangle;connectable=0;fillColor=#f5f5f5;top=0;left=0;bottom=0;right=0;editable=1;overflow=hidden;whiteSpace=wrap;html=1;strokeColor=#666666;fontColor=#333333;strokeWidth=2;rounded=1;fontStyle=1;shadow=0;" parent="0GLLN__f8UV4Jb8rYQSn-4" vertex="1">
          <mxGeometry width="30" height="30" as="geometry">
            <mxRectangle width="30" height="30" as="alternateBounds" />
          </mxGeometry>
        </mxCell>
        <mxCell id="0GLLN__f8UV4Jb8rYQSn-6" value="password" style="shape=partialRectangle;connectable=0;fillColor=#f5f5f5;top=0;left=0;bottom=0;right=0;align=left;spacingLeft=6;overflow=hidden;whiteSpace=wrap;html=1;strokeColor=#666666;fontColor=#333333;strokeWidth=2;rounded=1;fontStyle=1;shadow=0;" parent="0GLLN__f8UV4Jb8rYQSn-4" vertex="1">
          <mxGeometry x="30" width="150" height="30" as="geometry">
            <mxRectangle width="150" height="30" as="alternateBounds" />
          </mxGeometry>
        </mxCell>
        <mxCell id="IWIqAQeaE0l4H3r7YwF_-31" value="" style="shape=tableRow;horizontal=0;startSize=0;swimlaneHead=0;swimlaneBody=0;fillColor=#f5f5f5;collapsible=0;dropTarget=0;points=[[0,0.5],[1,0.5]];portConstraint=eastwest;top=0;left=0;right=0;bottom=0;strokeColor=#666666;fontColor=#333333;strokeWidth=2;rounded=1;fontStyle=1;shadow=0;" parent="tQOnXve0qwPO33CJhy6B-97" vertex="1">
          <mxGeometry y="120" width="180" height="30" as="geometry" />
        </mxCell>
        <mxCell id="IWIqAQeaE0l4H3r7YwF_-32" value="" style="shape=partialRectangle;connectable=0;fillColor=#f5f5f5;top=0;left=0;bottom=0;right=0;editable=1;overflow=hidden;whiteSpace=wrap;html=1;strokeColor=#666666;fontColor=#333333;strokeWidth=2;rounded=1;fontStyle=1;shadow=0;" parent="IWIqAQeaE0l4H3r7YwF_-31" vertex="1">
          <mxGeometry width="30" height="30" as="geometry">
            <mxRectangle width="30" height="30" as="alternateBounds" />
          </mxGeometry>
        </mxCell>
        <mxCell id="IWIqAQeaE0l4H3r7YwF_-33" value="role" style="shape=partialRectangle;connectable=0;fillColor=#f5f5f5;top=0;left=0;bottom=0;right=0;align=left;spacingLeft=6;overflow=hidden;whiteSpace=wrap;html=1;strokeColor=#666666;fontColor=#333333;strokeWidth=2;rounded=1;fontStyle=1;shadow=0;" parent="IWIqAQeaE0l4H3r7YwF_-31" vertex="1">
          <mxGeometry x="30" width="150" height="30" as="geometry">
            <mxRectangle width="150" height="30" as="alternateBounds" />
          </mxGeometry>
        </mxCell>
        <mxCell id="tQOnXve0qwPO33CJhy6B-104" value="" style="shape=tableRow;horizontal=0;startSize=0;swimlaneHead=0;swimlaneBody=0;fillColor=#f5f5f5;collapsible=0;dropTarget=0;points=[[0,0.5],[1,0.5]];portConstraint=eastwest;top=0;left=0;right=0;bottom=0;strokeColor=#666666;fontColor=#333333;strokeWidth=2;rounded=1;fontStyle=1;shadow=0;" parent="tQOnXve0qwPO33CJhy6B-97" vertex="1">
          <mxGeometry y="150" width="180" height="30" as="geometry" />
        </mxCell>
        <mxCell id="tQOnXve0qwPO33CJhy6B-105" value="" style="shape=partialRectangle;connectable=0;fillColor=#f5f5f5;top=0;left=0;bottom=0;right=0;editable=1;overflow=hidden;whiteSpace=wrap;html=1;strokeColor=#666666;fontColor=#333333;strokeWidth=2;rounded=1;fontStyle=1;shadow=0;" parent="tQOnXve0qwPO33CJhy6B-104" vertex="1">
          <mxGeometry width="30" height="30" as="geometry">
            <mxRectangle width="30" height="30" as="alternateBounds" />
          </mxGeometry>
        </mxCell>
        <mxCell id="tQOnXve0qwPO33CJhy6B-106" value="Ngày mô tả cuối" style="shape=partialRectangle;connectable=0;fillColor=#f5f5f5;top=0;left=0;bottom=0;right=0;align=left;spacingLeft=6;overflow=hidden;whiteSpace=wrap;html=1;strokeColor=#666666;fontColor=#333333;strokeWidth=2;rounded=1;fontStyle=1;shadow=0;" parent="tQOnXve0qwPO33CJhy6B-104" vertex="1">
          <mxGeometry x="30" width="150" height="30" as="geometry">
            <mxRectangle width="150" height="30" as="alternateBounds" />
          </mxGeometry>
        </mxCell>
        <mxCell id="CFcdtzbTBn9PZgVDuJhA-1" value="" style="shape=tableRow;horizontal=0;startSize=0;swimlaneHead=0;swimlaneBody=0;fillColor=#f5f5f5;collapsible=0;dropTarget=0;points=[[0,0.5],[1,0.5]];portConstraint=eastwest;top=0;left=0;right=0;bottom=0;strokeColor=#666666;fontColor=#333333;strokeWidth=2;rounded=1;fontStyle=1;shadow=0;" parent="tQOnXve0qwPO33CJhy6B-97" vertex="1">
          <mxGeometry y="180" width="180" height="30" as="geometry" />
        </mxCell>
        <mxCell id="CFcdtzbTBn9PZgVDuJhA-2" value="FK" style="shape=partialRectangle;connectable=0;fillColor=#f5f5f5;top=0;left=0;bottom=0;right=0;editable=1;overflow=hidden;whiteSpace=wrap;html=1;strokeColor=#666666;fontColor=#333333;strokeWidth=2;rounded=1;fontStyle=1;shadow=0;" parent="CFcdtzbTBn9PZgVDuJhA-1" vertex="1">
          <mxGeometry width="30" height="30" as="geometry">
            <mxRectangle width="30" height="30" as="alternateBounds" />
          </mxGeometry>
        </mxCell>
        <mxCell id="CFcdtzbTBn9PZgVDuJhA-3" value="ID sinh viên" style="shape=partialRectangle;connectable=0;fillColor=#f5f5f5;top=0;left=0;bottom=0;right=0;align=left;spacingLeft=6;overflow=hidden;whiteSpace=wrap;html=1;strokeColor=#666666;fontColor=#333333;strokeWidth=2;rounded=1;fontStyle=1;shadow=0;" parent="CFcdtzbTBn9PZgVDuJhA-1" vertex="1">
          <mxGeometry x="30" width="150" height="30" as="geometry">
            <mxRectangle width="150" height="30" as="alternateBounds" />
          </mxGeometry>
        </mxCell>
        <mxCell id="tQOnXve0qwPO33CJhy6B-107" value="" style="shape=tableRow;horizontal=0;startSize=0;swimlaneHead=0;swimlaneBody=0;fillColor=#f5f5f5;collapsible=0;dropTarget=0;points=[[0,0.5],[1,0.5]];portConstraint=eastwest;top=0;left=0;right=0;bottom=0;strokeColor=#666666;fontColor=#333333;strokeWidth=2;rounded=1;fontStyle=1;shadow=0;" parent="tQOnXve0qwPO33CJhy6B-97" vertex="1">
          <mxGeometry y="210" width="180" height="30" as="geometry" />
        </mxCell>
        <mxCell id="tQOnXve0qwPO33CJhy6B-108" value="FK" style="shape=partialRectangle;connectable=0;fillColor=#f5f5f5;top=0;left=0;bottom=0;right=0;editable=1;overflow=hidden;whiteSpace=wrap;html=1;strokeColor=#666666;fontColor=#333333;strokeWidth=2;rounded=1;fontStyle=1;shadow=0;" parent="tQOnXve0qwPO33CJhy6B-107" vertex="1">
          <mxGeometry width="30" height="30" as="geometry">
            <mxRectangle width="30" height="30" as="alternateBounds" />
          </mxGeometry>
        </mxCell>
        <mxCell id="tQOnXve0qwPO33CJhy6B-109" value="ID giáo viên" style="shape=partialRectangle;connectable=0;fillColor=#f5f5f5;top=0;left=0;bottom=0;right=0;align=left;spacingLeft=6;overflow=hidden;whiteSpace=wrap;html=1;strokeColor=#666666;fontColor=#333333;strokeWidth=2;rounded=1;fontStyle=1;shadow=0;" parent="tQOnXve0qwPO33CJhy6B-107" vertex="1">
          <mxGeometry x="30" width="150" height="30" as="geometry">
            <mxRectangle width="150" height="30" as="alternateBounds" />
          </mxGeometry>
        </mxCell>
        <mxCell id="tQOnXve0qwPO33CJhy6B-110" value="" style="shape=tableRow;horizontal=0;startSize=0;swimlaneHead=0;swimlaneBody=0;fillColor=#f5f5f5;collapsible=0;dropTarget=0;points=[[0,0.5],[1,0.5]];portConstraint=eastwest;top=0;left=0;right=0;bottom=0;strokeColor=#666666;fontColor=#333333;strokeWidth=2;rounded=1;fontStyle=1;shadow=0;" parent="tQOnXve0qwPO33CJhy6B-97" vertex="1">
          <mxGeometry y="240" width="180" height="30" as="geometry" />
        </mxCell>
        <mxCell id="tQOnXve0qwPO33CJhy6B-111" value="FK" style="shape=partialRectangle;connectable=0;fillColor=#f5f5f5;top=0;left=0;bottom=0;right=0;editable=1;overflow=hidden;whiteSpace=wrap;html=1;strokeColor=#666666;fontColor=#333333;strokeWidth=2;rounded=1;fontStyle=1;shadow=0;" parent="tQOnXve0qwPO33CJhy6B-110" vertex="1">
          <mxGeometry width="30" height="30" as="geometry">
            <mxRectangle width="30" height="30" as="alternateBounds" />
          </mxGeometry>
        </mxCell>
        <mxCell id="tQOnXve0qwPO33CJhy6B-112" value="ID nhân viên" style="shape=partialRectangle;connectable=0;fillColor=#f5f5f5;top=0;left=0;bottom=0;right=0;align=left;spacingLeft=6;overflow=hidden;whiteSpace=wrap;html=1;strokeColor=#666666;fontColor=#333333;strokeWidth=2;rounded=1;fontStyle=1;shadow=0;" parent="tQOnXve0qwPO33CJhy6B-110" vertex="1">
          <mxGeometry x="30" width="150" height="30" as="geometry">
            <mxRectangle width="150" height="30" as="alternateBounds" />
          </mxGeometry>
        </mxCell>
        <mxCell id="tQOnXve0qwPO33CJhy6B-154" value="" style="fontSize=12;html=1;endArrow=ERzeroToOne;endFill=1;rounded=1;exitX=0;exitY=0.5;exitDx=0;exitDy=0;entryX=1;entryY=0.5;entryDx=0;entryDy=0;fillColor=#e6d0de;strokeColor=#996185;edgeStyle=orthogonalEdgeStyle;strokeWidth=2;gradientColor=#d5739d;fontStyle=1;shadow=0;" parent="1" source="tQOnXve0qwPO33CJhy6B-15" target="CFcdtzbTBn9PZgVDuJhA-1" edge="1">
          <mxGeometry width="100" height="100" relative="1" as="geometry">
            <mxPoint x="680" y="380" as="sourcePoint" />
            <mxPoint x="650" y="210" as="targetPoint" />
          </mxGeometry>
        </mxCell>
        <mxCell id="tQOnXve0qwPO33CJhy6B-155" value="" style="fontSize=12;html=1;endArrow=ERzeroToOne;endFill=1;rounded=1;exitX=0;exitY=0.5;exitDx=0;exitDy=0;entryX=0;entryY=0.5;entryDx=0;entryDy=0;fillColor=#e6d0de;strokeColor=#996185;edgeStyle=orthogonalEdgeStyle;strokeWidth=2;gradientColor=#d5739d;fontStyle=1;shadow=0;" parent="1" source="tQOnXve0qwPO33CJhy6B-62" target="tQOnXve0qwPO33CJhy6B-107" edge="1">
          <mxGeometry width="100" height="100" relative="1" as="geometry">
            <mxPoint x="530" y="115" as="sourcePoint" />
            <mxPoint x="690" y="205" as="targetPoint" />
            <Array as="points">
              <mxPoint x="-730" y="85" />
              <mxPoint x="-730" y="575" />
            </Array>
          </mxGeometry>
        </mxCell>
        <mxCell id="tQOnXve0qwPO33CJhy6B-157" value="" style="fontSize=12;html=1;endArrow=ERoneToMany;rounded=1;entryX=0;entryY=0.5;entryDx=0;entryDy=0;exitX=0;exitY=0.5;exitDx=0;exitDy=0;fillColor=#f5f5f5;strokeColor=#1BA1E2;edgeStyle=orthogonalEdgeStyle;strokeWidth=2;fontStyle=1;shadow=0;" parent="1" source="tQOnXve0qwPO33CJhy6B-85" target="tQOnXve0qwPO33CJhy6B-142" edge="1">
          <mxGeometry width="100" height="100" relative="1" as="geometry">
            <mxPoint x="60" y="720" as="sourcePoint" />
            <mxPoint x="160" y="620" as="targetPoint" />
            <Array as="points">
              <mxPoint x="-110" y="-265" />
              <mxPoint x="-110" y="175" />
            </Array>
          </mxGeometry>
        </mxCell>
        <mxCell id="tQOnXve0qwPO33CJhy6B-159" value="" style="fontSize=12;html=1;endArrow=ERoneToMany;rounded=1;entryX=0;entryY=0.5;entryDx=0;entryDy=0;exitX=1;exitY=0.5;exitDx=0;exitDy=0;fillColor=#1ba1e2;strokeColor=#006EAF;edgeStyle=orthogonalEdgeStyle;strokeWidth=2;fontStyle=1;shadow=0;" parent="1" source="tQOnXve0qwPO33CJhy6B-62" target="tQOnXve0qwPO33CJhy6B-133" edge="1">
          <mxGeometry width="100" height="100" relative="1" as="geometry">
            <mxPoint x="410" y="510" as="sourcePoint" />
            <mxPoint x="510" y="410" as="targetPoint" />
          </mxGeometry>
        </mxCell>
        <mxCell id="tQOnXve0qwPO33CJhy6B-174" value="&lt;font style=&quot;font-size: 17px;&quot;&gt;&lt;i&gt;Điểm&lt;/i&gt;&lt;/font&gt;" style="shape=table;startSize=30;container=1;collapsible=1;childLayout=tableLayout;fixedRows=1;rowLines=0;fontStyle=1;align=center;resizeLast=1;html=1;fillColor=#fa6800;fontColor=#000000;strokeColor=#C73500;strokeWidth=2;rounded=0;shadow=0;swimlaneLine=1;" parent="1" vertex="1">
          <mxGeometry x="-390" y="140" width="180" height="270" as="geometry" />
        </mxCell>
        <mxCell id="tQOnXve0qwPO33CJhy6B-175" value="" style="shape=tableRow;horizontal=0;startSize=0;swimlaneHead=0;swimlaneBody=0;fillColor=#f5f5f5;collapsible=0;dropTarget=0;points=[[0,0.5],[1,0.5]];portConstraint=eastwest;top=0;left=0;right=0;bottom=1;strokeColor=#666666;fontColor=#333333;strokeWidth=2;rounded=1;fontStyle=1;shadow=0;" parent="tQOnXve0qwPO33CJhy6B-174" vertex="1">
          <mxGeometry y="30" width="180" height="30" as="geometry" />
        </mxCell>
        <mxCell id="tQOnXve0qwPO33CJhy6B-176" value="PK" style="shape=partialRectangle;connectable=0;fillColor=#f5f5f5;top=0;left=0;bottom=0;right=0;fontStyle=1;overflow=hidden;whiteSpace=wrap;html=1;strokeColor=#666666;fontColor=#333333;strokeWidth=2;rounded=1;shadow=0;" parent="tQOnXve0qwPO33CJhy6B-175" vertex="1">
          <mxGeometry width="30" height="30" as="geometry">
            <mxRectangle width="30" height="30" as="alternateBounds" />
          </mxGeometry>
        </mxCell>
        <mxCell id="tQOnXve0qwPO33CJhy6B-177" value="ID Điểm" style="shape=partialRectangle;connectable=0;fillColor=#f5f5f5;top=0;left=0;bottom=0;right=0;align=left;spacingLeft=6;fontStyle=5;overflow=hidden;whiteSpace=wrap;html=1;strokeColor=#666666;fontColor=#333333;strokeWidth=2;rounded=1;shadow=0;" parent="tQOnXve0qwPO33CJhy6B-175" vertex="1">
          <mxGeometry x="30" width="150" height="30" as="geometry">
            <mxRectangle width="150" height="30" as="alternateBounds" />
          </mxGeometry>
        </mxCell>
        <mxCell id="tQOnXve0qwPO33CJhy6B-178" value="" style="shape=tableRow;horizontal=0;startSize=0;swimlaneHead=0;swimlaneBody=0;fillColor=#f5f5f5;collapsible=0;dropTarget=0;points=[[0,0.5],[1,0.5]];portConstraint=eastwest;top=0;left=0;right=0;bottom=0;strokeColor=#666666;fontColor=#333333;strokeWidth=2;rounded=1;fontStyle=1;shadow=0;" parent="tQOnXve0qwPO33CJhy6B-174" vertex="1">
          <mxGeometry y="60" width="180" height="30" as="geometry" />
        </mxCell>
        <mxCell id="tQOnXve0qwPO33CJhy6B-179" value="" style="shape=partialRectangle;connectable=0;fillColor=#f5f5f5;top=0;left=0;bottom=0;right=0;editable=1;overflow=hidden;whiteSpace=wrap;html=1;strokeColor=#666666;fontColor=#333333;strokeWidth=2;rounded=1;fontStyle=1;shadow=0;" parent="tQOnXve0qwPO33CJhy6B-178" vertex="1">
          <mxGeometry width="30" height="30" as="geometry">
            <mxRectangle width="30" height="30" as="alternateBounds" />
          </mxGeometry>
        </mxCell>
        <mxCell id="tQOnXve0qwPO33CJhy6B-180" value="Lab 1, 2, 3, 4, 5, 6, 7, 8" style="shape=partialRectangle;connectable=0;fillColor=#f5f5f5;top=0;left=0;bottom=0;right=0;align=left;spacingLeft=6;overflow=hidden;whiteSpace=wrap;html=1;strokeColor=#666666;fontColor=#333333;strokeWidth=2;rounded=1;fontStyle=1;shadow=0;" parent="tQOnXve0qwPO33CJhy6B-178" vertex="1">
          <mxGeometry x="30" width="150" height="30" as="geometry">
            <mxRectangle width="150" height="30" as="alternateBounds" />
          </mxGeometry>
        </mxCell>
        <mxCell id="tQOnXve0qwPO33CJhy6B-181" value="" style="shape=tableRow;horizontal=0;startSize=0;swimlaneHead=0;swimlaneBody=0;fillColor=#f5f5f5;collapsible=0;dropTarget=0;points=[[0,0.5],[1,0.5]];portConstraint=eastwest;top=0;left=0;right=0;bottom=0;strokeColor=#666666;fontColor=#333333;strokeWidth=2;rounded=1;fontStyle=1;shadow=0;" parent="tQOnXve0qwPO33CJhy6B-174" vertex="1">
          <mxGeometry y="90" width="180" height="30" as="geometry" />
        </mxCell>
        <mxCell id="tQOnXve0qwPO33CJhy6B-182" value="" style="shape=partialRectangle;connectable=0;fillColor=#f5f5f5;top=0;left=0;bottom=0;right=0;editable=1;overflow=hidden;whiteSpace=wrap;html=1;strokeColor=#666666;fontColor=#333333;strokeWidth=2;rounded=1;fontStyle=1;shadow=0;" parent="tQOnXve0qwPO33CJhy6B-181" vertex="1">
          <mxGeometry width="30" height="30" as="geometry">
            <mxRectangle width="30" height="30" as="alternateBounds" />
          </mxGeometry>
        </mxCell>
        <mxCell id="tQOnXve0qwPO33CJhy6B-183" value="Quiz 1, 2, 3, 4, 5, 6, 7, 8" style="shape=partialRectangle;connectable=0;fillColor=#f5f5f5;top=0;left=0;bottom=0;right=0;align=left;spacingLeft=6;overflow=hidden;whiteSpace=wrap;html=1;strokeColor=#666666;fontColor=#333333;strokeWidth=2;rounded=1;fontStyle=1;shadow=0;" parent="tQOnXve0qwPO33CJhy6B-181" vertex="1">
          <mxGeometry x="30" width="150" height="30" as="geometry">
            <mxRectangle width="150" height="30" as="alternateBounds" />
          </mxGeometry>
        </mxCell>
        <mxCell id="tQOnXve0qwPO33CJhy6B-184" value="" style="shape=tableRow;horizontal=0;startSize=0;swimlaneHead=0;swimlaneBody=0;fillColor=#f5f5f5;collapsible=0;dropTarget=0;points=[[0,0.5],[1,0.5]];portConstraint=eastwest;top=0;left=0;right=0;bottom=0;strokeColor=#666666;fontColor=#333333;strokeWidth=2;rounded=1;fontStyle=1;shadow=0;" parent="tQOnXve0qwPO33CJhy6B-174" vertex="1">
          <mxGeometry y="120" width="180" height="30" as="geometry" />
        </mxCell>
        <mxCell id="tQOnXve0qwPO33CJhy6B-185" value="" style="shape=partialRectangle;connectable=0;fillColor=#f5f5f5;top=0;left=0;bottom=0;right=0;editable=1;overflow=hidden;whiteSpace=wrap;html=1;strokeColor=#666666;fontColor=#333333;strokeWidth=2;rounded=1;fontStyle=1;shadow=0;" parent="tQOnXve0qwPO33CJhy6B-184" vertex="1">
          <mxGeometry width="30" height="30" as="geometry">
            <mxRectangle width="30" height="30" as="alternateBounds" />
          </mxGeometry>
        </mxCell>
        <mxCell id="tQOnXve0qwPO33CJhy6B-186" value="Đánh giá Assignment 1" style="shape=partialRectangle;connectable=0;fillColor=#f5f5f5;top=0;left=0;bottom=0;right=0;align=left;spacingLeft=6;overflow=hidden;whiteSpace=wrap;html=1;strokeColor=#666666;fontColor=#333333;strokeWidth=2;rounded=1;fontStyle=1;shadow=0;" parent="tQOnXve0qwPO33CJhy6B-184" vertex="1">
          <mxGeometry x="30" width="150" height="30" as="geometry">
            <mxRectangle width="150" height="30" as="alternateBounds" />
          </mxGeometry>
        </mxCell>
        <mxCell id="tQOnXve0qwPO33CJhy6B-187" value="" style="shape=tableRow;horizontal=0;startSize=0;swimlaneHead=0;swimlaneBody=0;fillColor=#f5f5f5;collapsible=0;dropTarget=0;points=[[0,0.5],[1,0.5]];portConstraint=eastwest;top=0;left=0;right=0;bottom=0;strokeColor=#666666;fontColor=#333333;strokeWidth=2;rounded=1;fontStyle=1;shadow=0;" parent="tQOnXve0qwPO33CJhy6B-174" vertex="1">
          <mxGeometry y="150" width="180" height="30" as="geometry" />
        </mxCell>
        <mxCell id="tQOnXve0qwPO33CJhy6B-188" value="" style="shape=partialRectangle;connectable=0;fillColor=#f5f5f5;top=0;left=0;bottom=0;right=0;editable=1;overflow=hidden;whiteSpace=wrap;html=1;strokeColor=#666666;fontColor=#333333;strokeWidth=2;rounded=1;fontStyle=1;shadow=0;" parent="tQOnXve0qwPO33CJhy6B-187" vertex="1">
          <mxGeometry width="30" height="30" as="geometry">
            <mxRectangle width="30" height="30" as="alternateBounds" />
          </mxGeometry>
        </mxCell>
        <mxCell id="tQOnXve0qwPO33CJhy6B-189" value="Đánh giá Assignment 2" style="shape=partialRectangle;connectable=0;fillColor=#f5f5f5;top=0;left=0;bottom=0;right=0;align=left;spacingLeft=6;overflow=hidden;whiteSpace=wrap;html=1;strokeColor=#666666;fontColor=#333333;strokeWidth=2;rounded=1;fontStyle=1;shadow=0;" parent="tQOnXve0qwPO33CJhy6B-187" vertex="1">
          <mxGeometry x="30" width="150" height="30" as="geometry">
            <mxRectangle width="150" height="30" as="alternateBounds" />
          </mxGeometry>
        </mxCell>
        <mxCell id="1wr1I72fZMlx1ucZUs5V-1" value="" style="shape=tableRow;horizontal=0;startSize=0;swimlaneHead=0;swimlaneBody=0;fillColor=#f5f5f5;collapsible=0;dropTarget=0;points=[[0,0.5],[1,0.5]];portConstraint=eastwest;top=0;left=0;right=0;bottom=0;strokeColor=#666666;fontColor=#333333;strokeWidth=2;rounded=1;fontStyle=1;shadow=0;" parent="tQOnXve0qwPO33CJhy6B-174" vertex="1">
          <mxGeometry y="180" width="180" height="30" as="geometry" />
        </mxCell>
        <mxCell id="1wr1I72fZMlx1ucZUs5V-2" value="" style="shape=partialRectangle;connectable=0;fillColor=#f5f5f5;top=0;left=0;bottom=0;right=0;editable=1;overflow=hidden;whiteSpace=wrap;html=1;strokeColor=#666666;fontColor=#333333;strokeWidth=2;rounded=1;fontStyle=1;shadow=0;" parent="1wr1I72fZMlx1ucZUs5V-1" vertex="1">
          <mxGeometry width="30" height="30" as="geometry">
            <mxRectangle width="30" height="30" as="alternateBounds" />
          </mxGeometry>
        </mxCell>
        <mxCell id="1wr1I72fZMlx1ucZUs5V-3" value="Bảo vệ Assignment" style="shape=partialRectangle;connectable=0;fillColor=#f5f5f5;top=0;left=0;bottom=0;right=0;align=left;spacingLeft=6;overflow=hidden;whiteSpace=wrap;html=1;strokeColor=#666666;fontColor=#333333;strokeWidth=2;rounded=1;fontStyle=1;shadow=0;" parent="1wr1I72fZMlx1ucZUs5V-1" vertex="1">
          <mxGeometry x="30" width="150" height="30" as="geometry">
            <mxRectangle width="150" height="30" as="alternateBounds" />
          </mxGeometry>
        </mxCell>
        <mxCell id="tQOnXve0qwPO33CJhy6B-190" value="" style="shape=tableRow;horizontal=0;startSize=0;swimlaneHead=0;swimlaneBody=0;fillColor=#f5f5f5;collapsible=0;dropTarget=0;points=[[0,0.5],[1,0.5]];portConstraint=eastwest;top=0;left=0;right=0;bottom=0;strokeColor=#666666;fontColor=#333333;strokeWidth=2;rounded=1;fontStyle=1;shadow=0;" parent="tQOnXve0qwPO33CJhy6B-174" vertex="1">
          <mxGeometry y="210" width="180" height="30" as="geometry" />
        </mxCell>
        <mxCell id="tQOnXve0qwPO33CJhy6B-191" value="FK" style="shape=partialRectangle;connectable=0;fillColor=#f5f5f5;top=0;left=0;bottom=0;right=0;editable=1;overflow=hidden;whiteSpace=wrap;html=1;strokeColor=#666666;fontColor=#333333;strokeWidth=2;rounded=1;fontStyle=1;shadow=0;" parent="tQOnXve0qwPO33CJhy6B-190" vertex="1">
          <mxGeometry width="30" height="30" as="geometry">
            <mxRectangle width="30" height="30" as="alternateBounds" />
          </mxGeometry>
        </mxCell>
        <mxCell id="tQOnXve0qwPO33CJhy6B-192" value="ID Môn học" style="shape=partialRectangle;connectable=0;fillColor=#f5f5f5;top=0;left=0;bottom=0;right=0;align=left;spacingLeft=6;overflow=hidden;whiteSpace=wrap;html=1;strokeColor=#666666;fontColor=#333333;strokeWidth=2;rounded=1;fontStyle=1;shadow=0;" parent="tQOnXve0qwPO33CJhy6B-190" vertex="1">
          <mxGeometry x="30" width="150" height="30" as="geometry">
            <mxRectangle width="150" height="30" as="alternateBounds" />
          </mxGeometry>
        </mxCell>
        <mxCell id="tQOnXve0qwPO33CJhy6B-193" value="" style="shape=tableRow;horizontal=0;startSize=0;swimlaneHead=0;swimlaneBody=0;fillColor=#f5f5f5;collapsible=0;dropTarget=0;points=[[0,0.5],[1,0.5]];portConstraint=eastwest;top=0;left=0;right=0;bottom=0;strokeColor=#666666;fontColor=#333333;strokeWidth=2;rounded=1;fontStyle=1;shadow=0;" parent="tQOnXve0qwPO33CJhy6B-174" vertex="1">
          <mxGeometry y="240" width="180" height="30" as="geometry" />
        </mxCell>
        <mxCell id="tQOnXve0qwPO33CJhy6B-194" value="FK" style="shape=partialRectangle;connectable=0;fillColor=#f5f5f5;top=0;left=0;bottom=0;right=0;editable=1;overflow=hidden;whiteSpace=wrap;html=1;strokeColor=#666666;fontColor=#333333;strokeWidth=2;rounded=1;fontStyle=1;shadow=0;" parent="tQOnXve0qwPO33CJhy6B-193" vertex="1">
          <mxGeometry width="30" height="30" as="geometry">
            <mxRectangle width="30" height="30" as="alternateBounds" />
          </mxGeometry>
        </mxCell>
        <mxCell id="tQOnXve0qwPO33CJhy6B-195" value="ID Sinh viên" style="shape=partialRectangle;connectable=0;fillColor=#f5f5f5;top=0;left=0;bottom=0;right=0;align=left;spacingLeft=6;overflow=hidden;whiteSpace=wrap;html=1;strokeColor=#666666;fontColor=#333333;strokeWidth=2;rounded=1;fontStyle=1;shadow=0;" parent="tQOnXve0qwPO33CJhy6B-193" vertex="1">
          <mxGeometry x="30" width="150" height="30" as="geometry">
            <mxRectangle width="150" height="30" as="alternateBounds" />
          </mxGeometry>
        </mxCell>
        <mxCell id="tQOnXve0qwPO33CJhy6B-196" value="&lt;font style=&quot;font-size: 17px;&quot;&gt;&lt;i&gt;Tham gia học&lt;/i&gt;&lt;/font&gt;" style="shape=table;startSize=30;container=1;collapsible=1;childLayout=tableLayout;fixedRows=1;rowLines=0;fontStyle=1;align=center;resizeLast=1;html=1;fillColor=#ffcd28;strokeColor=#d79b00;strokeWidth=2;gradientColor=#ffa500;rounded=0;shadow=0;swimlaneLine=1;" parent="1" vertex="1">
          <mxGeometry x="-80" y="410" width="180" height="150" as="geometry" />
        </mxCell>
        <mxCell id="tQOnXve0qwPO33CJhy6B-197" value="" style="shape=tableRow;horizontal=0;startSize=0;swimlaneHead=0;swimlaneBody=0;fillColor=#f5f5f5;collapsible=0;dropTarget=0;points=[[0,0.5],[1,0.5]];portConstraint=eastwest;top=0;left=0;right=0;bottom=1;strokeColor=#666666;fontColor=#333333;strokeWidth=2;rounded=1;fontStyle=1;shadow=0;" parent="tQOnXve0qwPO33CJhy6B-196" vertex="1">
          <mxGeometry y="30" width="180" height="30" as="geometry" />
        </mxCell>
        <mxCell id="tQOnXve0qwPO33CJhy6B-198" value="PK" style="shape=partialRectangle;connectable=0;fillColor=#f5f5f5;top=0;left=0;bottom=0;right=0;fontStyle=1;overflow=hidden;whiteSpace=wrap;html=1;strokeColor=#666666;fontColor=#333333;strokeWidth=2;rounded=1;shadow=0;" parent="tQOnXve0qwPO33CJhy6B-197" vertex="1">
          <mxGeometry width="30" height="30" as="geometry">
            <mxRectangle width="30" height="30" as="alternateBounds" />
          </mxGeometry>
        </mxCell>
        <mxCell id="tQOnXve0qwPO33CJhy6B-199" value="ID tham gia học" style="shape=partialRectangle;connectable=0;fillColor=#f5f5f5;top=0;left=0;bottom=0;right=0;align=left;spacingLeft=6;fontStyle=5;overflow=hidden;whiteSpace=wrap;html=1;strokeColor=#666666;fontColor=#333333;strokeWidth=2;rounded=1;shadow=0;" parent="tQOnXve0qwPO33CJhy6B-197" vertex="1">
          <mxGeometry x="30" width="150" height="30" as="geometry">
            <mxRectangle width="150" height="30" as="alternateBounds" />
          </mxGeometry>
        </mxCell>
        <mxCell id="tQOnXve0qwPO33CJhy6B-200" value="" style="shape=tableRow;horizontal=0;startSize=0;swimlaneHead=0;swimlaneBody=0;fillColor=#f5f5f5;collapsible=0;dropTarget=0;points=[[0,0.5],[1,0.5]];portConstraint=eastwest;top=0;left=0;right=0;bottom=0;strokeColor=#666666;fontColor=#333333;strokeWidth=2;rounded=1;fontStyle=1;shadow=0;" parent="tQOnXve0qwPO33CJhy6B-196" vertex="1">
          <mxGeometry y="60" width="180" height="30" as="geometry" />
        </mxCell>
        <mxCell id="tQOnXve0qwPO33CJhy6B-201" value="FK" style="shape=partialRectangle;connectable=0;fillColor=#f5f5f5;top=0;left=0;bottom=0;right=0;editable=1;overflow=hidden;whiteSpace=wrap;html=1;strokeColor=#666666;fontColor=#333333;strokeWidth=2;rounded=1;fontStyle=1;shadow=0;" parent="tQOnXve0qwPO33CJhy6B-200" vertex="1">
          <mxGeometry width="30" height="30" as="geometry">
            <mxRectangle width="30" height="30" as="alternateBounds" />
          </mxGeometry>
        </mxCell>
        <mxCell id="tQOnXve0qwPO33CJhy6B-202" value="ID phân công" style="shape=partialRectangle;connectable=0;fillColor=#f5f5f5;top=0;left=0;bottom=0;right=0;align=left;spacingLeft=6;overflow=hidden;whiteSpace=wrap;html=1;strokeColor=#666666;fontColor=#333333;strokeWidth=2;rounded=1;fontStyle=1;shadow=0;" parent="tQOnXve0qwPO33CJhy6B-200" vertex="1">
          <mxGeometry x="30" width="150" height="30" as="geometry">
            <mxRectangle width="150" height="30" as="alternateBounds" />
          </mxGeometry>
        </mxCell>
        <mxCell id="tQOnXve0qwPO33CJhy6B-203" value="" style="shape=tableRow;horizontal=0;startSize=0;swimlaneHead=0;swimlaneBody=0;fillColor=#f5f5f5;collapsible=0;dropTarget=0;points=[[0,0.5],[1,0.5]];portConstraint=eastwest;top=0;left=0;right=0;bottom=0;strokeColor=#666666;fontColor=#333333;strokeWidth=2;rounded=1;fontStyle=1;shadow=0;" parent="tQOnXve0qwPO33CJhy6B-196" vertex="1">
          <mxGeometry y="90" width="180" height="30" as="geometry" />
        </mxCell>
        <mxCell id="tQOnXve0qwPO33CJhy6B-204" value="FK" style="shape=partialRectangle;connectable=0;fillColor=#f5f5f5;top=0;left=0;bottom=0;right=0;editable=1;overflow=hidden;whiteSpace=wrap;html=1;strokeColor=#666666;fontColor=#333333;strokeWidth=2;rounded=1;fontStyle=1;shadow=0;" parent="tQOnXve0qwPO33CJhy6B-203" vertex="1">
          <mxGeometry width="30" height="30" as="geometry">
            <mxRectangle width="30" height="30" as="alternateBounds" />
          </mxGeometry>
        </mxCell>
        <mxCell id="tQOnXve0qwPO33CJhy6B-205" value="ID sinh viên" style="shape=partialRectangle;connectable=0;fillColor=#f5f5f5;top=0;left=0;bottom=0;right=0;align=left;spacingLeft=6;overflow=hidden;whiteSpace=wrap;html=1;strokeColor=#666666;fontColor=#333333;strokeWidth=2;rounded=1;fontStyle=1;shadow=0;" parent="tQOnXve0qwPO33CJhy6B-203" vertex="1">
          <mxGeometry x="30" width="150" height="30" as="geometry">
            <mxRectangle width="150" height="30" as="alternateBounds" />
          </mxGeometry>
        </mxCell>
        <mxCell id="tQOnXve0qwPO33CJhy6B-206" value="" style="shape=tableRow;horizontal=0;startSize=0;swimlaneHead=0;swimlaneBody=0;fillColor=#f5f5f5;collapsible=0;dropTarget=0;points=[[0,0.5],[1,0.5]];portConstraint=eastwest;top=0;left=0;right=0;bottom=0;strokeColor=#666666;fontColor=#333333;strokeWidth=2;rounded=1;fontStyle=1;shadow=0;" parent="tQOnXve0qwPO33CJhy6B-196" vertex="1">
          <mxGeometry y="120" width="180" height="30" as="geometry" />
        </mxCell>
        <mxCell id="tQOnXve0qwPO33CJhy6B-207" value="" style="shape=partialRectangle;connectable=0;fillColor=#f5f5f5;top=0;left=0;bottom=0;right=0;editable=1;overflow=hidden;whiteSpace=wrap;html=1;strokeColor=#666666;fontColor=#333333;strokeWidth=2;rounded=1;fontStyle=1;shadow=0;" parent="tQOnXve0qwPO33CJhy6B-206" vertex="1">
          <mxGeometry width="30" height="30" as="geometry">
            <mxRectangle width="30" height="30" as="alternateBounds" />
          </mxGeometry>
        </mxCell>
        <mxCell id="tQOnXve0qwPO33CJhy6B-208" value="Trạng thái" style="shape=partialRectangle;connectable=0;fillColor=#f5f5f5;top=0;left=0;bottom=0;right=0;align=left;spacingLeft=6;overflow=hidden;whiteSpace=wrap;html=1;strokeColor=#666666;fontColor=#333333;strokeWidth=2;rounded=1;fontStyle=1;shadow=0;" parent="tQOnXve0qwPO33CJhy6B-206" vertex="1">
          <mxGeometry x="30" width="150" height="30" as="geometry">
            <mxRectangle width="150" height="30" as="alternateBounds" />
          </mxGeometry>
        </mxCell>
        <mxCell id="tQOnXve0qwPO33CJhy6B-209" value="" style="fontSize=12;html=1;endArrow=ERoneToMany;rounded=1;entryX=1;entryY=0.5;entryDx=0;entryDy=0;exitX=1;exitY=0.5;exitDx=0;exitDy=0;fillColor=#ffcd28;strokeColor=#d79b00;edgeStyle=orthogonalEdgeStyle;strokeWidth=2;gradientColor=#ffa500;fontStyle=1;shadow=0;" parent="1" source="tQOnXve0qwPO33CJhy6B-127" target="tQOnXve0qwPO33CJhy6B-200" edge="1">
          <mxGeometry width="100" height="100" relative="1" as="geometry">
            <mxPoint x="430" y="560" as="sourcePoint" />
            <mxPoint x="530" y="460" as="targetPoint" />
            <Array as="points">
              <mxPoint x="220" y="25" />
              <mxPoint x="220" y="485" />
            </Array>
          </mxGeometry>
        </mxCell>
        <mxCell id="tQOnXve0qwPO33CJhy6B-210" value="" style="fontSize=12;html=1;endArrow=ERoneToMany;rounded=1;entryX=1;entryY=0.5;entryDx=0;entryDy=0;exitX=1;exitY=0.5;exitDx=0;exitDy=0;fillColor=#6a00ff;strokeColor=#3700CC;edgeStyle=orthogonalEdgeStyle;strokeWidth=2;fontStyle=1;shadow=0;" parent="1" source="tQOnXve0qwPO33CJhy6B-127" target="tQOnXve0qwPO33CJhy6B-165" edge="1">
          <mxGeometry width="100" height="100" relative="1" as="geometry">
            <mxPoint x="120" y="530" as="sourcePoint" />
            <mxPoint x="220" y="430" as="targetPoint" />
            <Array as="points">
              <mxPoint x="270" y="25" />
              <mxPoint x="270" y="660" />
            </Array>
          </mxGeometry>
        </mxCell>
        <mxCell id="pKeRwin4prtTDCWlnT2n-1" value="" style="fontSize=12;html=1;endArrow=ERoneToMany;rounded=1;entryX=0;entryY=0.5;entryDx=0;entryDy=0;exitX=1;exitY=0.5;exitDx=0;exitDy=0;fillColor=#6a00ff;strokeColor=#3700CC;edgeStyle=orthogonalEdgeStyle;strokeWidth=2;fontStyle=1;shadow=0;" parent="1" source="tQOnXve0qwPO33CJhy6B-15" target="tQOnXve0qwPO33CJhy6B-168" edge="1">
          <mxGeometry width="100" height="100" relative="1" as="geometry">
            <mxPoint x="300" y="360" as="sourcePoint" />
            <mxPoint x="400" y="260" as="targetPoint" />
            <Array as="points">
              <mxPoint x="-150" y="485" />
              <mxPoint x="-150" y="690" />
            </Array>
          </mxGeometry>
        </mxCell>
        <mxCell id="1wr1I72fZMlx1ucZUs5V-8" value="&lt;font style=&quot;font-size: 17px;&quot;&gt;&lt;i&gt;Tòa nhà&lt;/i&gt;&lt;/font&gt;" style="shape=table;startSize=30;container=1;collapsible=1;childLayout=tableLayout;fixedRows=1;rowLines=0;fontStyle=1;align=center;resizeLast=1;html=1;fillColor=#d5e8d4;strokeColor=#82b366;strokeWidth=2;gradientColor=#97d077;rounded=0;shadow=0;swimlaneLine=1;" parent="1" vertex="1">
          <mxGeometry x="450" y="-250" width="180" height="150" as="geometry" />
        </mxCell>
        <mxCell id="1wr1I72fZMlx1ucZUs5V-9" value="" style="shape=tableRow;horizontal=0;startSize=0;swimlaneHead=0;swimlaneBody=0;fillColor=#f5f5f5;collapsible=0;dropTarget=0;points=[[0,0.5],[1,0.5]];portConstraint=eastwest;top=0;left=0;right=0;bottom=1;strokeColor=#666666;fontColor=#333333;strokeWidth=2;rounded=1;fontStyle=1;shadow=0;" parent="1wr1I72fZMlx1ucZUs5V-8" vertex="1">
          <mxGeometry y="30" width="180" height="30" as="geometry" />
        </mxCell>
        <mxCell id="1wr1I72fZMlx1ucZUs5V-10" value="PK" style="shape=partialRectangle;connectable=0;fillColor=#f5f5f5;top=0;left=0;bottom=0;right=0;fontStyle=1;overflow=hidden;whiteSpace=wrap;html=1;strokeColor=#666666;fontColor=#333333;strokeWidth=2;rounded=1;shadow=0;" parent="1wr1I72fZMlx1ucZUs5V-9" vertex="1">
          <mxGeometry width="30" height="30" as="geometry">
            <mxRectangle width="30" height="30" as="alternateBounds" />
          </mxGeometry>
        </mxCell>
        <mxCell id="1wr1I72fZMlx1ucZUs5V-11" value="ID Tòa nhà" style="shape=partialRectangle;connectable=0;fillColor=#f5f5f5;top=0;left=0;bottom=0;right=0;align=left;spacingLeft=6;fontStyle=5;overflow=hidden;whiteSpace=wrap;html=1;strokeColor=#666666;fontColor=#333333;strokeWidth=2;rounded=1;shadow=0;" parent="1wr1I72fZMlx1ucZUs5V-9" vertex="1">
          <mxGeometry x="30" width="150" height="30" as="geometry">
            <mxRectangle width="150" height="30" as="alternateBounds" />
          </mxGeometry>
        </mxCell>
        <mxCell id="1wr1I72fZMlx1ucZUs5V-12" value="" style="shape=tableRow;horizontal=0;startSize=0;swimlaneHead=0;swimlaneBody=0;fillColor=#f5f5f5;collapsible=0;dropTarget=0;points=[[0,0.5],[1,0.5]];portConstraint=eastwest;top=0;left=0;right=0;bottom=0;strokeColor=#666666;fontColor=#333333;strokeWidth=2;rounded=1;fontStyle=1;shadow=0;" parent="1wr1I72fZMlx1ucZUs5V-8" vertex="1">
          <mxGeometry y="60" width="180" height="30" as="geometry" />
        </mxCell>
        <mxCell id="1wr1I72fZMlx1ucZUs5V-13" value="" style="shape=partialRectangle;connectable=0;fillColor=#f5f5f5;top=0;left=0;bottom=0;right=0;editable=1;overflow=hidden;whiteSpace=wrap;html=1;strokeColor=#666666;fontColor=#333333;strokeWidth=2;rounded=1;fontStyle=1;shadow=0;" parent="1wr1I72fZMlx1ucZUs5V-12" vertex="1">
          <mxGeometry width="30" height="30" as="geometry">
            <mxRectangle width="30" height="30" as="alternateBounds" />
          </mxGeometry>
        </mxCell>
        <mxCell id="1wr1I72fZMlx1ucZUs5V-14" value="Mã Tòa" style="shape=partialRectangle;connectable=0;fillColor=#f5f5f5;top=0;left=0;bottom=0;right=0;align=left;spacingLeft=6;overflow=hidden;whiteSpace=wrap;html=1;strokeColor=#666666;fontColor=#333333;strokeWidth=2;rounded=1;fontStyle=1;shadow=0;" parent="1wr1I72fZMlx1ucZUs5V-12" vertex="1">
          <mxGeometry x="30" width="150" height="30" as="geometry">
            <mxRectangle width="150" height="30" as="alternateBounds" />
          </mxGeometry>
        </mxCell>
        <mxCell id="1wr1I72fZMlx1ucZUs5V-15" value="" style="shape=tableRow;horizontal=0;startSize=0;swimlaneHead=0;swimlaneBody=0;fillColor=#f5f5f5;collapsible=0;dropTarget=0;points=[[0,0.5],[1,0.5]];portConstraint=eastwest;top=0;left=0;right=0;bottom=0;strokeColor=#666666;fontColor=#333333;strokeWidth=2;rounded=1;fontStyle=1;shadow=0;" parent="1wr1I72fZMlx1ucZUs5V-8" vertex="1">
          <mxGeometry y="90" width="180" height="30" as="geometry" />
        </mxCell>
        <mxCell id="1wr1I72fZMlx1ucZUs5V-16" value="" style="shape=partialRectangle;connectable=0;fillColor=#f5f5f5;top=0;left=0;bottom=0;right=0;editable=1;overflow=hidden;whiteSpace=wrap;html=1;strokeColor=#666666;fontColor=#333333;strokeWidth=2;rounded=1;fontStyle=1;shadow=0;" parent="1wr1I72fZMlx1ucZUs5V-15" vertex="1">
          <mxGeometry width="30" height="30" as="geometry">
            <mxRectangle width="30" height="30" as="alternateBounds" />
          </mxGeometry>
        </mxCell>
        <mxCell id="1wr1I72fZMlx1ucZUs5V-17" value="Ngày chỉnh sửa cuối" style="shape=partialRectangle;connectable=0;fillColor=#f5f5f5;top=0;left=0;bottom=0;right=0;align=left;spacingLeft=6;overflow=hidden;whiteSpace=wrap;html=1;strokeColor=#666666;fontColor=#333333;strokeWidth=2;rounded=1;fontStyle=1;shadow=0;" parent="1wr1I72fZMlx1ucZUs5V-15" vertex="1">
          <mxGeometry x="30" width="150" height="30" as="geometry">
            <mxRectangle width="150" height="30" as="alternateBounds" />
          </mxGeometry>
        </mxCell>
        <mxCell id="1wr1I72fZMlx1ucZUs5V-18" value="" style="shape=tableRow;horizontal=0;startSize=0;swimlaneHead=0;swimlaneBody=0;fillColor=#f5f5f5;collapsible=0;dropTarget=0;points=[[0,0.5],[1,0.5]];portConstraint=eastwest;top=0;left=0;right=0;bottom=0;strokeColor=#666666;fontColor=#333333;strokeWidth=2;rounded=1;fontStyle=1;shadow=0;" parent="1wr1I72fZMlx1ucZUs5V-8" vertex="1">
          <mxGeometry y="120" width="180" height="30" as="geometry" />
        </mxCell>
        <mxCell id="1wr1I72fZMlx1ucZUs5V-19" value="" style="shape=partialRectangle;connectable=0;fillColor=#f5f5f5;top=0;left=0;bottom=0;right=0;editable=1;overflow=hidden;whiteSpace=wrap;html=1;strokeColor=#666666;fontColor=#333333;strokeWidth=2;rounded=1;fontStyle=1;shadow=0;" parent="1wr1I72fZMlx1ucZUs5V-18" vertex="1">
          <mxGeometry width="30" height="30" as="geometry">
            <mxRectangle width="30" height="30" as="alternateBounds" />
          </mxGeometry>
        </mxCell>
        <mxCell id="1wr1I72fZMlx1ucZUs5V-20" value="Mô tả" style="shape=partialRectangle;connectable=0;fillColor=#f5f5f5;top=0;left=0;bottom=0;right=0;align=left;spacingLeft=6;overflow=hidden;whiteSpace=wrap;html=1;strokeColor=#666666;fontColor=#333333;strokeWidth=2;rounded=1;fontStyle=1;shadow=0;" parent="1wr1I72fZMlx1ucZUs5V-18" vertex="1">
          <mxGeometry x="30" width="150" height="30" as="geometry">
            <mxRectangle width="150" height="30" as="alternateBounds" />
          </mxGeometry>
        </mxCell>
        <mxCell id="CDnV8Uc_9sDUrMYhlKRL-7" value="" style="fontSize=12;html=1;endArrow=ERoneToMany;rounded=1;entryX=1;entryY=0.5;entryDx=0;entryDy=0;exitX=0;exitY=0.5;exitDx=0;exitDy=0;fillColor=#ffcd28;strokeColor=#d79b00;edgeStyle=orthogonalEdgeStyle;strokeWidth=2;gradientColor=#ffa500;fontStyle=1;shadow=0;" parent="1" source="1wr1I72fZMlx1ucZUs5V-9" target="tQOnXve0qwPO33CJhy6B-88" edge="1">
          <mxGeometry width="100" height="100" relative="1" as="geometry">
            <mxPoint x="-250" y="870" as="sourcePoint" />
            <mxPoint x="-150" y="770" as="targetPoint" />
          </mxGeometry>
        </mxCell>
        <mxCell id="CDnV8Uc_9sDUrMYhlKRL-12" value="&lt;font style=&quot;font-size: 17px;&quot;&gt;&lt;i&gt;Ngành&lt;/i&gt;&lt;/font&gt;" style="shape=table;startSize=30;container=1;collapsible=1;childLayout=tableLayout;fixedRows=1;rowLines=0;fontStyle=1;align=center;resizeLast=1;html=1;fillColor=#ffe6cc;strokeColor=#d79b00;strokeWidth=2;rounded=0;shadow=0;swimlaneLine=1;" parent="1" vertex="1">
          <mxGeometry x="-680" y="-190" width="180" height="180" as="geometry" />
        </mxCell>
        <mxCell id="CDnV8Uc_9sDUrMYhlKRL-13" value="" style="shape=tableRow;horizontal=0;startSize=0;swimlaneHead=0;swimlaneBody=0;fillColor=#f5f5f5;collapsible=0;dropTarget=0;points=[[0,0.5],[1,0.5]];portConstraint=eastwest;top=0;left=0;right=0;bottom=1;strokeColor=#666666;fontColor=#333333;strokeWidth=2;rounded=1;fontStyle=1;shadow=0;" parent="CDnV8Uc_9sDUrMYhlKRL-12" vertex="1">
          <mxGeometry y="30" width="180" height="30" as="geometry" />
        </mxCell>
        <mxCell id="CDnV8Uc_9sDUrMYhlKRL-14" value="PK" style="shape=partialRectangle;connectable=0;fillColor=#f5f5f5;top=0;left=0;bottom=0;right=0;fontStyle=1;overflow=hidden;whiteSpace=wrap;html=1;strokeColor=#666666;fontColor=#333333;strokeWidth=2;rounded=1;shadow=0;" parent="CDnV8Uc_9sDUrMYhlKRL-13" vertex="1">
          <mxGeometry width="30" height="30" as="geometry">
            <mxRectangle width="30" height="30" as="alternateBounds" />
          </mxGeometry>
        </mxCell>
        <mxCell id="CDnV8Uc_9sDUrMYhlKRL-15" value="ID ngành" style="shape=partialRectangle;connectable=0;fillColor=#f5f5f5;top=0;left=0;bottom=0;right=0;align=left;spacingLeft=6;fontStyle=5;overflow=hidden;whiteSpace=wrap;html=1;strokeColor=#666666;fontColor=#333333;strokeWidth=2;rounded=1;shadow=0;" parent="CDnV8Uc_9sDUrMYhlKRL-13" vertex="1">
          <mxGeometry x="30" width="150" height="30" as="geometry">
            <mxRectangle width="150" height="30" as="alternateBounds" />
          </mxGeometry>
        </mxCell>
        <mxCell id="CDnV8Uc_9sDUrMYhlKRL-16" value="" style="shape=tableRow;horizontal=0;startSize=0;swimlaneHead=0;swimlaneBody=0;fillColor=#f5f5f5;collapsible=0;dropTarget=0;points=[[0,0.5],[1,0.5]];portConstraint=eastwest;top=0;left=0;right=0;bottom=0;strokeColor=#666666;fontColor=#333333;strokeWidth=2;rounded=1;fontStyle=1;shadow=0;" parent="CDnV8Uc_9sDUrMYhlKRL-12" vertex="1">
          <mxGeometry y="60" width="180" height="30" as="geometry" />
        </mxCell>
        <mxCell id="CDnV8Uc_9sDUrMYhlKRL-17" value="" style="shape=partialRectangle;connectable=0;fillColor=#f5f5f5;top=0;left=0;bottom=0;right=0;editable=1;overflow=hidden;whiteSpace=wrap;html=1;strokeColor=#666666;fontColor=#333333;strokeWidth=2;rounded=1;fontStyle=1;shadow=0;" parent="CDnV8Uc_9sDUrMYhlKRL-16" vertex="1">
          <mxGeometry width="30" height="30" as="geometry">
            <mxRectangle width="30" height="30" as="alternateBounds" />
          </mxGeometry>
        </mxCell>
        <mxCell id="CDnV8Uc_9sDUrMYhlKRL-18" value="Tên ngành" style="shape=partialRectangle;connectable=0;fillColor=#f5f5f5;top=0;left=0;bottom=0;right=0;align=left;spacingLeft=6;overflow=hidden;whiteSpace=wrap;html=1;strokeColor=#666666;fontColor=#333333;strokeWidth=2;rounded=1;fontStyle=1;shadow=0;" parent="CDnV8Uc_9sDUrMYhlKRL-16" vertex="1">
          <mxGeometry x="30" width="150" height="30" as="geometry">
            <mxRectangle width="150" height="30" as="alternateBounds" />
          </mxGeometry>
        </mxCell>
        <mxCell id="CDnV8Uc_9sDUrMYhlKRL-19" value="" style="shape=tableRow;horizontal=0;startSize=0;swimlaneHead=0;swimlaneBody=0;fillColor=#f5f5f5;collapsible=0;dropTarget=0;points=[[0,0.5],[1,0.5]];portConstraint=eastwest;top=0;left=0;right=0;bottom=0;strokeColor=#666666;fontColor=#333333;strokeWidth=2;rounded=1;fontStyle=1;shadow=0;" parent="CDnV8Uc_9sDUrMYhlKRL-12" vertex="1">
          <mxGeometry y="90" width="180" height="30" as="geometry" />
        </mxCell>
        <mxCell id="CDnV8Uc_9sDUrMYhlKRL-20" value="" style="shape=partialRectangle;connectable=0;fillColor=#f5f5f5;top=0;left=0;bottom=0;right=0;editable=1;overflow=hidden;whiteSpace=wrap;html=1;strokeColor=#666666;fontColor=#333333;strokeWidth=2;rounded=1;fontStyle=1;shadow=0;" parent="CDnV8Uc_9sDUrMYhlKRL-19" vertex="1">
          <mxGeometry width="30" height="30" as="geometry">
            <mxRectangle width="30" height="30" as="alternateBounds" />
          </mxGeometry>
        </mxCell>
        <mxCell id="CDnV8Uc_9sDUrMYhlKRL-21" value="Mã ngành" style="shape=partialRectangle;connectable=0;fillColor=#f5f5f5;top=0;left=0;bottom=0;right=0;align=left;spacingLeft=6;overflow=hidden;whiteSpace=wrap;html=1;strokeColor=#666666;fontColor=#333333;strokeWidth=2;rounded=1;fontStyle=1;shadow=0;" parent="CDnV8Uc_9sDUrMYhlKRL-19" vertex="1">
          <mxGeometry x="30" width="150" height="30" as="geometry">
            <mxRectangle width="150" height="30" as="alternateBounds" />
          </mxGeometry>
        </mxCell>
        <mxCell id="CDnV8Uc_9sDUrMYhlKRL-25" value="" style="shape=tableRow;horizontal=0;startSize=0;swimlaneHead=0;swimlaneBody=0;fillColor=#f5f5f5;collapsible=0;dropTarget=0;points=[[0,0.5],[1,0.5]];portConstraint=eastwest;top=0;left=0;right=0;bottom=0;strokeColor=#666666;fontColor=#333333;strokeWidth=2;rounded=1;fontStyle=1;shadow=0;" parent="CDnV8Uc_9sDUrMYhlKRL-12" vertex="1">
          <mxGeometry y="120" width="180" height="30" as="geometry" />
        </mxCell>
        <mxCell id="CDnV8Uc_9sDUrMYhlKRL-26" value="" style="shape=partialRectangle;connectable=0;fillColor=#f5f5f5;top=0;left=0;bottom=0;right=0;editable=1;overflow=hidden;whiteSpace=wrap;html=1;strokeColor=#666666;fontColor=#333333;strokeWidth=2;rounded=1;fontStyle=1;shadow=0;" parent="CDnV8Uc_9sDUrMYhlKRL-25" vertex="1">
          <mxGeometry width="30" height="30" as="geometry">
            <mxRectangle width="30" height="30" as="alternateBounds" />
          </mxGeometry>
        </mxCell>
        <mxCell id="CDnV8Uc_9sDUrMYhlKRL-27" value="Ngày chỉnh sửa cuối" style="shape=partialRectangle;connectable=0;fillColor=#f5f5f5;top=0;left=0;bottom=0;right=0;align=left;spacingLeft=6;overflow=hidden;whiteSpace=wrap;html=1;strokeColor=#666666;fontColor=#333333;strokeWidth=2;rounded=1;fontStyle=1;shadow=0;" parent="CDnV8Uc_9sDUrMYhlKRL-25" vertex="1">
          <mxGeometry x="30" width="150" height="30" as="geometry">
            <mxRectangle width="150" height="30" as="alternateBounds" />
          </mxGeometry>
        </mxCell>
        <mxCell id="CDnV8Uc_9sDUrMYhlKRL-22" value="" style="shape=tableRow;horizontal=0;startSize=0;swimlaneHead=0;swimlaneBody=0;fillColor=#f5f5f5;collapsible=0;dropTarget=0;points=[[0,0.5],[1,0.5]];portConstraint=eastwest;top=0;left=0;right=0;bottom=0;strokeColor=#666666;fontColor=#333333;strokeWidth=2;rounded=1;fontStyle=1;shadow=0;" parent="CDnV8Uc_9sDUrMYhlKRL-12" vertex="1">
          <mxGeometry y="150" width="180" height="30" as="geometry" />
        </mxCell>
        <mxCell id="CDnV8Uc_9sDUrMYhlKRL-23" value="" style="shape=partialRectangle;connectable=0;fillColor=#f5f5f5;top=0;left=0;bottom=0;right=0;editable=1;overflow=hidden;whiteSpace=wrap;html=1;strokeColor=#666666;fontColor=#333333;strokeWidth=2;rounded=1;fontStyle=1;shadow=0;" parent="CDnV8Uc_9sDUrMYhlKRL-22" vertex="1">
          <mxGeometry width="30" height="30" as="geometry">
            <mxRectangle width="30" height="30" as="alternateBounds" />
          </mxGeometry>
        </mxCell>
        <mxCell id="CDnV8Uc_9sDUrMYhlKRL-24" value="Mô tả" style="shape=partialRectangle;connectable=0;fillColor=#f5f5f5;top=0;left=0;bottom=0;right=0;align=left;spacingLeft=6;overflow=hidden;whiteSpace=wrap;html=1;strokeColor=#666666;fontColor=#333333;strokeWidth=2;rounded=1;fontStyle=1;shadow=0;" parent="CDnV8Uc_9sDUrMYhlKRL-22" vertex="1">
          <mxGeometry x="30" width="150" height="30" as="geometry">
            <mxRectangle width="150" height="30" as="alternateBounds" />
          </mxGeometry>
        </mxCell>
        <mxCell id="cZPaNfz8ub3oRpcGuj9J-1" value="" style="fontSize=12;html=1;endArrow=ERoneToMany;rounded=1;exitX=1;exitY=0.25;exitDx=0;exitDy=0;edgeStyle=orthogonalEdgeStyle;fillColor=#f0a30a;strokeColor=#BD7000;entryX=1;entryY=0.5;entryDx=0;entryDy=0;strokeWidth=2;fontStyle=1;shadow=0;" parent="1" source="CDnV8Uc_9sDUrMYhlKRL-12" target="tQOnXve0qwPO33CJhy6B-11" edge="1">
          <mxGeometry width="100" height="100" relative="1" as="geometry">
            <mxPoint x="-70" y="180" as="sourcePoint" />
            <mxPoint x="-440" y="-310" as="targetPoint" />
            <Array as="points">
              <mxPoint x="-460" y="-145" />
              <mxPoint x="-460" y="-275" />
            </Array>
          </mxGeometry>
        </mxCell>
        <mxCell id="cZPaNfz8ub3oRpcGuj9J-5" value="" style="fontSize=12;html=1;endArrow=ERoneToMany;rounded=1;entryX=0;entryY=0.5;entryDx=0;entryDy=0;edgeStyle=orthogonalEdgeStyle;exitX=1;exitY=0.5;exitDx=0;exitDy=0;fillColor=#d5e8d4;strokeColor=#82b366;strokeWidth=2;fontStyle=1;shadow=0;" parent="1" source="CDnV8Uc_9sDUrMYhlKRL-13" target="tQOnXve0qwPO33CJhy6B-58" edge="1">
          <mxGeometry width="100" height="100" relative="1" as="geometry">
            <mxPoint x="-750" y="-240" as="sourcePoint" />
            <mxPoint x="-270" y="360" as="targetPoint" />
            <Array as="points">
              <mxPoint x="-430" y="-145" />
              <mxPoint x="-430" y="-205" />
            </Array>
          </mxGeometry>
        </mxCell>
        <mxCell id="cZPaNfz8ub3oRpcGuj9J-6" value="&lt;font style=&quot;font-size: 17px;&quot;&gt;&lt;i&gt;Môn học chi tiết&lt;/i&gt;&lt;/font&gt;" style="shape=table;startSize=30;container=1;collapsible=1;childLayout=tableLayout;fixedRows=1;rowLines=0;fontStyle=1;align=center;resizeLast=1;html=1;fillColor=#b0e3e6;strokeColor=#0e8088;strokeWidth=2;rounded=0;shadow=0;swimlaneLine=1;" parent="1" vertex="1">
          <mxGeometry x="-60" y="-470" width="180" height="180" as="geometry" />
        </mxCell>
        <mxCell id="cZPaNfz8ub3oRpcGuj9J-7" value="" style="shape=tableRow;horizontal=0;startSize=0;swimlaneHead=0;swimlaneBody=0;fillColor=none;collapsible=0;dropTarget=0;points=[[0,0.5],[1,0.5]];portConstraint=eastwest;top=0;left=0;right=0;bottom=1;strokeWidth=2;rounded=1;fontStyle=1;shadow=0;" parent="cZPaNfz8ub3oRpcGuj9J-6" vertex="1">
          <mxGeometry y="30" width="180" height="30" as="geometry" />
        </mxCell>
        <mxCell id="cZPaNfz8ub3oRpcGuj9J-8" value="PK" style="shape=partialRectangle;connectable=0;fillColor=none;top=0;left=0;bottom=0;right=0;fontStyle=1;overflow=hidden;whiteSpace=wrap;html=1;strokeWidth=2;rounded=1;shadow=0;" parent="cZPaNfz8ub3oRpcGuj9J-7" vertex="1">
          <mxGeometry width="30" height="30" as="geometry">
            <mxRectangle width="30" height="30" as="alternateBounds" />
          </mxGeometry>
        </mxCell>
        <mxCell id="cZPaNfz8ub3oRpcGuj9J-9" value="ID môn học chi tiết" style="shape=partialRectangle;connectable=0;fillColor=none;top=0;left=0;bottom=0;right=0;align=left;spacingLeft=6;fontStyle=5;overflow=hidden;whiteSpace=wrap;html=1;strokeWidth=2;rounded=1;shadow=0;" parent="cZPaNfz8ub3oRpcGuj9J-7" vertex="1">
          <mxGeometry x="30" width="150" height="30" as="geometry">
            <mxRectangle width="150" height="30" as="alternateBounds" />
          </mxGeometry>
        </mxCell>
        <mxCell id="cZPaNfz8ub3oRpcGuj9J-10" value="" style="shape=tableRow;horizontal=0;startSize=0;swimlaneHead=0;swimlaneBody=0;fillColor=none;collapsible=0;dropTarget=0;points=[[0,0.5],[1,0.5]];portConstraint=eastwest;top=0;left=0;right=0;bottom=0;strokeWidth=2;rounded=1;fontStyle=1;shadow=0;" parent="cZPaNfz8ub3oRpcGuj9J-6" vertex="1">
          <mxGeometry y="60" width="180" height="30" as="geometry" />
        </mxCell>
        <mxCell id="cZPaNfz8ub3oRpcGuj9J-11" value="" style="shape=partialRectangle;connectable=0;fillColor=none;top=0;left=0;bottom=0;right=0;editable=1;overflow=hidden;whiteSpace=wrap;html=1;strokeWidth=2;rounded=1;fontStyle=1;shadow=0;" parent="cZPaNfz8ub3oRpcGuj9J-10" vertex="1">
          <mxGeometry width="30" height="30" as="geometry">
            <mxRectangle width="30" height="30" as="alternateBounds" />
          </mxGeometry>
        </mxCell>
        <mxCell id="cZPaNfz8ub3oRpcGuj9J-12" value="ID môn học" style="shape=partialRectangle;connectable=0;fillColor=none;top=0;left=0;bottom=0;right=0;align=left;spacingLeft=6;overflow=hidden;whiteSpace=wrap;html=1;strokeWidth=2;rounded=1;fontStyle=1;shadow=0;" parent="cZPaNfz8ub3oRpcGuj9J-10" vertex="1">
          <mxGeometry x="30" width="150" height="30" as="geometry">
            <mxRectangle width="150" height="30" as="alternateBounds" />
          </mxGeometry>
        </mxCell>
        <mxCell id="IWIqAQeaE0l4H3r7YwF_-10" value="" style="shape=tableRow;horizontal=0;startSize=0;swimlaneHead=0;swimlaneBody=0;fillColor=none;collapsible=0;dropTarget=0;points=[[0,0.5],[1,0.5]];portConstraint=eastwest;top=0;left=0;right=0;bottom=0;strokeWidth=2;rounded=1;fontStyle=1;shadow=0;" parent="cZPaNfz8ub3oRpcGuj9J-6" vertex="1">
          <mxGeometry y="90" width="180" height="30" as="geometry" />
        </mxCell>
        <mxCell id="IWIqAQeaE0l4H3r7YwF_-11" value="" style="shape=partialRectangle;connectable=0;fillColor=none;top=0;left=0;bottom=0;right=0;editable=1;overflow=hidden;whiteSpace=wrap;html=1;strokeWidth=2;rounded=1;fontStyle=1;shadow=0;" parent="IWIqAQeaE0l4H3r7YwF_-10" vertex="1">
          <mxGeometry width="30" height="30" as="geometry">
            <mxRectangle width="30" height="30" as="alternateBounds" />
          </mxGeometry>
        </mxCell>
        <mxCell id="IWIqAQeaE0l4H3r7YwF_-12" value="ID ngành hẹp" style="shape=partialRectangle;connectable=0;fillColor=none;top=0;left=0;bottom=0;right=0;align=left;spacingLeft=6;overflow=hidden;whiteSpace=wrap;html=1;strokeWidth=2;rounded=1;fontStyle=1;shadow=0;" parent="IWIqAQeaE0l4H3r7YwF_-10" vertex="1">
          <mxGeometry x="30" width="150" height="30" as="geometry">
            <mxRectangle width="150" height="30" as="alternateBounds" />
          </mxGeometry>
        </mxCell>
        <mxCell id="cZPaNfz8ub3oRpcGuj9J-13" value="" style="shape=tableRow;horizontal=0;startSize=0;swimlaneHead=0;swimlaneBody=0;fillColor=none;collapsible=0;dropTarget=0;points=[[0,0.5],[1,0.5]];portConstraint=eastwest;top=0;left=0;right=0;bottom=0;strokeWidth=2;rounded=1;fontStyle=1;shadow=0;" parent="cZPaNfz8ub3oRpcGuj9J-6" vertex="1">
          <mxGeometry y="120" width="180" height="30" as="geometry" />
        </mxCell>
        <mxCell id="cZPaNfz8ub3oRpcGuj9J-14" value="" style="shape=partialRectangle;connectable=0;fillColor=none;top=0;left=0;bottom=0;right=0;editable=1;overflow=hidden;whiteSpace=wrap;html=1;strokeWidth=2;rounded=1;fontStyle=1;shadow=0;" parent="cZPaNfz8ub3oRpcGuj9J-13" vertex="1">
          <mxGeometry width="30" height="30" as="geometry">
            <mxRectangle width="30" height="30" as="alternateBounds" />
          </mxGeometry>
        </mxCell>
        <mxCell id="cZPaNfz8ub3oRpcGuj9J-15" value="Ngày chỉnh sửa cuối" style="shape=partialRectangle;connectable=0;fillColor=none;top=0;left=0;bottom=0;right=0;align=left;spacingLeft=6;overflow=hidden;whiteSpace=wrap;html=1;strokeWidth=2;rounded=1;fontStyle=1;shadow=0;" parent="cZPaNfz8ub3oRpcGuj9J-13" vertex="1">
          <mxGeometry x="30" width="150" height="30" as="geometry">
            <mxRectangle width="150" height="30" as="alternateBounds" />
          </mxGeometry>
        </mxCell>
        <mxCell id="cZPaNfz8ub3oRpcGuj9J-16" value="" style="shape=tableRow;horizontal=0;startSize=0;swimlaneHead=0;swimlaneBody=0;fillColor=none;collapsible=0;dropTarget=0;points=[[0,0.5],[1,0.5]];portConstraint=eastwest;top=0;left=0;right=0;bottom=0;strokeWidth=2;rounded=1;fontStyle=1;shadow=0;" parent="cZPaNfz8ub3oRpcGuj9J-6" vertex="1">
          <mxGeometry y="150" width="180" height="30" as="geometry" />
        </mxCell>
        <mxCell id="cZPaNfz8ub3oRpcGuj9J-17" value="" style="shape=partialRectangle;connectable=0;fillColor=none;top=0;left=0;bottom=0;right=0;editable=1;overflow=hidden;whiteSpace=wrap;html=1;strokeWidth=2;rounded=1;fontStyle=1;shadow=0;" parent="cZPaNfz8ub3oRpcGuj9J-16" vertex="1">
          <mxGeometry width="30" height="30" as="geometry">
            <mxRectangle width="30" height="30" as="alternateBounds" />
          </mxGeometry>
        </mxCell>
        <mxCell id="cZPaNfz8ub3oRpcGuj9J-18" value="Mô tả" style="shape=partialRectangle;connectable=0;fillColor=none;top=0;left=0;bottom=0;right=0;align=left;spacingLeft=6;overflow=hidden;whiteSpace=wrap;html=1;strokeWidth=2;rounded=1;fontStyle=1;shadow=0;" parent="cZPaNfz8ub3oRpcGuj9J-16" vertex="1">
          <mxGeometry x="30" width="150" height="30" as="geometry">
            <mxRectangle width="150" height="30" as="alternateBounds" />
          </mxGeometry>
        </mxCell>
        <mxCell id="cZPaNfz8ub3oRpcGuj9J-19" value="" style="fontSize=12;html=1;endArrow=ERoneToMany;rounded=1;entryX=1;entryY=0.5;entryDx=0;entryDy=0;exitX=1;exitY=0.5;exitDx=0;exitDy=0;edgeStyle=orthogonalEdgeStyle;strokeWidth=2;fillColor=#b0e3e6;strokeColor=#0e8088;fontStyle=1;shadow=0;" parent="1" source="tQOnXve0qwPO33CJhy6B-37" target="cZPaNfz8ub3oRpcGuj9J-10" edge="1">
          <mxGeometry width="100" height="100" relative="1" as="geometry">
            <mxPoint x="-460" y="360" as="sourcePoint" />
            <mxPoint x="-360" y="260" as="targetPoint" />
            <Array as="points">
              <mxPoint x="-90" y="-425" />
              <mxPoint x="-90" y="-520" />
              <mxPoint x="210" y="-520" />
              <mxPoint x="210" y="-395" />
            </Array>
          </mxGeometry>
        </mxCell>
        <mxCell id="cZPaNfz8ub3oRpcGuj9J-20" value="" style="fontSize=12;html=1;endArrow=ERoneToMany;rounded=1;exitX=0;exitY=0.25;exitDx=0;exitDy=0;entryX=1;entryY=0.5;entryDx=0;entryDy=0;edgeStyle=orthogonalEdgeStyle;strokeWidth=2;fillColor=#b0e3e6;strokeColor=#0e8088;fontStyle=1;shadow=0;" parent="1" source="tQOnXve0qwPO33CJhy6B-1" target="cZPaNfz8ub3oRpcGuj9J-13" edge="1">
          <mxGeometry width="100" height="100" relative="1" as="geometry">
            <mxPoint x="-110" y="290" as="sourcePoint" />
            <mxPoint x="-10" y="190" as="targetPoint" />
            <Array as="points">
              <mxPoint x="-710" y="-425" />
              <mxPoint x="-710" y="-570" />
              <mxPoint x="270" y="-570" />
              <mxPoint x="270" y="-365" />
            </Array>
          </mxGeometry>
        </mxCell>
        <mxCell id="cZPaNfz8ub3oRpcGuj9J-23" value="" style="fontSize=12;html=1;endArrow=ERoneToMany;rounded=1;entryX=1;entryY=0.5;entryDx=0;entryDy=0;edgeStyle=orthogonalEdgeStyle;strokeWidth=2;exitX=1;exitY=0.25;exitDx=0;exitDy=0;fillColor=#fa6800;strokeColor=#C73500;fontStyle=1;shadow=0;" parent="1" source="tQOnXve0qwPO33CJhy6B-1" target="CDnV8Uc_9sDUrMYhlKRL-31" edge="1">
          <mxGeometry width="100" height="100" relative="1" as="geometry">
            <mxPoint x="-430" y="-390" as="sourcePoint" />
            <mxPoint x="-460" y="540" as="targetPoint" />
            <Array as="points">
              <mxPoint x="-420" y="-425" />
              <mxPoint x="-420" y="-510" />
              <mxPoint x="-180" y="-510" />
              <mxPoint x="-180" y="-70" />
            </Array>
          </mxGeometry>
        </mxCell>
        <mxCell id="CFcdtzbTBn9PZgVDuJhA-17" value="" style="fontSize=12;html=1;endArrow=ERoneToMany;rounded=1;exitX=0;exitY=0.5;exitDx=0;exitDy=0;edgeStyle=orthogonalEdgeStyle;entryX=0;entryY=0.5;entryDx=0;entryDy=0;strokeWidth=2;fillColor=#008a00;strokeColor=#005700;fontStyle=1;shadow=0;" parent="1" source="CDnV8Uc_9sDUrMYhlKRL-13" target="tQOnXve0qwPO33CJhy6B-77" edge="1">
          <mxGeometry width="100" height="100" relative="1" as="geometry">
            <mxPoint x="-680" y="-125" as="sourcePoint" />
            <mxPoint x="-790" y="290" as="targetPoint" />
            <Array as="points">
              <mxPoint x="-770" y="-145" />
              <mxPoint x="-770" y="235" />
            </Array>
          </mxGeometry>
        </mxCell>
        <mxCell id="tQOnXve0qwPO33CJhy6B-61" value="&lt;font color=&quot;#000000&quot; style=&quot;font-size: 17px;&quot;&gt;&lt;i&gt;Giáo viên&lt;/i&gt;&lt;/font&gt;" style="shape=table;startSize=30;container=1;collapsible=1;childLayout=tableLayout;fixedRows=1;rowLines=0;fontStyle=1;align=center;resizeLast=1;html=1;fillColor=#008a00;strokeColor=#005700;strokeWidth=2;fontColor=#ffffff;rounded=0;shadow=0;swimlaneLine=1;" parent="1" vertex="1">
          <mxGeometry x="-680" y="40" width="180" height="270" as="geometry" />
        </mxCell>
        <mxCell id="tQOnXve0qwPO33CJhy6B-62" value="" style="shape=tableRow;horizontal=0;startSize=0;swimlaneHead=0;swimlaneBody=0;fillColor=#f5f5f5;collapsible=0;dropTarget=0;points=[[0,0.5],[1,0.5]];portConstraint=eastwest;top=0;left=0;right=0;bottom=1;strokeColor=#666666;fontColor=#333333;strokeWidth=2;rounded=1;fontStyle=1;shadow=0;" parent="tQOnXve0qwPO33CJhy6B-61" vertex="1">
          <mxGeometry y="30" width="180" height="30" as="geometry" />
        </mxCell>
        <mxCell id="tQOnXve0qwPO33CJhy6B-63" value="PK" style="shape=partialRectangle;connectable=0;fillColor=#f5f5f5;top=0;left=0;bottom=0;right=0;fontStyle=1;overflow=hidden;whiteSpace=wrap;html=1;strokeColor=#666666;fontColor=#333333;strokeWidth=2;rounded=1;shadow=0;" parent="tQOnXve0qwPO33CJhy6B-62" vertex="1">
          <mxGeometry width="30" height="30" as="geometry">
            <mxRectangle width="30" height="30" as="alternateBounds" />
          </mxGeometry>
        </mxCell>
        <mxCell id="tQOnXve0qwPO33CJhy6B-64" value="ID Giáo viên" style="shape=partialRectangle;connectable=0;fillColor=#f5f5f5;top=0;left=0;bottom=0;right=0;align=left;spacingLeft=6;fontStyle=5;overflow=hidden;whiteSpace=wrap;html=1;strokeColor=#666666;fontColor=#333333;strokeWidth=2;rounded=1;shadow=0;" parent="tQOnXve0qwPO33CJhy6B-62" vertex="1">
          <mxGeometry x="30" width="150" height="30" as="geometry">
            <mxRectangle width="150" height="30" as="alternateBounds" />
          </mxGeometry>
        </mxCell>
        <mxCell id="tQOnXve0qwPO33CJhy6B-65" value="" style="shape=tableRow;horizontal=0;startSize=0;swimlaneHead=0;swimlaneBody=0;fillColor=#f5f5f5;collapsible=0;dropTarget=0;points=[[0,0.5],[1,0.5]];portConstraint=eastwest;top=0;left=0;right=0;bottom=0;strokeColor=#666666;fontColor=#333333;strokeWidth=2;rounded=1;fontStyle=1;shadow=0;" parent="tQOnXve0qwPO33CJhy6B-61" vertex="1">
          <mxGeometry y="60" width="180" height="30" as="geometry" />
        </mxCell>
        <mxCell id="tQOnXve0qwPO33CJhy6B-66" value="" style="shape=partialRectangle;connectable=0;fillColor=#f5f5f5;top=0;left=0;bottom=0;right=0;editable=1;overflow=hidden;whiteSpace=wrap;html=1;strokeColor=#666666;fontColor=#333333;strokeWidth=2;rounded=1;fontStyle=1;shadow=0;" parent="tQOnXve0qwPO33CJhy6B-65" vertex="1">
          <mxGeometry width="30" height="30" as="geometry">
            <mxRectangle width="30" height="30" as="alternateBounds" />
          </mxGeometry>
        </mxCell>
        <mxCell id="tQOnXve0qwPO33CJhy6B-67" value="Tên giáo viên" style="shape=partialRectangle;connectable=0;fillColor=#f5f5f5;top=0;left=0;bottom=0;right=0;align=left;spacingLeft=6;overflow=hidden;whiteSpace=wrap;html=1;strokeColor=#666666;fontColor=#333333;strokeWidth=2;rounded=1;fontStyle=1;shadow=0;" parent="tQOnXve0qwPO33CJhy6B-65" vertex="1">
          <mxGeometry x="30" width="150" height="30" as="geometry">
            <mxRectangle width="150" height="30" as="alternateBounds" />
          </mxGeometry>
        </mxCell>
        <mxCell id="tQOnXve0qwPO33CJhy6B-68" value="" style="shape=tableRow;horizontal=0;startSize=0;swimlaneHead=0;swimlaneBody=0;fillColor=#f5f5f5;collapsible=0;dropTarget=0;points=[[0,0.5],[1,0.5]];portConstraint=eastwest;top=0;left=0;right=0;bottom=0;strokeColor=#666666;fontColor=#333333;strokeWidth=2;rounded=1;fontStyle=1;shadow=0;" parent="tQOnXve0qwPO33CJhy6B-61" vertex="1">
          <mxGeometry y="90" width="180" height="30" as="geometry" />
        </mxCell>
        <mxCell id="tQOnXve0qwPO33CJhy6B-69" value="" style="shape=partialRectangle;connectable=0;fillColor=#f5f5f5;top=0;left=0;bottom=0;right=0;editable=1;overflow=hidden;whiteSpace=wrap;html=1;strokeColor=#666666;fontColor=#333333;strokeWidth=2;rounded=1;fontStyle=1;shadow=0;" parent="tQOnXve0qwPO33CJhy6B-68" vertex="1">
          <mxGeometry width="30" height="30" as="geometry">
            <mxRectangle width="30" height="30" as="alternateBounds" />
          </mxGeometry>
        </mxCell>
        <mxCell id="tQOnXve0qwPO33CJhy6B-70" value="Email" style="shape=partialRectangle;connectable=0;fillColor=#f5f5f5;top=0;left=0;bottom=0;right=0;align=left;spacingLeft=6;overflow=hidden;whiteSpace=wrap;html=1;strokeColor=#666666;fontColor=#333333;strokeWidth=2;rounded=1;fontStyle=1;shadow=0;" parent="tQOnXve0qwPO33CJhy6B-68" vertex="1">
          <mxGeometry x="30" width="150" height="30" as="geometry">
            <mxRectangle width="150" height="30" as="alternateBounds" />
          </mxGeometry>
        </mxCell>
        <mxCell id="tQOnXve0qwPO33CJhy6B-71" value="" style="shape=tableRow;horizontal=0;startSize=0;swimlaneHead=0;swimlaneBody=0;fillColor=#f5f5f5;collapsible=0;dropTarget=0;points=[[0,0.5],[1,0.5]];portConstraint=eastwest;top=0;left=0;right=0;bottom=0;strokeColor=#666666;fontColor=#333333;strokeWidth=2;rounded=1;fontStyle=1;shadow=0;" parent="tQOnXve0qwPO33CJhy6B-61" vertex="1">
          <mxGeometry y="120" width="180" height="30" as="geometry" />
        </mxCell>
        <mxCell id="tQOnXve0qwPO33CJhy6B-72" value="" style="shape=partialRectangle;connectable=0;fillColor=#f5f5f5;top=0;left=0;bottom=0;right=0;editable=1;overflow=hidden;whiteSpace=wrap;html=1;strokeColor=#666666;fontColor=#333333;strokeWidth=2;rounded=1;fontStyle=1;shadow=0;" parent="tQOnXve0qwPO33CJhy6B-71" vertex="1">
          <mxGeometry width="30" height="30" as="geometry">
            <mxRectangle width="30" height="30" as="alternateBounds" />
          </mxGeometry>
        </mxCell>
        <mxCell id="tQOnXve0qwPO33CJhy6B-73" value="Ngày sinh" style="shape=partialRectangle;connectable=0;fillColor=#f5f5f5;top=0;left=0;bottom=0;right=0;align=left;spacingLeft=6;overflow=hidden;whiteSpace=wrap;html=1;strokeColor=#666666;fontColor=#333333;strokeWidth=2;rounded=1;fontStyle=1;shadow=0;" parent="tQOnXve0qwPO33CJhy6B-71" vertex="1">
          <mxGeometry x="30" width="150" height="30" as="geometry">
            <mxRectangle width="150" height="30" as="alternateBounds" />
          </mxGeometry>
        </mxCell>
        <mxCell id="tQOnXve0qwPO33CJhy6B-74" value="" style="shape=tableRow;horizontal=0;startSize=0;swimlaneHead=0;swimlaneBody=0;fillColor=#f5f5f5;collapsible=0;dropTarget=0;points=[[0,0.5],[1,0.5]];portConstraint=eastwest;top=0;left=0;right=0;bottom=0;strokeColor=#666666;fontColor=#333333;strokeWidth=2;rounded=1;fontStyle=1;shadow=0;" parent="tQOnXve0qwPO33CJhy6B-61" vertex="1">
          <mxGeometry y="150" width="180" height="30" as="geometry" />
        </mxCell>
        <mxCell id="tQOnXve0qwPO33CJhy6B-75" value="" style="shape=partialRectangle;connectable=0;fillColor=#f5f5f5;top=0;left=0;bottom=0;right=0;editable=1;overflow=hidden;whiteSpace=wrap;html=1;strokeColor=#666666;fontColor=#333333;strokeWidth=2;rounded=1;fontStyle=1;shadow=0;" parent="tQOnXve0qwPO33CJhy6B-74" vertex="1">
          <mxGeometry width="30" height="30" as="geometry">
            <mxRectangle width="30" height="30" as="alternateBounds" />
          </mxGeometry>
        </mxCell>
        <mxCell id="tQOnXve0qwPO33CJhy6B-76" value="Số điện thoại" style="shape=partialRectangle;connectable=0;fillColor=#f5f5f5;top=0;left=0;bottom=0;right=0;align=left;spacingLeft=6;overflow=hidden;whiteSpace=wrap;html=1;strokeColor=#666666;fontColor=#333333;strokeWidth=2;rounded=1;fontStyle=1;shadow=0;" parent="tQOnXve0qwPO33CJhy6B-74" vertex="1">
          <mxGeometry x="30" width="150" height="30" as="geometry">
            <mxRectangle width="150" height="30" as="alternateBounds" />
          </mxGeometry>
        </mxCell>
        <mxCell id="tQOnXve0qwPO33CJhy6B-77" value="" style="shape=tableRow;horizontal=0;startSize=0;swimlaneHead=0;swimlaneBody=0;fillColor=#f5f5f5;collapsible=0;dropTarget=0;points=[[0,0.5],[1,0.5]];portConstraint=eastwest;top=0;left=0;right=0;bottom=0;strokeColor=#666666;fontColor=#333333;strokeWidth=2;rounded=1;fontStyle=1;shadow=0;" parent="tQOnXve0qwPO33CJhy6B-61" vertex="1">
          <mxGeometry y="180" width="180" height="30" as="geometry" />
        </mxCell>
        <mxCell id="tQOnXve0qwPO33CJhy6B-78" value="" style="shape=partialRectangle;connectable=0;fillColor=#f5f5f5;top=0;left=0;bottom=0;right=0;editable=1;overflow=hidden;whiteSpace=wrap;html=1;strokeColor=#666666;fontColor=#333333;strokeWidth=2;rounded=1;fontStyle=1;shadow=0;" parent="tQOnXve0qwPO33CJhy6B-77" vertex="1">
          <mxGeometry width="30" height="30" as="geometry">
            <mxRectangle width="30" height="30" as="alternateBounds" />
          </mxGeometry>
        </mxCell>
        <mxCell id="tQOnXve0qwPO33CJhy6B-79" value="ID ngành" style="shape=partialRectangle;connectable=0;fillColor=#f5f5f5;top=0;left=0;bottom=0;right=0;align=left;spacingLeft=6;overflow=hidden;whiteSpace=wrap;html=1;strokeColor=#666666;fontColor=#333333;strokeWidth=2;rounded=1;fontStyle=1;shadow=0;" parent="tQOnXve0qwPO33CJhy6B-77" vertex="1">
          <mxGeometry x="30" width="150" height="30" as="geometry">
            <mxRectangle width="150" height="30" as="alternateBounds" />
          </mxGeometry>
        </mxCell>
        <mxCell id="CFcdtzbTBn9PZgVDuJhA-55" value="" style="shape=tableRow;horizontal=0;startSize=0;swimlaneHead=0;swimlaneBody=0;fillColor=#f5f5f5;collapsible=0;dropTarget=0;points=[[0,0.5],[1,0.5]];portConstraint=eastwest;top=0;left=0;right=0;bottom=0;strokeColor=#666666;fontColor=#333333;strokeWidth=2;rounded=1;fontStyle=1;shadow=0;" parent="tQOnXve0qwPO33CJhy6B-61" vertex="1">
          <mxGeometry y="210" width="180" height="30" as="geometry" />
        </mxCell>
        <mxCell id="CFcdtzbTBn9PZgVDuJhA-56" value="" style="shape=partialRectangle;connectable=0;fillColor=#f5f5f5;top=0;left=0;bottom=0;right=0;editable=1;overflow=hidden;whiteSpace=wrap;html=1;strokeColor=#666666;fontColor=#333333;strokeWidth=2;rounded=1;fontStyle=1;shadow=0;" parent="CFcdtzbTBn9PZgVDuJhA-55" vertex="1">
          <mxGeometry width="30" height="30" as="geometry">
            <mxRectangle width="30" height="30" as="alternateBounds" />
          </mxGeometry>
        </mxCell>
        <mxCell id="CFcdtzbTBn9PZgVDuJhA-57" value="ID trưởng ngành" style="shape=partialRectangle;connectable=0;fillColor=#f5f5f5;top=0;left=0;bottom=0;right=0;align=left;spacingLeft=6;overflow=hidden;whiteSpace=wrap;html=1;strokeColor=#666666;fontColor=#333333;strokeWidth=2;rounded=1;fontStyle=1;shadow=0;" parent="CFcdtzbTBn9PZgVDuJhA-55" vertex="1">
          <mxGeometry x="30" width="150" height="30" as="geometry">
            <mxRectangle width="150" height="30" as="alternateBounds" />
          </mxGeometry>
        </mxCell>
        <mxCell id="tQOnXve0qwPO33CJhy6B-80" value="" style="shape=tableRow;horizontal=0;startSize=0;swimlaneHead=0;swimlaneBody=0;fillColor=#f5f5f5;collapsible=0;dropTarget=0;points=[[0,0.5],[1,0.5]];portConstraint=eastwest;top=0;left=0;right=0;bottom=0;strokeColor=#666666;fontColor=#333333;strokeWidth=2;rounded=1;fontStyle=1;shadow=0;" parent="tQOnXve0qwPO33CJhy6B-61" vertex="1">
          <mxGeometry y="240" width="180" height="30" as="geometry" />
        </mxCell>
        <mxCell id="tQOnXve0qwPO33CJhy6B-81" value="" style="shape=partialRectangle;connectable=0;fillColor=#f5f5f5;top=0;left=0;bottom=0;right=0;editable=1;overflow=hidden;whiteSpace=wrap;html=1;strokeColor=#666666;fontColor=#333333;strokeWidth=2;rounded=1;fontStyle=1;shadow=0;" parent="tQOnXve0qwPO33CJhy6B-80" vertex="1">
          <mxGeometry width="30" height="30" as="geometry">
            <mxRectangle width="30" height="30" as="alternateBounds" />
          </mxGeometry>
        </mxCell>
        <mxCell id="tQOnXve0qwPO33CJhy6B-82" value="Ngày sửa đổi cuối" style="shape=partialRectangle;connectable=0;fillColor=#f5f5f5;top=0;left=0;bottom=0;right=0;align=left;spacingLeft=6;overflow=hidden;whiteSpace=wrap;html=1;strokeColor=#666666;fontColor=#333333;strokeWidth=2;rounded=1;fontStyle=1;shadow=0;" parent="tQOnXve0qwPO33CJhy6B-80" vertex="1">
          <mxGeometry x="30" width="150" height="30" as="geometry">
            <mxRectangle width="150" height="30" as="alternateBounds" />
          </mxGeometry>
        </mxCell>
        <mxCell id="CFcdtzbTBn9PZgVDuJhA-58" value="" style="edgeStyle=orthogonalEdgeStyle;fontSize=12;html=1;endArrow=ERoneToMany;rounded=1;entryX=0.25;entryY=0;entryDx=0;entryDy=0;exitX=0;exitY=0.5;exitDx=0;exitDy=0;fillColor=#008a00;strokeColor=#005700;strokeWidth=2;fontStyle=1;shadow=0;" parent="tQOnXve0qwPO33CJhy6B-61" source="tQOnXve0qwPO33CJhy6B-62" target="tQOnXve0qwPO33CJhy6B-61" edge="1">
          <mxGeometry width="100" height="100" relative="1" as="geometry">
            <mxPoint x="-100" y="60" as="sourcePoint" />
            <mxPoint y="-40" as="targetPoint" />
            <Array as="points">
              <mxPoint x="-40" y="45" />
              <mxPoint x="-40" y="-40" />
              <mxPoint x="45" y="-40" />
            </Array>
          </mxGeometry>
        </mxCell>
        <mxCell id="CFcdtzbTBn9PZgVDuJhA-4" value="&lt;font style=&quot;font-size: 17px;&quot;&gt;&lt;i&gt;Nhân viên&lt;/i&gt;&lt;/font&gt;" style="shape=table;startSize=30;container=1;collapsible=1;childLayout=tableLayout;fixedRows=1;rowLines=0;fontStyle=1;align=center;resizeLast=1;html=1;strokeWidth=2;fillColor=#e51400;strokeColor=#B20000;fontColor=#000000;rounded=0;shadow=0;swimlaneLine=1;" parent="1" vertex="1">
          <mxGeometry x="-690" y="650" width="180" height="360" as="geometry" />
        </mxCell>
        <mxCell id="CFcdtzbTBn9PZgVDuJhA-5" value="" style="shape=tableRow;horizontal=0;startSize=0;swimlaneHead=0;swimlaneBody=0;fillColor=none;collapsible=0;dropTarget=0;points=[[0,0.5],[1,0.5]];portConstraint=eastwest;top=0;left=0;right=0;bottom=1;strokeWidth=2;rounded=1;fontStyle=1;shadow=0;" parent="CFcdtzbTBn9PZgVDuJhA-4" vertex="1">
          <mxGeometry y="30" width="180" height="30" as="geometry" />
        </mxCell>
        <mxCell id="CFcdtzbTBn9PZgVDuJhA-6" value="PK" style="shape=partialRectangle;connectable=0;fillColor=none;top=0;left=0;bottom=0;right=0;fontStyle=1;overflow=hidden;whiteSpace=wrap;html=1;strokeWidth=2;rounded=1;shadow=0;" parent="CFcdtzbTBn9PZgVDuJhA-5" vertex="1">
          <mxGeometry width="30" height="30" as="geometry">
            <mxRectangle width="30" height="30" as="alternateBounds" />
          </mxGeometry>
        </mxCell>
        <mxCell id="CFcdtzbTBn9PZgVDuJhA-7" value="ID nhân viên" style="shape=partialRectangle;connectable=0;fillColor=none;top=0;left=0;bottom=0;right=0;align=left;spacingLeft=6;fontStyle=5;overflow=hidden;whiteSpace=wrap;html=1;strokeWidth=2;rounded=1;shadow=0;" parent="CFcdtzbTBn9PZgVDuJhA-5" vertex="1">
          <mxGeometry x="30" width="150" height="30" as="geometry">
            <mxRectangle width="150" height="30" as="alternateBounds" />
          </mxGeometry>
        </mxCell>
        <mxCell id="CFcdtzbTBn9PZgVDuJhA-8" value="" style="shape=tableRow;horizontal=0;startSize=0;swimlaneHead=0;swimlaneBody=0;fillColor=none;collapsible=0;dropTarget=0;points=[[0,0.5],[1,0.5]];portConstraint=eastwest;top=0;left=0;right=0;bottom=0;strokeWidth=2;rounded=1;fontStyle=1;shadow=0;" parent="CFcdtzbTBn9PZgVDuJhA-4" vertex="1">
          <mxGeometry y="60" width="180" height="30" as="geometry" />
        </mxCell>
        <mxCell id="CFcdtzbTBn9PZgVDuJhA-9" value="" style="shape=partialRectangle;connectable=0;fillColor=none;top=0;left=0;bottom=0;right=0;editable=1;overflow=hidden;whiteSpace=wrap;html=1;strokeWidth=2;rounded=1;fontStyle=1;shadow=0;" parent="CFcdtzbTBn9PZgVDuJhA-8" vertex="1">
          <mxGeometry width="30" height="30" as="geometry">
            <mxRectangle width="30" height="30" as="alternateBounds" />
          </mxGeometry>
        </mxCell>
        <mxCell id="CFcdtzbTBn9PZgVDuJhA-10" value="Tên nhân viên" style="shape=partialRectangle;connectable=0;fillColor=none;top=0;left=0;bottom=0;right=0;align=left;spacingLeft=6;overflow=hidden;whiteSpace=wrap;html=1;strokeWidth=2;rounded=1;fontStyle=1;shadow=0;" parent="CFcdtzbTBn9PZgVDuJhA-8" vertex="1">
          <mxGeometry x="30" width="150" height="30" as="geometry">
            <mxRectangle width="150" height="30" as="alternateBounds" />
          </mxGeometry>
        </mxCell>
        <mxCell id="CFcdtzbTBn9PZgVDuJhA-11" value="" style="shape=tableRow;horizontal=0;startSize=0;swimlaneHead=0;swimlaneBody=0;fillColor=none;collapsible=0;dropTarget=0;points=[[0,0.5],[1,0.5]];portConstraint=eastwest;top=0;left=0;right=0;bottom=0;strokeWidth=2;rounded=1;fontStyle=1;shadow=0;" parent="CFcdtzbTBn9PZgVDuJhA-4" vertex="1">
          <mxGeometry y="90" width="180" height="30" as="geometry" />
        </mxCell>
        <mxCell id="CFcdtzbTBn9PZgVDuJhA-12" value="" style="shape=partialRectangle;connectable=0;fillColor=none;top=0;left=0;bottom=0;right=0;editable=1;overflow=hidden;whiteSpace=wrap;html=1;strokeWidth=2;rounded=1;fontStyle=1;shadow=0;" parent="CFcdtzbTBn9PZgVDuJhA-11" vertex="1">
          <mxGeometry width="30" height="30" as="geometry">
            <mxRectangle width="30" height="30" as="alternateBounds" />
          </mxGeometry>
        </mxCell>
        <mxCell id="CFcdtzbTBn9PZgVDuJhA-13" value="Email" style="shape=partialRectangle;connectable=0;fillColor=none;top=0;left=0;bottom=0;right=0;align=left;spacingLeft=6;overflow=hidden;whiteSpace=wrap;html=1;strokeWidth=2;rounded=1;fontStyle=1;shadow=0;" parent="CFcdtzbTBn9PZgVDuJhA-11" vertex="1">
          <mxGeometry x="30" width="150" height="30" as="geometry">
            <mxRectangle width="150" height="30" as="alternateBounds" />
          </mxGeometry>
        </mxCell>
        <mxCell id="CFcdtzbTBn9PZgVDuJhA-31" value="" style="shape=tableRow;horizontal=0;startSize=0;swimlaneHead=0;swimlaneBody=0;fillColor=none;collapsible=0;dropTarget=0;points=[[0,0.5],[1,0.5]];portConstraint=eastwest;top=0;left=0;right=0;bottom=0;strokeWidth=2;rounded=1;fontStyle=1;shadow=0;" parent="CFcdtzbTBn9PZgVDuJhA-4" vertex="1">
          <mxGeometry y="120" width="180" height="30" as="geometry" />
        </mxCell>
        <mxCell id="CFcdtzbTBn9PZgVDuJhA-32" value="" style="shape=partialRectangle;connectable=0;fillColor=none;top=0;left=0;bottom=0;right=0;editable=1;overflow=hidden;whiteSpace=wrap;html=1;strokeWidth=2;rounded=1;fontStyle=1;shadow=0;" parent="CFcdtzbTBn9PZgVDuJhA-31" vertex="1">
          <mxGeometry width="30" height="30" as="geometry">
            <mxRectangle width="30" height="30" as="alternateBounds" />
          </mxGeometry>
        </mxCell>
        <mxCell id="CFcdtzbTBn9PZgVDuJhA-33" value="Ngày sinh" style="shape=partialRectangle;connectable=0;fillColor=none;top=0;left=0;bottom=0;right=0;align=left;spacingLeft=6;overflow=hidden;whiteSpace=wrap;html=1;strokeWidth=2;rounded=1;fontStyle=1;shadow=0;" parent="CFcdtzbTBn9PZgVDuJhA-31" vertex="1">
          <mxGeometry x="30" width="150" height="30" as="geometry">
            <mxRectangle width="150" height="30" as="alternateBounds" />
          </mxGeometry>
        </mxCell>
        <mxCell id="CFcdtzbTBn9PZgVDuJhA-34" value="" style="shape=tableRow;horizontal=0;startSize=0;swimlaneHead=0;swimlaneBody=0;fillColor=none;collapsible=0;dropTarget=0;points=[[0,0.5],[1,0.5]];portConstraint=eastwest;top=0;left=0;right=0;bottom=0;strokeWidth=2;rounded=1;fontStyle=1;shadow=0;" parent="CFcdtzbTBn9PZgVDuJhA-4" vertex="1">
          <mxGeometry y="150" width="180" height="30" as="geometry" />
        </mxCell>
        <mxCell id="CFcdtzbTBn9PZgVDuJhA-35" value="" style="shape=partialRectangle;connectable=0;fillColor=none;top=0;left=0;bottom=0;right=0;editable=1;overflow=hidden;whiteSpace=wrap;html=1;strokeWidth=2;rounded=1;fontStyle=1;shadow=0;" parent="CFcdtzbTBn9PZgVDuJhA-34" vertex="1">
          <mxGeometry width="30" height="30" as="geometry">
            <mxRectangle width="30" height="30" as="alternateBounds" />
          </mxGeometry>
        </mxCell>
        <mxCell id="CFcdtzbTBn9PZgVDuJhA-36" value="Số điện thoại" style="shape=partialRectangle;connectable=0;fillColor=none;top=0;left=0;bottom=0;right=0;align=left;spacingLeft=6;overflow=hidden;whiteSpace=wrap;html=1;strokeWidth=2;rounded=1;fontStyle=1;shadow=0;" parent="CFcdtzbTBn9PZgVDuJhA-34" vertex="1">
          <mxGeometry x="30" width="150" height="30" as="geometry">
            <mxRectangle width="150" height="30" as="alternateBounds" />
          </mxGeometry>
        </mxCell>
        <mxCell id="CFcdtzbTBn9PZgVDuJhA-37" value="" style="shape=tableRow;horizontal=0;startSize=0;swimlaneHead=0;swimlaneBody=0;fillColor=none;collapsible=0;dropTarget=0;points=[[0,0.5],[1,0.5]];portConstraint=eastwest;top=0;left=0;right=0;bottom=0;strokeWidth=2;rounded=1;fontStyle=1;shadow=0;" parent="CFcdtzbTBn9PZgVDuJhA-4" vertex="1">
          <mxGeometry y="180" width="180" height="30" as="geometry" />
        </mxCell>
        <mxCell id="CFcdtzbTBn9PZgVDuJhA-38" value="" style="shape=partialRectangle;connectable=0;fillColor=none;top=0;left=0;bottom=0;right=0;editable=1;overflow=hidden;whiteSpace=wrap;html=1;strokeWidth=2;rounded=1;fontStyle=1;shadow=0;" parent="CFcdtzbTBn9PZgVDuJhA-37" vertex="1">
          <mxGeometry width="30" height="30" as="geometry">
            <mxRectangle width="30" height="30" as="alternateBounds" />
          </mxGeometry>
        </mxCell>
        <mxCell id="CFcdtzbTBn9PZgVDuJhA-39" value="Tỉnh, Thành phố" style="shape=partialRectangle;connectable=0;fillColor=none;top=0;left=0;bottom=0;right=0;align=left;spacingLeft=6;overflow=hidden;whiteSpace=wrap;html=1;strokeWidth=2;rounded=1;fontStyle=1;shadow=0;" parent="CFcdtzbTBn9PZgVDuJhA-37" vertex="1">
          <mxGeometry x="30" width="150" height="30" as="geometry">
            <mxRectangle width="150" height="30" as="alternateBounds" />
          </mxGeometry>
        </mxCell>
        <mxCell id="CFcdtzbTBn9PZgVDuJhA-40" value="" style="shape=tableRow;horizontal=0;startSize=0;swimlaneHead=0;swimlaneBody=0;fillColor=none;collapsible=0;dropTarget=0;points=[[0,0.5],[1,0.5]];portConstraint=eastwest;top=0;left=0;right=0;bottom=0;strokeWidth=2;rounded=1;fontStyle=1;shadow=0;" parent="CFcdtzbTBn9PZgVDuJhA-4" vertex="1">
          <mxGeometry y="210" width="180" height="30" as="geometry" />
        </mxCell>
        <mxCell id="CFcdtzbTBn9PZgVDuJhA-41" value="" style="shape=partialRectangle;connectable=0;fillColor=none;top=0;left=0;bottom=0;right=0;editable=1;overflow=hidden;whiteSpace=wrap;html=1;strokeWidth=2;rounded=1;fontStyle=1;shadow=0;" parent="CFcdtzbTBn9PZgVDuJhA-40" vertex="1">
          <mxGeometry width="30" height="30" as="geometry">
            <mxRectangle width="30" height="30" as="alternateBounds" />
          </mxGeometry>
        </mxCell>
        <mxCell id="CFcdtzbTBn9PZgVDuJhA-42" value="Chức vụ" style="shape=partialRectangle;connectable=0;fillColor=none;top=0;left=0;bottom=0;right=0;align=left;spacingLeft=6;overflow=hidden;whiteSpace=wrap;html=1;strokeWidth=2;rounded=1;fontStyle=1;shadow=0;" parent="CFcdtzbTBn9PZgVDuJhA-40" vertex="1">
          <mxGeometry x="30" width="150" height="30" as="geometry">
            <mxRectangle width="150" height="30" as="alternateBounds" />
          </mxGeometry>
        </mxCell>
        <mxCell id="CFcdtzbTBn9PZgVDuJhA-43" value="" style="shape=tableRow;horizontal=0;startSize=0;swimlaneHead=0;swimlaneBody=0;fillColor=none;collapsible=0;dropTarget=0;points=[[0,0.5],[1,0.5]];portConstraint=eastwest;top=0;left=0;right=0;bottom=0;strokeWidth=2;rounded=1;fontStyle=1;shadow=0;" parent="CFcdtzbTBn9PZgVDuJhA-4" vertex="1">
          <mxGeometry y="240" width="180" height="30" as="geometry" />
        </mxCell>
        <mxCell id="CFcdtzbTBn9PZgVDuJhA-44" value="" style="shape=partialRectangle;connectable=0;fillColor=none;top=0;left=0;bottom=0;right=0;editable=1;overflow=hidden;whiteSpace=wrap;html=1;strokeWidth=2;rounded=1;fontStyle=1;shadow=0;" parent="CFcdtzbTBn9PZgVDuJhA-43" vertex="1">
          <mxGeometry width="30" height="30" as="geometry">
            <mxRectangle width="30" height="30" as="alternateBounds" />
          </mxGeometry>
        </mxCell>
        <mxCell id="CFcdtzbTBn9PZgVDuJhA-45" value="Báo cáo tới" style="shape=partialRectangle;connectable=0;fillColor=none;top=0;left=0;bottom=0;right=0;align=left;spacingLeft=6;overflow=hidden;whiteSpace=wrap;html=1;strokeWidth=2;rounded=1;fontStyle=1;shadow=0;" parent="CFcdtzbTBn9PZgVDuJhA-43" vertex="1">
          <mxGeometry x="30" width="150" height="30" as="geometry">
            <mxRectangle width="150" height="30" as="alternateBounds" />
          </mxGeometry>
        </mxCell>
        <mxCell id="IWIqAQeaE0l4H3r7YwF_-16" value="" style="shape=tableRow;horizontal=0;startSize=0;swimlaneHead=0;swimlaneBody=0;fillColor=none;collapsible=0;dropTarget=0;points=[[0,0.5],[1,0.5]];portConstraint=eastwest;top=0;left=0;right=0;bottom=0;strokeWidth=2;rounded=1;fontStyle=1;shadow=0;" parent="CFcdtzbTBn9PZgVDuJhA-4" vertex="1">
          <mxGeometry y="270" width="180" height="30" as="geometry" />
        </mxCell>
        <mxCell id="IWIqAQeaE0l4H3r7YwF_-17" value="" style="shape=partialRectangle;connectable=0;fillColor=none;top=0;left=0;bottom=0;right=0;editable=1;overflow=hidden;whiteSpace=wrap;html=1;strokeWidth=2;rounded=1;fontStyle=1;shadow=0;" parent="IWIqAQeaE0l4H3r7YwF_-16" vertex="1">
          <mxGeometry width="30" height="30" as="geometry">
            <mxRectangle width="30" height="30" as="alternateBounds" />
          </mxGeometry>
        </mxCell>
        <mxCell id="IWIqAQeaE0l4H3r7YwF_-18" value="Ngày sửa đổi cuối" style="shape=partialRectangle;connectable=0;fillColor=none;top=0;left=0;bottom=0;right=0;align=left;spacingLeft=6;overflow=hidden;whiteSpace=wrap;html=1;strokeWidth=2;rounded=1;fontStyle=1;shadow=0;" parent="IWIqAQeaE0l4H3r7YwF_-16" vertex="1">
          <mxGeometry x="30" width="150" height="30" as="geometry">
            <mxRectangle width="150" height="30" as="alternateBounds" />
          </mxGeometry>
        </mxCell>
        <mxCell id="CFcdtzbTBn9PZgVDuJhA-46" value="" style="shape=tableRow;horizontal=0;startSize=0;swimlaneHead=0;swimlaneBody=0;fillColor=none;collapsible=0;dropTarget=0;points=[[0,0.5],[1,0.5]];portConstraint=eastwest;top=0;left=0;right=0;bottom=0;strokeWidth=2;rounded=1;fontStyle=1;shadow=0;" parent="CFcdtzbTBn9PZgVDuJhA-4" vertex="1">
          <mxGeometry y="300" width="180" height="30" as="geometry" />
        </mxCell>
        <mxCell id="CFcdtzbTBn9PZgVDuJhA-47" value="" style="shape=partialRectangle;connectable=0;fillColor=none;top=0;left=0;bottom=0;right=0;editable=1;overflow=hidden;whiteSpace=wrap;html=1;strokeWidth=2;rounded=1;fontStyle=1;shadow=0;" parent="CFcdtzbTBn9PZgVDuJhA-46" vertex="1">
          <mxGeometry width="30" height="30" as="geometry">
            <mxRectangle width="30" height="30" as="alternateBounds" />
          </mxGeometry>
        </mxCell>
        <mxCell id="CFcdtzbTBn9PZgVDuJhA-48" value="Mô tả" style="shape=partialRectangle;connectable=0;fillColor=none;top=0;left=0;bottom=0;right=0;align=left;spacingLeft=6;overflow=hidden;whiteSpace=wrap;html=1;strokeWidth=2;rounded=1;fontStyle=1;shadow=0;" parent="CFcdtzbTBn9PZgVDuJhA-46" vertex="1">
          <mxGeometry x="30" width="150" height="30" as="geometry">
            <mxRectangle width="150" height="30" as="alternateBounds" />
          </mxGeometry>
        </mxCell>
        <mxCell id="CFcdtzbTBn9PZgVDuJhA-14" value="" style="shape=tableRow;horizontal=0;startSize=0;swimlaneHead=0;swimlaneBody=0;fillColor=none;collapsible=0;dropTarget=0;points=[[0,0.5],[1,0.5]];portConstraint=eastwest;top=0;left=0;right=0;bottom=0;strokeWidth=2;rounded=1;fontStyle=1;shadow=0;" parent="CFcdtzbTBn9PZgVDuJhA-4" vertex="1">
          <mxGeometry y="330" width="180" height="30" as="geometry" />
        </mxCell>
        <mxCell id="CFcdtzbTBn9PZgVDuJhA-15" value="" style="shape=partialRectangle;connectable=0;fillColor=none;top=0;left=0;bottom=0;right=0;editable=1;overflow=hidden;whiteSpace=wrap;html=1;strokeWidth=2;rounded=1;fontStyle=1;shadow=0;" parent="CFcdtzbTBn9PZgVDuJhA-14" vertex="1">
          <mxGeometry width="30" height="30" as="geometry">
            <mxRectangle width="30" height="30" as="alternateBounds" />
          </mxGeometry>
        </mxCell>
        <mxCell id="CFcdtzbTBn9PZgVDuJhA-16" value="Ảnh" style="shape=partialRectangle;connectable=0;fillColor=none;top=0;left=0;bottom=0;right=0;align=left;spacingLeft=6;overflow=hidden;whiteSpace=wrap;html=1;strokeWidth=2;rounded=1;fontStyle=1;shadow=0;" parent="CFcdtzbTBn9PZgVDuJhA-14" vertex="1">
          <mxGeometry x="30" width="150" height="30" as="geometry">
            <mxRectangle width="150" height="30" as="alternateBounds" />
          </mxGeometry>
        </mxCell>
        <mxCell id="CFcdtzbTBn9PZgVDuJhA-49" value="" style="edgeStyle=orthogonalEdgeStyle;fontSize=12;html=1;endArrow=ERoneToMany;rounded=1;entryX=0.219;entryY=-0.002;entryDx=0;entryDy=0;entryPerimeter=0;exitX=0;exitY=0.5;exitDx=0;exitDy=0;strokeWidth=2;fillColor=#e51400;strokeColor=#B20000;fontStyle=1;shadow=0;" parent="CFcdtzbTBn9PZgVDuJhA-4" source="CFcdtzbTBn9PZgVDuJhA-5" target="CFcdtzbTBn9PZgVDuJhA-4" edge="1">
          <mxGeometry width="100" height="100" relative="1" as="geometry">
            <mxPoint x="-140" y="110" as="sourcePoint" />
            <mxPoint x="-40" y="10" as="targetPoint" />
            <Array as="points">
              <mxPoint x="-30" y="45" />
              <mxPoint x="-30" y="-20" />
              <mxPoint x="39" y="-20" />
            </Array>
          </mxGeometry>
        </mxCell>
        <mxCell id="CFcdtzbTBn9PZgVDuJhA-21" value="" style="fontSize=12;html=1;endArrow=ERoneToMany;rounded=1;exitX=1;exitY=0.25;exitDx=0;exitDy=0;entryX=-0.006;entryY=0.359;entryDx=0;entryDy=0;entryPerimeter=0;fillColor=#fa6800;strokeColor=#C73500;edgeStyle=orthogonalEdgeStyle;strokeWidth=2;fontStyle=1;shadow=0;" parent="1" source="CDnV8Uc_9sDUrMYhlKRL-12" target="tQOnXve0qwPO33CJhy6B-113" edge="1">
          <mxGeometry width="100" height="100" relative="1" as="geometry">
            <mxPoint x="-260" y="-125" as="sourcePoint" />
            <mxPoint x="-441" y="361" as="targetPoint" />
            <Array as="points">
              <mxPoint x="-470" y="-145" />
              <mxPoint x="-470" y="-100" />
            </Array>
          </mxGeometry>
        </mxCell>
        <mxCell id="tQOnXve0qwPO33CJhy6B-113" value="&lt;font style=&quot;font-size: 17px;&quot;&gt;&lt;i&gt;Lớp học&lt;/i&gt;&lt;/font&gt;" style="shape=table;startSize=30;container=1;collapsible=1;childLayout=tableLayout;fixedRows=1;rowLines=0;fontStyle=1;align=center;resizeLast=1;html=1;fillColor=#fa6800;strokeColor=#C73500;fontColor=#000000;strokeWidth=2;rounded=0;shadow=0;swimlaneLine=1;" parent="1" vertex="1">
          <mxGeometry x="-390" y="-175" width="180" height="210" as="geometry" />
        </mxCell>
        <mxCell id="tQOnXve0qwPO33CJhy6B-114" value="" style="shape=tableRow;horizontal=0;startSize=0;swimlaneHead=0;swimlaneBody=0;fillColor=#f5f5f5;collapsible=0;dropTarget=0;points=[[0,0.5],[1,0.5]];portConstraint=eastwest;top=0;left=0;right=0;bottom=1;strokeColor=#666666;fontColor=#333333;strokeWidth=2;rounded=1;fontStyle=1;shadow=0;" parent="tQOnXve0qwPO33CJhy6B-113" vertex="1">
          <mxGeometry y="30" width="180" height="30" as="geometry" />
        </mxCell>
        <mxCell id="tQOnXve0qwPO33CJhy6B-115" value="PK" style="shape=partialRectangle;connectable=0;fillColor=#f5f5f5;top=0;left=0;bottom=0;right=0;fontStyle=1;overflow=hidden;whiteSpace=wrap;html=1;strokeColor=#666666;fontColor=#333333;strokeWidth=2;rounded=1;shadow=0;" parent="tQOnXve0qwPO33CJhy6B-114" vertex="1">
          <mxGeometry width="30" height="30" as="geometry">
            <mxRectangle width="30" height="30" as="alternateBounds" />
          </mxGeometry>
        </mxCell>
        <mxCell id="tQOnXve0qwPO33CJhy6B-116" value="ID Lớp học" style="shape=partialRectangle;connectable=0;fillColor=#f5f5f5;top=0;left=0;bottom=0;right=0;align=left;spacingLeft=6;fontStyle=5;overflow=hidden;whiteSpace=wrap;html=1;strokeColor=#666666;fontColor=#333333;strokeWidth=2;rounded=1;shadow=0;" parent="tQOnXve0qwPO33CJhy6B-114" vertex="1">
          <mxGeometry x="30" width="150" height="30" as="geometry">
            <mxRectangle width="150" height="30" as="alternateBounds" />
          </mxGeometry>
        </mxCell>
        <mxCell id="tQOnXve0qwPO33CJhy6B-117" value="" style="shape=tableRow;horizontal=0;startSize=0;swimlaneHead=0;swimlaneBody=0;fillColor=#f5f5f5;collapsible=0;dropTarget=0;points=[[0,0.5],[1,0.5]];portConstraint=eastwest;top=0;left=0;right=0;bottom=0;strokeColor=#666666;fontColor=#333333;strokeWidth=2;rounded=1;fontStyle=1;shadow=0;" parent="tQOnXve0qwPO33CJhy6B-113" vertex="1">
          <mxGeometry y="60" width="180" height="30" as="geometry" />
        </mxCell>
        <mxCell id="tQOnXve0qwPO33CJhy6B-118" value="" style="shape=partialRectangle;connectable=0;fillColor=#f5f5f5;top=0;left=0;bottom=0;right=0;editable=1;overflow=hidden;whiteSpace=wrap;html=1;strokeColor=#666666;fontColor=#333333;strokeWidth=2;rounded=1;fontStyle=1;shadow=0;" parent="tQOnXve0qwPO33CJhy6B-117" vertex="1">
          <mxGeometry width="30" height="30" as="geometry">
            <mxRectangle width="30" height="30" as="alternateBounds" />
          </mxGeometry>
        </mxCell>
        <mxCell id="tQOnXve0qwPO33CJhy6B-119" value="ID ngành" style="shape=partialRectangle;connectable=0;fillColor=#f5f5f5;top=0;left=0;bottom=0;right=0;align=left;spacingLeft=6;overflow=hidden;whiteSpace=wrap;html=1;strokeColor=#666666;fontColor=#333333;strokeWidth=2;rounded=1;fontStyle=1;shadow=0;" parent="tQOnXve0qwPO33CJhy6B-117" vertex="1">
          <mxGeometry x="30" width="150" height="30" as="geometry">
            <mxRectangle width="150" height="30" as="alternateBounds" />
          </mxGeometry>
        </mxCell>
        <mxCell id="CDnV8Uc_9sDUrMYhlKRL-31" value="" style="shape=tableRow;horizontal=0;startSize=0;swimlaneHead=0;swimlaneBody=0;fillColor=#f5f5f5;collapsible=0;dropTarget=0;points=[[0,0.5],[1,0.5]];portConstraint=eastwest;top=0;left=0;right=0;bottom=0;strokeColor=#666666;fontColor=#333333;strokeWidth=2;rounded=1;fontStyle=1;shadow=0;" parent="tQOnXve0qwPO33CJhy6B-113" vertex="1">
          <mxGeometry y="90" width="180" height="30" as="geometry" />
        </mxCell>
        <mxCell id="CDnV8Uc_9sDUrMYhlKRL-32" value="" style="shape=partialRectangle;connectable=0;fillColor=#f5f5f5;top=0;left=0;bottom=0;right=0;editable=1;overflow=hidden;whiteSpace=wrap;html=1;strokeColor=#666666;fontColor=#333333;strokeWidth=2;rounded=1;fontStyle=1;shadow=0;" parent="CDnV8Uc_9sDUrMYhlKRL-31" vertex="1">
          <mxGeometry width="30" height="30" as="geometry">
            <mxRectangle width="30" height="30" as="alternateBounds" />
          </mxGeometry>
        </mxCell>
        <mxCell id="CDnV8Uc_9sDUrMYhlKRL-33" value="ID ngành hẹp" style="shape=partialRectangle;connectable=0;fillColor=#f5f5f5;top=0;left=0;bottom=0;right=0;align=left;spacingLeft=6;overflow=hidden;whiteSpace=wrap;html=1;strokeColor=#666666;fontColor=#333333;strokeWidth=2;rounded=1;fontStyle=1;shadow=0;" parent="CDnV8Uc_9sDUrMYhlKRL-31" vertex="1">
          <mxGeometry x="30" width="150" height="30" as="geometry">
            <mxRectangle width="150" height="30" as="alternateBounds" />
          </mxGeometry>
        </mxCell>
        <mxCell id="CDnV8Uc_9sDUrMYhlKRL-34" value="" style="shape=tableRow;horizontal=0;startSize=0;swimlaneHead=0;swimlaneBody=0;fillColor=#f5f5f5;collapsible=0;dropTarget=0;points=[[0,0.5],[1,0.5]];portConstraint=eastwest;top=0;left=0;right=0;bottom=0;strokeColor=#666666;fontColor=#333333;strokeWidth=2;rounded=1;fontStyle=1;shadow=0;" parent="tQOnXve0qwPO33CJhy6B-113" vertex="1">
          <mxGeometry y="120" width="180" height="30" as="geometry" />
        </mxCell>
        <mxCell id="CDnV8Uc_9sDUrMYhlKRL-35" value="" style="shape=partialRectangle;connectable=0;fillColor=#f5f5f5;top=0;left=0;bottom=0;right=0;editable=1;overflow=hidden;whiteSpace=wrap;html=1;strokeColor=#666666;fontColor=#333333;strokeWidth=2;rounded=1;fontStyle=1;shadow=0;" parent="CDnV8Uc_9sDUrMYhlKRL-34" vertex="1">
          <mxGeometry width="30" height="30" as="geometry">
            <mxRectangle width="30" height="30" as="alternateBounds" />
          </mxGeometry>
        </mxCell>
        <mxCell id="CDnV8Uc_9sDUrMYhlKRL-36" value="Khóa" style="shape=partialRectangle;connectable=0;fillColor=#f5f5f5;top=0;left=0;bottom=0;right=0;align=left;spacingLeft=6;overflow=hidden;whiteSpace=wrap;html=1;strokeColor=#666666;fontColor=#333333;strokeWidth=2;rounded=1;fontStyle=1;shadow=0;" parent="CDnV8Uc_9sDUrMYhlKRL-34" vertex="1">
          <mxGeometry x="30" width="150" height="30" as="geometry">
            <mxRectangle width="150" height="30" as="alternateBounds" />
          </mxGeometry>
        </mxCell>
        <mxCell id="tQOnXve0qwPO33CJhy6B-120" value="" style="shape=tableRow;horizontal=0;startSize=0;swimlaneHead=0;swimlaneBody=0;fillColor=#f5f5f5;collapsible=0;dropTarget=0;points=[[0,0.5],[1,0.5]];portConstraint=eastwest;top=0;left=0;right=0;bottom=0;strokeColor=#666666;fontColor=#333333;strokeWidth=2;rounded=1;fontStyle=1;shadow=0;" parent="tQOnXve0qwPO33CJhy6B-113" vertex="1">
          <mxGeometry y="150" width="180" height="30" as="geometry" />
        </mxCell>
        <mxCell id="tQOnXve0qwPO33CJhy6B-121" value="" style="shape=partialRectangle;connectable=0;fillColor=#f5f5f5;top=0;left=0;bottom=0;right=0;editable=1;overflow=hidden;whiteSpace=wrap;html=1;strokeColor=#666666;fontColor=#333333;strokeWidth=2;rounded=1;fontStyle=1;shadow=0;" parent="tQOnXve0qwPO33CJhy6B-120" vertex="1">
          <mxGeometry width="30" height="30" as="geometry">
            <mxRectangle width="30" height="30" as="alternateBounds" />
          </mxGeometry>
        </mxCell>
        <mxCell id="tQOnXve0qwPO33CJhy6B-122" value="Ngày chỉnh sửa cuối" style="shape=partialRectangle;connectable=0;fillColor=#f5f5f5;top=0;left=0;bottom=0;right=0;align=left;spacingLeft=6;overflow=hidden;whiteSpace=wrap;html=1;strokeColor=#666666;fontColor=#333333;strokeWidth=2;rounded=1;fontStyle=1;shadow=0;" parent="tQOnXve0qwPO33CJhy6B-120" vertex="1">
          <mxGeometry x="30" width="150" height="30" as="geometry">
            <mxRectangle width="150" height="30" as="alternateBounds" />
          </mxGeometry>
        </mxCell>
        <mxCell id="tQOnXve0qwPO33CJhy6B-123" value="" style="shape=tableRow;horizontal=0;startSize=0;swimlaneHead=0;swimlaneBody=0;fillColor=#f5f5f5;collapsible=0;dropTarget=0;points=[[0,0.5],[1,0.5]];portConstraint=eastwest;top=0;left=0;right=0;bottom=0;strokeColor=#666666;fontColor=#333333;strokeWidth=2;rounded=1;fontStyle=1;shadow=0;" parent="tQOnXve0qwPO33CJhy6B-113" vertex="1">
          <mxGeometry y="180" width="180" height="30" as="geometry" />
        </mxCell>
        <mxCell id="tQOnXve0qwPO33CJhy6B-124" value="" style="shape=partialRectangle;connectable=0;fillColor=#f5f5f5;top=0;left=0;bottom=0;right=0;editable=1;overflow=hidden;whiteSpace=wrap;html=1;strokeColor=#666666;fontColor=#333333;strokeWidth=2;rounded=1;fontStyle=1;shadow=0;" parent="tQOnXve0qwPO33CJhy6B-123" vertex="1">
          <mxGeometry width="30" height="30" as="geometry">
            <mxRectangle width="30" height="30" as="alternateBounds" />
          </mxGeometry>
        </mxCell>
        <mxCell id="tQOnXve0qwPO33CJhy6B-125" value="Mô tả" style="shape=partialRectangle;connectable=0;fillColor=#f5f5f5;top=0;left=0;bottom=0;right=0;align=left;spacingLeft=6;overflow=hidden;whiteSpace=wrap;html=1;strokeColor=#666666;fontColor=#333333;strokeWidth=2;rounded=1;fontStyle=1;shadow=0;" parent="tQOnXve0qwPO33CJhy6B-123" vertex="1">
          <mxGeometry x="30" width="150" height="30" as="geometry">
            <mxRectangle width="150" height="30" as="alternateBounds" />
          </mxGeometry>
        </mxCell>
        <mxCell id="tQOnXve0qwPO33CJhy6B-161" value="&lt;font style=&quot;font-size: 17px;&quot; color=&quot;#000000&quot;&gt;&lt;i&gt;Điểm danh&lt;/i&gt;&lt;/font&gt;" style="shape=table;startSize=30;container=1;collapsible=1;childLayout=tableLayout;fixedRows=1;rowLines=0;fontStyle=1;align=center;resizeLast=1;html=1;fillColor=#6a00ff;strokeColor=#3700CC;fontColor=#ffffff;strokeWidth=2;rounded=0;shadow=0;swimlaneLine=1;" parent="1" vertex="1">
          <mxGeometry x="50" y="585" width="180" height="180" as="geometry" />
        </mxCell>
        <mxCell id="tQOnXve0qwPO33CJhy6B-162" value="" style="shape=tableRow;horizontal=0;startSize=0;swimlaneHead=0;swimlaneBody=0;fillColor=#f5f5f5;collapsible=0;dropTarget=0;points=[[0,0.5],[1,0.5]];portConstraint=eastwest;top=0;left=0;right=0;bottom=1;strokeColor=#666666;fontColor=#333333;strokeWidth=2;rounded=1;fontStyle=1;shadow=0;" parent="tQOnXve0qwPO33CJhy6B-161" vertex="1">
          <mxGeometry y="30" width="180" height="30" as="geometry" />
        </mxCell>
        <mxCell id="tQOnXve0qwPO33CJhy6B-163" value="PK" style="shape=partialRectangle;connectable=0;fillColor=#f5f5f5;top=0;left=0;bottom=0;right=0;fontStyle=1;overflow=hidden;whiteSpace=wrap;html=1;strokeColor=#666666;fontColor=#333333;strokeWidth=2;rounded=1;shadow=0;" parent="tQOnXve0qwPO33CJhy6B-162" vertex="1">
          <mxGeometry width="30" height="30" as="geometry">
            <mxRectangle width="30" height="30" as="alternateBounds" />
          </mxGeometry>
        </mxCell>
        <mxCell id="tQOnXve0qwPO33CJhy6B-164" value="ID Điểm danh" style="shape=partialRectangle;connectable=0;fillColor=#f5f5f5;top=0;left=0;bottom=0;right=0;align=left;spacingLeft=6;fontStyle=5;overflow=hidden;whiteSpace=wrap;html=1;strokeColor=#666666;fontColor=#333333;strokeWidth=2;rounded=1;shadow=0;" parent="tQOnXve0qwPO33CJhy6B-162" vertex="1">
          <mxGeometry x="30" width="150" height="30" as="geometry">
            <mxRectangle width="150" height="30" as="alternateBounds" />
          </mxGeometry>
        </mxCell>
        <mxCell id="tQOnXve0qwPO33CJhy6B-165" value="" style="shape=tableRow;horizontal=0;startSize=0;swimlaneHead=0;swimlaneBody=0;fillColor=#f5f5f5;collapsible=0;dropTarget=0;points=[[0,0.5],[1,0.5]];portConstraint=eastwest;top=0;left=0;right=0;bottom=0;strokeColor=#666666;fontColor=#333333;strokeWidth=2;rounded=1;fontStyle=1;shadow=0;" parent="tQOnXve0qwPO33CJhy6B-161" vertex="1">
          <mxGeometry y="60" width="180" height="30" as="geometry" />
        </mxCell>
        <mxCell id="tQOnXve0qwPO33CJhy6B-166" value="FK" style="shape=partialRectangle;connectable=0;fillColor=#f5f5f5;top=0;left=0;bottom=0;right=0;editable=1;overflow=hidden;whiteSpace=wrap;html=1;strokeColor=#666666;fontColor=#333333;strokeWidth=2;rounded=1;fontStyle=1;shadow=0;" parent="tQOnXve0qwPO33CJhy6B-165" vertex="1">
          <mxGeometry width="30" height="30" as="geometry">
            <mxRectangle width="30" height="30" as="alternateBounds" />
          </mxGeometry>
        </mxCell>
        <mxCell id="tQOnXve0qwPO33CJhy6B-167" value="ID Phân công" style="shape=partialRectangle;connectable=0;fillColor=#f5f5f5;top=0;left=0;bottom=0;right=0;align=left;spacingLeft=6;overflow=hidden;whiteSpace=wrap;html=1;strokeColor=#666666;fontColor=#333333;strokeWidth=2;rounded=1;fontStyle=1;shadow=0;" parent="tQOnXve0qwPO33CJhy6B-165" vertex="1">
          <mxGeometry x="30" width="150" height="30" as="geometry">
            <mxRectangle width="150" height="30" as="alternateBounds" />
          </mxGeometry>
        </mxCell>
        <mxCell id="tQOnXve0qwPO33CJhy6B-168" value="" style="shape=tableRow;horizontal=0;startSize=0;swimlaneHead=0;swimlaneBody=0;fillColor=#f5f5f5;collapsible=0;dropTarget=0;points=[[0,0.5],[1,0.5]];portConstraint=eastwest;top=0;left=0;right=0;bottom=0;strokeColor=#666666;fontColor=#333333;strokeWidth=2;rounded=1;fontStyle=1;shadow=0;" parent="tQOnXve0qwPO33CJhy6B-161" vertex="1">
          <mxGeometry y="90" width="180" height="30" as="geometry" />
        </mxCell>
        <mxCell id="tQOnXve0qwPO33CJhy6B-169" value="" style="shape=partialRectangle;connectable=0;fillColor=#f5f5f5;top=0;left=0;bottom=0;right=0;editable=1;overflow=hidden;whiteSpace=wrap;html=1;strokeColor=#666666;fontColor=#333333;strokeWidth=2;rounded=1;fontStyle=1;shadow=0;" parent="tQOnXve0qwPO33CJhy6B-168" vertex="1">
          <mxGeometry width="30" height="30" as="geometry">
            <mxRectangle width="30" height="30" as="alternateBounds" />
          </mxGeometry>
        </mxCell>
        <mxCell id="tQOnXve0qwPO33CJhy6B-170" value="ID Sinh viên" style="shape=partialRectangle;connectable=0;fillColor=#f5f5f5;top=0;left=0;bottom=0;right=0;align=left;spacingLeft=6;overflow=hidden;whiteSpace=wrap;html=1;strokeColor=#666666;fontColor=#333333;strokeWidth=2;rounded=1;fontStyle=1;shadow=0;" parent="tQOnXve0qwPO33CJhy6B-168" vertex="1">
          <mxGeometry x="30" width="150" height="30" as="geometry">
            <mxRectangle width="150" height="30" as="alternateBounds" />
          </mxGeometry>
        </mxCell>
        <mxCell id="IWIqAQeaE0l4H3r7YwF_-28" value="" style="shape=tableRow;horizontal=0;startSize=0;swimlaneHead=0;swimlaneBody=0;fillColor=#f5f5f5;collapsible=0;dropTarget=0;points=[[0,0.5],[1,0.5]];portConstraint=eastwest;top=0;left=0;right=0;bottom=0;strokeColor=#666666;fontColor=#333333;strokeWidth=2;rounded=1;fontStyle=1;shadow=0;" parent="tQOnXve0qwPO33CJhy6B-161" vertex="1">
          <mxGeometry y="120" width="180" height="30" as="geometry" />
        </mxCell>
        <mxCell id="IWIqAQeaE0l4H3r7YwF_-29" value="" style="shape=partialRectangle;connectable=0;fillColor=#f5f5f5;top=0;left=0;bottom=0;right=0;editable=1;overflow=hidden;whiteSpace=wrap;html=1;strokeColor=#666666;fontColor=#333333;strokeWidth=2;rounded=1;fontStyle=1;shadow=0;" parent="IWIqAQeaE0l4H3r7YwF_-28" vertex="1">
          <mxGeometry width="30" height="30" as="geometry">
            <mxRectangle width="30" height="30" as="alternateBounds" />
          </mxGeometry>
        </mxCell>
        <mxCell id="IWIqAQeaE0l4H3r7YwF_-30" value="Ngày" style="shape=partialRectangle;connectable=0;fillColor=#f5f5f5;top=0;left=0;bottom=0;right=0;align=left;spacingLeft=6;overflow=hidden;whiteSpace=wrap;html=1;strokeColor=#666666;fontColor=#333333;strokeWidth=2;rounded=1;fontStyle=1;shadow=0;" parent="IWIqAQeaE0l4H3r7YwF_-28" vertex="1">
          <mxGeometry x="30" width="150" height="30" as="geometry">
            <mxRectangle width="150" height="30" as="alternateBounds" />
          </mxGeometry>
        </mxCell>
        <mxCell id="tQOnXve0qwPO33CJhy6B-171" value="" style="shape=tableRow;horizontal=0;startSize=0;swimlaneHead=0;swimlaneBody=0;fillColor=#f5f5f5;collapsible=0;dropTarget=0;points=[[0,0.5],[1,0.5]];portConstraint=eastwest;top=0;left=0;right=0;bottom=0;strokeColor=#666666;fontColor=#333333;strokeWidth=2;rounded=1;fontStyle=1;shadow=0;" parent="tQOnXve0qwPO33CJhy6B-161" vertex="1">
          <mxGeometry y="150" width="180" height="30" as="geometry" />
        </mxCell>
        <mxCell id="tQOnXve0qwPO33CJhy6B-172" value="" style="shape=partialRectangle;connectable=0;fillColor=#f5f5f5;top=0;left=0;bottom=0;right=0;editable=1;overflow=hidden;whiteSpace=wrap;html=1;strokeColor=#666666;fontColor=#333333;strokeWidth=2;rounded=1;fontStyle=1;shadow=0;" parent="tQOnXve0qwPO33CJhy6B-171" vertex="1">
          <mxGeometry width="30" height="30" as="geometry">
            <mxRectangle width="30" height="30" as="alternateBounds" />
          </mxGeometry>
        </mxCell>
        <mxCell id="tQOnXve0qwPO33CJhy6B-173" value="Ghi chú nghỉ phép" style="shape=partialRectangle;connectable=0;fillColor=#f5f5f5;top=0;left=0;bottom=0;right=0;align=left;spacingLeft=6;overflow=hidden;whiteSpace=wrap;html=1;strokeColor=#666666;fontColor=#333333;strokeWidth=2;rounded=1;fontStyle=1;shadow=0;" parent="tQOnXve0qwPO33CJhy6B-171" vertex="1">
          <mxGeometry x="30" width="150" height="30" as="geometry">
            <mxRectangle width="150" height="30" as="alternateBounds" />
          </mxGeometry>
        </mxCell>
        <mxCell id="tQOnXve0qwPO33CJhy6B-126" value="&lt;font style=&quot;font-size: 17px;&quot; color=&quot;#000000&quot;&gt;&lt;i&gt;Phân công gd&lt;/i&gt;&lt;/font&gt;" style="shape=table;startSize=30;container=1;collapsible=1;childLayout=tableLayout;fixedRows=1;rowLines=0;fontStyle=1;align=center;resizeLast=1;html=1;fillColor=#1ba1e2;strokeColor=#006EAF;fontColor=#ffffff;strokeWidth=2;rounded=0;fillStyle=auto;shadow=0;swimlaneLine=1;" parent="1" vertex="1">
          <mxGeometry x="-80" y="-20" width="180" height="360" as="geometry" />
        </mxCell>
        <mxCell id="tQOnXve0qwPO33CJhy6B-127" value="" style="shape=tableRow;horizontal=0;startSize=0;swimlaneHead=0;swimlaneBody=0;fillColor=#f5f5f5;collapsible=0;dropTarget=0;points=[[0,0.5],[1,0.5]];portConstraint=eastwest;top=0;left=0;right=0;bottom=1;strokeColor=#666666;fontColor=#333333;strokeWidth=2;rounded=1;fontStyle=1;shadow=0;" parent="tQOnXve0qwPO33CJhy6B-126" vertex="1">
          <mxGeometry y="30" width="180" height="30" as="geometry" />
        </mxCell>
        <mxCell id="tQOnXve0qwPO33CJhy6B-128" value="PK" style="shape=partialRectangle;connectable=0;fillColor=#f5f5f5;top=0;left=0;bottom=0;right=0;fontStyle=1;overflow=hidden;whiteSpace=wrap;html=1;strokeColor=#666666;fontColor=#333333;strokeWidth=2;rounded=1;shadow=0;" parent="tQOnXve0qwPO33CJhy6B-127" vertex="1">
          <mxGeometry width="30" height="30" as="geometry">
            <mxRectangle width="30" height="30" as="alternateBounds" />
          </mxGeometry>
        </mxCell>
        <mxCell id="tQOnXve0qwPO33CJhy6B-129" value="ID Phân công" style="shape=partialRectangle;connectable=0;fillColor=#f5f5f5;top=0;left=0;bottom=0;right=0;align=left;spacingLeft=6;fontStyle=5;overflow=hidden;whiteSpace=wrap;html=1;strokeColor=#666666;fontColor=#333333;strokeWidth=2;rounded=1;shadow=0;" parent="tQOnXve0qwPO33CJhy6B-127" vertex="1">
          <mxGeometry x="30" width="150" height="30" as="geometry">
            <mxRectangle width="150" height="30" as="alternateBounds" />
          </mxGeometry>
        </mxCell>
        <mxCell id="tQOnXve0qwPO33CJhy6B-130" value="" style="shape=tableRow;horizontal=0;startSize=0;swimlaneHead=0;swimlaneBody=0;fillColor=#f5f5f5;collapsible=0;dropTarget=0;points=[[0,0.5],[1,0.5]];portConstraint=eastwest;top=0;left=0;right=0;bottom=0;strokeColor=#666666;fontColor=#333333;strokeWidth=2;rounded=1;fontStyle=1;shadow=0;" parent="tQOnXve0qwPO33CJhy6B-126" vertex="1">
          <mxGeometry y="60" width="180" height="30" as="geometry" />
        </mxCell>
        <mxCell id="tQOnXve0qwPO33CJhy6B-131" value="FK" style="shape=partialRectangle;connectable=0;fillColor=#f5f5f5;top=0;left=0;bottom=0;right=0;editable=1;overflow=hidden;whiteSpace=wrap;html=1;strokeColor=#666666;fontColor=#333333;strokeWidth=2;rounded=1;fontStyle=1;shadow=0;" parent="tQOnXve0qwPO33CJhy6B-130" vertex="1">
          <mxGeometry width="30" height="30" as="geometry">
            <mxRectangle width="30" height="30" as="alternateBounds" />
          </mxGeometry>
        </mxCell>
        <mxCell id="tQOnXve0qwPO33CJhy6B-132" value="ID Môn học" style="shape=partialRectangle;connectable=0;fillColor=#f5f5f5;top=0;left=0;bottom=0;right=0;align=left;spacingLeft=6;overflow=hidden;whiteSpace=wrap;html=1;strokeColor=#666666;fontColor=#333333;strokeWidth=2;rounded=1;fontStyle=1;shadow=0;" parent="tQOnXve0qwPO33CJhy6B-130" vertex="1">
          <mxGeometry x="30" width="150" height="30" as="geometry">
            <mxRectangle width="150" height="30" as="alternateBounds" />
          </mxGeometry>
        </mxCell>
        <mxCell id="tQOnXve0qwPO33CJhy6B-136" value="" style="shape=tableRow;horizontal=0;startSize=0;swimlaneHead=0;swimlaneBody=0;fillColor=#f5f5f5;collapsible=0;dropTarget=0;points=[[0,0.5],[1,0.5]];portConstraint=eastwest;top=0;left=0;right=0;bottom=0;strokeColor=#666666;fontColor=#333333;strokeWidth=2;rounded=1;fontStyle=1;shadow=0;" parent="tQOnXve0qwPO33CJhy6B-126" vertex="1">
          <mxGeometry y="90" width="180" height="30" as="geometry" />
        </mxCell>
        <mxCell id="tQOnXve0qwPO33CJhy6B-137" value="FK" style="shape=partialRectangle;connectable=0;fillColor=#f5f5f5;top=0;left=0;bottom=0;right=0;editable=1;overflow=hidden;whiteSpace=wrap;html=1;strokeColor=#666666;fontColor=#333333;strokeWidth=2;rounded=1;fontStyle=1;shadow=0;" parent="tQOnXve0qwPO33CJhy6B-136" vertex="1">
          <mxGeometry width="30" height="30" as="geometry">
            <mxRectangle width="30" height="30" as="alternateBounds" />
          </mxGeometry>
        </mxCell>
        <mxCell id="tQOnXve0qwPO33CJhy6B-138" value="ID Lớp học" style="shape=partialRectangle;connectable=0;fillColor=#f5f5f5;top=0;left=0;bottom=0;right=0;align=left;spacingLeft=6;overflow=hidden;whiteSpace=wrap;html=1;strokeColor=#666666;fontColor=#333333;strokeWidth=2;rounded=1;fontStyle=1;shadow=0;" parent="tQOnXve0qwPO33CJhy6B-136" vertex="1">
          <mxGeometry x="30" width="150" height="30" as="geometry">
            <mxRectangle width="150" height="30" as="alternateBounds" />
          </mxGeometry>
        </mxCell>
        <mxCell id="tQOnXve0qwPO33CJhy6B-133" value="" style="shape=tableRow;horizontal=0;startSize=0;swimlaneHead=0;swimlaneBody=0;fillColor=#f5f5f5;collapsible=0;dropTarget=0;points=[[0,0.5],[1,0.5]];portConstraint=eastwest;top=0;left=0;right=0;bottom=0;strokeColor=#666666;fontColor=#333333;strokeWidth=2;rounded=1;fontStyle=1;shadow=0;" parent="tQOnXve0qwPO33CJhy6B-126" vertex="1">
          <mxGeometry y="120" width="180" height="30" as="geometry" />
        </mxCell>
        <mxCell id="tQOnXve0qwPO33CJhy6B-134" value="FK" style="shape=partialRectangle;connectable=0;fillColor=#f5f5f5;top=0;left=0;bottom=0;right=0;editable=1;overflow=hidden;whiteSpace=wrap;html=1;strokeColor=#666666;fontColor=#333333;strokeWidth=2;rounded=1;fontStyle=1;shadow=0;" parent="tQOnXve0qwPO33CJhy6B-133" vertex="1">
          <mxGeometry width="30" height="30" as="geometry">
            <mxRectangle width="30" height="30" as="alternateBounds" />
          </mxGeometry>
        </mxCell>
        <mxCell id="tQOnXve0qwPO33CJhy6B-135" value="ID giáo viên" style="shape=partialRectangle;connectable=0;fillColor=#f5f5f5;top=0;left=0;bottom=0;right=0;align=left;spacingLeft=6;overflow=hidden;whiteSpace=wrap;html=1;strokeColor=#666666;fontColor=#333333;strokeWidth=2;rounded=1;fontStyle=1;shadow=0;" parent="tQOnXve0qwPO33CJhy6B-133" vertex="1">
          <mxGeometry x="30" width="150" height="30" as="geometry">
            <mxRectangle width="150" height="30" as="alternateBounds" />
          </mxGeometry>
        </mxCell>
        <mxCell id="tQOnXve0qwPO33CJhy6B-139" value="" style="shape=tableRow;horizontal=0;startSize=0;swimlaneHead=0;swimlaneBody=0;fillColor=#f5f5f5;collapsible=0;dropTarget=0;points=[[0,0.5],[1,0.5]];portConstraint=eastwest;top=0;left=0;right=0;bottom=0;strokeColor=#666666;fontColor=#333333;strokeWidth=2;rounded=1;fontStyle=1;shadow=0;" parent="tQOnXve0qwPO33CJhy6B-126" vertex="1">
          <mxGeometry y="150" width="180" height="30" as="geometry" />
        </mxCell>
        <mxCell id="tQOnXve0qwPO33CJhy6B-140" value="" style="shape=partialRectangle;connectable=0;fillColor=#f5f5f5;top=0;left=0;bottom=0;right=0;editable=1;overflow=hidden;whiteSpace=wrap;html=1;strokeColor=#666666;fontColor=#333333;strokeWidth=2;rounded=1;fontStyle=1;shadow=0;" parent="tQOnXve0qwPO33CJhy6B-139" vertex="1">
          <mxGeometry width="30" height="30" as="geometry">
            <mxRectangle width="30" height="30" as="alternateBounds" />
          </mxGeometry>
        </mxCell>
        <mxCell id="tQOnXve0qwPO33CJhy6B-141" value="Ca học" style="shape=partialRectangle;connectable=0;fillColor=#f5f5f5;top=0;left=0;bottom=0;right=0;align=left;spacingLeft=6;overflow=hidden;whiteSpace=wrap;html=1;strokeColor=#666666;fontColor=#333333;strokeWidth=2;rounded=1;fontStyle=1;shadow=0;" parent="tQOnXve0qwPO33CJhy6B-139" vertex="1">
          <mxGeometry x="30" width="150" height="30" as="geometry">
            <mxRectangle width="150" height="30" as="alternateBounds" />
          </mxGeometry>
        </mxCell>
        <mxCell id="tQOnXve0qwPO33CJhy6B-142" value="" style="shape=tableRow;horizontal=0;startSize=0;swimlaneHead=0;swimlaneBody=0;fillColor=#f5f5f5;collapsible=0;dropTarget=0;points=[[0,0.5],[1,0.5]];portConstraint=eastwest;top=0;left=0;right=0;bottom=0;strokeColor=#666666;fontColor=#333333;strokeWidth=2;rounded=1;fontStyle=1;shadow=0;" parent="tQOnXve0qwPO33CJhy6B-126" vertex="1">
          <mxGeometry y="180" width="180" height="30" as="geometry" />
        </mxCell>
        <mxCell id="tQOnXve0qwPO33CJhy6B-143" value="FK" style="shape=partialRectangle;connectable=0;fillColor=#f5f5f5;top=0;left=0;bottom=0;right=0;editable=1;overflow=hidden;whiteSpace=wrap;html=1;strokeColor=#666666;fontColor=#333333;strokeWidth=2;rounded=1;fontStyle=1;shadow=0;" parent="tQOnXve0qwPO33CJhy6B-142" vertex="1">
          <mxGeometry width="30" height="30" as="geometry">
            <mxRectangle width="30" height="30" as="alternateBounds" />
          </mxGeometry>
        </mxCell>
        <mxCell id="tQOnXve0qwPO33CJhy6B-144" value="ID phòng học" style="shape=partialRectangle;connectable=0;fillColor=#f5f5f5;top=0;left=0;bottom=0;right=0;align=left;spacingLeft=6;overflow=hidden;whiteSpace=wrap;html=1;strokeColor=#666666;fontColor=#333333;strokeWidth=2;rounded=1;fontStyle=1;shadow=0;" parent="tQOnXve0qwPO33CJhy6B-142" vertex="1">
          <mxGeometry x="30" width="150" height="30" as="geometry">
            <mxRectangle width="150" height="30" as="alternateBounds" />
          </mxGeometry>
        </mxCell>
        <mxCell id="IWIqAQeaE0l4H3r7YwF_-19" value="" style="shape=tableRow;horizontal=0;startSize=0;swimlaneHead=0;swimlaneBody=0;fillColor=#f5f5f5;collapsible=0;dropTarget=0;points=[[0,0.5],[1,0.5]];portConstraint=eastwest;top=0;left=0;right=0;bottom=0;strokeColor=#666666;fontColor=#333333;strokeWidth=2;rounded=1;fontStyle=1;shadow=0;" parent="tQOnXve0qwPO33CJhy6B-126" vertex="1">
          <mxGeometry y="210" width="180" height="30" as="geometry" />
        </mxCell>
        <mxCell id="IWIqAQeaE0l4H3r7YwF_-20" value="" style="shape=partialRectangle;connectable=0;fillColor=#f5f5f5;top=0;left=0;bottom=0;right=0;editable=1;overflow=hidden;whiteSpace=wrap;html=1;strokeColor=#666666;fontColor=#333333;strokeWidth=2;rounded=1;fontStyle=1;shadow=0;" parent="IWIqAQeaE0l4H3r7YwF_-19" vertex="1">
          <mxGeometry width="30" height="30" as="geometry">
            <mxRectangle width="30" height="30" as="alternateBounds" />
          </mxGeometry>
        </mxCell>
        <mxCell id="IWIqAQeaE0l4H3r7YwF_-21" value="Kỳ" style="shape=partialRectangle;connectable=0;fillColor=#f5f5f5;top=0;left=0;bottom=0;right=0;align=left;spacingLeft=6;overflow=hidden;whiteSpace=wrap;html=1;strokeColor=#666666;fontColor=#333333;strokeWidth=2;rounded=1;fontStyle=1;shadow=0;" parent="IWIqAQeaE0l4H3r7YwF_-19" vertex="1">
          <mxGeometry x="30" width="150" height="30" as="geometry">
            <mxRectangle width="150" height="30" as="alternateBounds" />
          </mxGeometry>
        </mxCell>
        <mxCell id="tQOnXve0qwPO33CJhy6B-145" value="" style="shape=tableRow;horizontal=0;startSize=0;swimlaneHead=0;swimlaneBody=0;fillColor=#f5f5f5;collapsible=0;dropTarget=0;points=[[0,0.5],[1,0.5]];portConstraint=eastwest;top=0;left=0;right=0;bottom=0;strokeColor=#666666;fontColor=#333333;strokeWidth=2;rounded=1;fontStyle=1;shadow=0;" parent="tQOnXve0qwPO33CJhy6B-126" vertex="1">
          <mxGeometry y="240" width="180" height="30" as="geometry" />
        </mxCell>
        <mxCell id="tQOnXve0qwPO33CJhy6B-146" value="" style="shape=partialRectangle;connectable=0;fillColor=#f5f5f5;top=0;left=0;bottom=0;right=0;editable=1;overflow=hidden;whiteSpace=wrap;html=1;strokeColor=#666666;fontColor=#333333;strokeWidth=2;rounded=1;fontStyle=1;shadow=0;" parent="tQOnXve0qwPO33CJhy6B-145" vertex="1">
          <mxGeometry width="30" height="30" as="geometry">
            <mxRectangle width="30" height="30" as="alternateBounds" />
          </mxGeometry>
        </mxCell>
        <mxCell id="tQOnXve0qwPO33CJhy6B-147" value="Mùa&amp;nbsp;" style="shape=partialRectangle;connectable=0;fillColor=#f5f5f5;top=0;left=0;bottom=0;right=0;align=left;spacingLeft=6;overflow=hidden;whiteSpace=wrap;html=1;strokeColor=#666666;fontColor=#333333;strokeWidth=2;rounded=1;fontStyle=1;shadow=0;" parent="tQOnXve0qwPO33CJhy6B-145" vertex="1">
          <mxGeometry x="30" width="150" height="30" as="geometry">
            <mxRectangle width="150" height="30" as="alternateBounds" />
          </mxGeometry>
        </mxCell>
        <mxCell id="tQOnXve0qwPO33CJhy6B-148" value="" style="shape=tableRow;horizontal=0;startSize=0;swimlaneHead=0;swimlaneBody=0;fillColor=#f5f5f5;collapsible=0;dropTarget=0;points=[[0,0.5],[1,0.5]];portConstraint=eastwest;top=0;left=0;right=0;bottom=0;strokeColor=#666666;fontColor=#333333;strokeWidth=2;rounded=1;fontStyle=1;shadow=0;" parent="tQOnXve0qwPO33CJhy6B-126" vertex="1">
          <mxGeometry y="270" width="180" height="30" as="geometry" />
        </mxCell>
        <mxCell id="tQOnXve0qwPO33CJhy6B-149" value="" style="shape=partialRectangle;connectable=0;fillColor=#f5f5f5;top=0;left=0;bottom=0;right=0;editable=1;overflow=hidden;whiteSpace=wrap;html=1;strokeColor=#666666;fontColor=#333333;strokeWidth=2;rounded=1;fontStyle=1;shadow=0;" parent="tQOnXve0qwPO33CJhy6B-148" vertex="1">
          <mxGeometry width="30" height="30" as="geometry">
            <mxRectangle width="30" height="30" as="alternateBounds" />
          </mxGeometry>
        </mxCell>
        <mxCell id="tQOnXve0qwPO33CJhy6B-150" value="Block" style="shape=partialRectangle;connectable=0;fillColor=#f5f5f5;top=0;left=0;bottom=0;right=0;align=left;spacingLeft=6;overflow=hidden;whiteSpace=wrap;html=1;strokeColor=#666666;fontColor=#333333;strokeWidth=2;rounded=1;fontStyle=1;shadow=0;" parent="tQOnXve0qwPO33CJhy6B-148" vertex="1">
          <mxGeometry x="30" width="150" height="30" as="geometry">
            <mxRectangle width="150" height="30" as="alternateBounds" />
          </mxGeometry>
        </mxCell>
        <mxCell id="IWIqAQeaE0l4H3r7YwF_-25" style="shape=tableRow;horizontal=0;startSize=0;swimlaneHead=0;swimlaneBody=0;fillColor=#f5f5f5;collapsible=0;dropTarget=0;points=[[0,0.5],[1,0.5]];portConstraint=eastwest;top=0;left=0;right=0;bottom=0;strokeColor=#666666;fontColor=#333333;strokeWidth=2;rounded=1;fontStyle=1;shadow=0;" parent="tQOnXve0qwPO33CJhy6B-126" vertex="1">
          <mxGeometry y="300" width="180" height="30" as="geometry" />
        </mxCell>
        <mxCell id="IWIqAQeaE0l4H3r7YwF_-26" style="shape=partialRectangle;connectable=0;fillColor=#f5f5f5;top=0;left=0;bottom=0;right=0;editable=1;overflow=hidden;whiteSpace=wrap;html=1;strokeColor=#666666;fontColor=#333333;strokeWidth=2;rounded=1;fontStyle=1;shadow=0;" parent="IWIqAQeaE0l4H3r7YwF_-25" vertex="1">
          <mxGeometry width="30" height="30" as="geometry">
            <mxRectangle width="30" height="30" as="alternateBounds" />
          </mxGeometry>
        </mxCell>
        <mxCell id="IWIqAQeaE0l4H3r7YwF_-27" value="Ngày chỉnh sửa cuối" style="shape=partialRectangle;connectable=0;fillColor=#f5f5f5;top=0;left=0;bottom=0;right=0;align=left;spacingLeft=6;overflow=hidden;whiteSpace=wrap;html=1;strokeColor=#666666;fontColor=#333333;strokeWidth=2;rounded=1;fontStyle=1;shadow=0;" parent="IWIqAQeaE0l4H3r7YwF_-25" vertex="1">
          <mxGeometry x="30" width="150" height="30" as="geometry">
            <mxRectangle width="150" height="30" as="alternateBounds" />
          </mxGeometry>
        </mxCell>
        <mxCell id="tQOnXve0qwPO33CJhy6B-151" style="shape=tableRow;horizontal=0;startSize=0;swimlaneHead=0;swimlaneBody=0;fillColor=#f5f5f5;collapsible=0;dropTarget=0;points=[[0,0.5],[1,0.5]];portConstraint=eastwest;top=0;left=0;right=0;bottom=0;strokeColor=#666666;fontColor=#333333;strokeWidth=2;rounded=1;fontStyle=1;shadow=0;" parent="tQOnXve0qwPO33CJhy6B-126" vertex="1">
          <mxGeometry y="330" width="180" height="30" as="geometry" />
        </mxCell>
        <mxCell id="tQOnXve0qwPO33CJhy6B-152" style="shape=partialRectangle;connectable=0;fillColor=#f5f5f5;top=0;left=0;bottom=0;right=0;editable=1;overflow=hidden;whiteSpace=wrap;html=1;strokeColor=#666666;fontColor=#333333;strokeWidth=2;rounded=1;fontStyle=1;shadow=0;" parent="tQOnXve0qwPO33CJhy6B-151" vertex="1">
          <mxGeometry width="30" height="30" as="geometry">
            <mxRectangle width="30" height="30" as="alternateBounds" />
          </mxGeometry>
        </mxCell>
        <mxCell id="tQOnXve0qwPO33CJhy6B-153" value="Mô tả" style="shape=partialRectangle;connectable=0;fillColor=#f5f5f5;top=0;left=0;bottom=0;right=0;align=left;spacingLeft=6;overflow=hidden;whiteSpace=wrap;html=1;strokeColor=#666666;fontColor=#333333;strokeWidth=2;rounded=1;fontStyle=1;shadow=0;" parent="tQOnXve0qwPO33CJhy6B-151" vertex="1">
          <mxGeometry x="30" width="150" height="30" as="geometry">
            <mxRectangle width="150" height="30" as="alternateBounds" />
          </mxGeometry>
        </mxCell>
        <mxCell id="CFcdtzbTBn9PZgVDuJhA-26" value="" style="edgeStyle=orthogonalEdgeStyle;fontSize=12;html=1;endArrow=ERoneToMany;rounded=1;entryX=0;entryY=0.5;entryDx=0;entryDy=0;exitX=0;exitY=0.5;exitDx=0;exitDy=0;fillColor=#fa6800;strokeColor=#C73500;strokeWidth=2;fontStyle=1;shadow=0;" parent="1" source="tQOnXve0qwPO33CJhy6B-15" target="tQOnXve0qwPO33CJhy6B-193" edge="1">
          <mxGeometry width="100" height="100" relative="1" as="geometry">
            <mxPoint x="-340" y="720" as="sourcePoint" />
            <mxPoint x="-240" y="620" as="targetPoint" />
            <Array as="points">
              <mxPoint x="-420" y="485" />
              <mxPoint x="-420" y="395" />
            </Array>
          </mxGeometry>
        </mxCell>
        <mxCell id="CFcdtzbTBn9PZgVDuJhA-27" value="" style="edgeStyle=orthogonalEdgeStyle;fontSize=12;html=1;endArrow=ERoneToMany;rounded=1;exitX=1;exitY=0.5;exitDx=0;exitDy=0;entryX=0;entryY=0.5;entryDx=0;entryDy=0;fillColor=#d0cee2;strokeColor=#56517e;strokeWidth=2;fontStyle=1;shadow=0;" parent="1" source="tQOnXve0qwPO33CJhy6B-2" target="tQOnXve0qwPO33CJhy6B-33" edge="1">
          <mxGeometry width="100" height="100" relative="1" as="geometry">
            <mxPoint x="-480" y="-420" as="sourcePoint" />
            <mxPoint x="-380" y="610" as="targetPoint" />
          </mxGeometry>
        </mxCell>
        <mxCell id="CFcdtzbTBn9PZgVDuJhA-54" value="" style="edgeStyle=entityRelationEdgeStyle;fontSize=12;html=1;endArrow=ERzeroToOne;endFill=1;rounded=1;entryX=1;entryY=0.5;entryDx=0;entryDy=0;exitX=1;exitY=0.5;exitDx=0;exitDy=0;strokeWidth=2;fillColor=#e6d0de;gradientColor=#d5739d;strokeColor=#996185;fontStyle=1;shadow=0;" parent="1" source="CFcdtzbTBn9PZgVDuJhA-5" target="tQOnXve0qwPO33CJhy6B-110" edge="1">
          <mxGeometry width="100" height="100" relative="1" as="geometry">
            <mxPoint x="-410" y="790" as="sourcePoint" />
            <mxPoint x="-310" y="690" as="targetPoint" />
          </mxGeometry>
        </mxCell>
        <mxCell id="CFcdtzbTBn9PZgVDuJhA-59" value="" style="edgeStyle=orthogonalEdgeStyle;fontSize=12;html=1;endArrow=ERoneToMany;rounded=1;exitX=1;exitY=0.25;exitDx=0;exitDy=0;fillColor=#0050ef;strokeColor=#1BA1E2;strokeWidth=2;entryX=1;entryY=0.5;entryDx=0;entryDy=0;fontStyle=1;shadow=0;" parent="1" source="tQOnXve0qwPO33CJhy6B-113" target="tQOnXve0qwPO33CJhy6B-136" edge="1">
          <mxGeometry width="100" height="100" relative="1" as="geometry">
            <mxPoint x="-80" y="-110" as="sourcePoint" />
            <mxPoint x="20" y="-210" as="targetPoint" />
            <Array as="points">
              <mxPoint x="150" y="-122" />
              <mxPoint x="150" y="85" />
            </Array>
          </mxGeometry>
        </mxCell>
        <mxCell id="CFcdtzbTBn9PZgVDuJhA-60" value="" style="edgeStyle=orthogonalEdgeStyle;fontSize=12;html=1;endArrow=ERoneToMany;rounded=1;exitX=1;exitY=0.5;exitDx=0;exitDy=0;fillColor=#0050ef;strokeColor=#1BA1E2;strokeWidth=2;entryX=1;entryY=0.5;entryDx=0;entryDy=0;fontStyle=1;shadow=0;" parent="1" source="tQOnXve0qwPO33CJhy6B-37" target="tQOnXve0qwPO33CJhy6B-130" edge="1">
          <mxGeometry width="100" height="100" relative="1" as="geometry">
            <mxPoint x="-200" y="-112" as="sourcePoint" />
            <mxPoint x="60" y="125" as="targetPoint" />
            <Array as="points">
              <mxPoint x="-140" y="-445" />
              <mxPoint x="-140" y="-500" />
              <mxPoint x="170" y="-500" />
              <mxPoint x="170" y="55" />
            </Array>
          </mxGeometry>
        </mxCell>
        <mxCell id="CFcdtzbTBn9PZgVDuJhA-61" value="" style="edgeStyle=orthogonalEdgeStyle;fontSize=12;html=1;endArrow=ERoneToMany;rounded=1;exitX=1;exitY=0.5;exitDx=0;exitDy=0;strokeWidth=2;fillColor=#fa6800;strokeColor=#C73500;fontStyle=1;shadow=0;entryX=1;entryY=0.5;entryDx=0;entryDy=0;" parent="1" source="tQOnXve0qwPO33CJhy6B-37" target="tQOnXve0qwPO33CJhy6B-190" edge="1">
          <mxGeometry width="100" height="100" relative="1" as="geometry">
            <mxPoint x="-70" y="-140" as="sourcePoint" />
            <mxPoint x="-180" y="390" as="targetPoint" />
            <Array as="points">
              <mxPoint x="-160" y="-445" />
              <mxPoint x="-160" y="365" />
            </Array>
          </mxGeometry>
        </mxCell>
        <mxCell id="CFcdtzbTBn9PZgVDuJhA-62" value="" style="edgeStyle=orthogonalEdgeStyle;fontSize=12;html=1;endArrow=ERoneToMany;rounded=1;entryX=0;entryY=0.5;entryDx=0;entryDy=0;exitX=1;exitY=0.5;exitDx=0;exitDy=0;strokeWidth=2;fillColor=#f0a30a;strokeColor=#D79B00;fontStyle=1;shadow=0;" parent="1" source="tQOnXve0qwPO33CJhy6B-15" target="tQOnXve0qwPO33CJhy6B-203" edge="1">
          <mxGeometry width="100" height="100" relative="1" as="geometry">
            <mxPoint x="-220" y="650" as="sourcePoint" />
            <mxPoint x="-120" y="550" as="targetPoint" />
            <Array as="points">
              <mxPoint x="-110" y="485" />
              <mxPoint x="-110" y="515" />
            </Array>
          </mxGeometry>
        </mxCell>
      </root>
    </mxGraphModel>
  </diagram>
</mxfile>
